<?xml version="1.0" encoding="UTF-8"?>
<svg xmlns="http://www.w3.org/2000/svg" xmlns:xlink="http://www.w3.org/1999/xlink"
     width="833" height="161" viewBox="0 -161 833 161">
<defs>
<marker markerWidth="4.0" markerHeight="4.0" viewBox="-0.1 -0.5 1.0 1.0" orient="auto" id="d0">
<path d="M-0.1,0.5 L-0.1,-0.5 L0.9,0 Z" stroke-width="0.1" stroke="black" fill="black" />
</marker>
</defs>
<rect x="0" y="-33.0" width="33" height="33" fill="#bbb" />
<rect x="32" y="-33.0" width="33" height="33" fill="#bbb" />
<rect x="64" y="-33.0" width="33" height="33" fill="#bbb" />
<rect x="96" y="-33.0" width="33" height="33" fill="#bbb" />
<rect x="128" y="-33.0" width="33" height="33" fill="#bbb" />
<rect x="0" y="-65.0" width="33" height="33" fill="#bbb" />
<rect x="32" y="-65.0" width="33" height="33" fill="#bbb" />
<rect x="64" y="-65.0" width="33" height="33" fill="#bbb" />
<rect x="96" y="-65.0" width="33" height="33" fill="#bbb" />
<rect x="128" y="-65.0" width="33" height="33" fill="#bbb" />
<rect x="0" y="-97.0" width="33" height="33" fill="#bbb" />
<rect x="32" y="-97.0" width="33" height="33" fill="#bbb" />
<rect x="64" y="-97.0" width="33" height="33" fill="#bbb" />
<rect x="96" y="-97.0" width="33" height="33" fill="#bbb" />
<rect x="128" y="-97.0" width="33" height="33" fill="#bbb" />
<rect x="0" y="-129.0" width="33" height="33" fill="#bbb" />
<rect x="32" y="-129.0" width="33" height="33" fill="#bbb" />
<rect x="64" y="-129.0" width="33" height="33" fill="#bbb" />
<rect x="96" y="-129.0" width="33" height="33" fill="#bbb" />
<rect x="128" y="-129.0" width="33" height="33" fill="#bbb" />
<rect x="0" y="-161.0" width="33" height="33" fill="#bbb" />
<rect x="32" y="-161.0" width="33" height="33" fill="#bbb" />
<rect x="64" y="-161.0" width="33" height="33" fill="#bbb" />
<rect x="96" y="-161.0" width="33" height="33" fill="#bbb" />
<rect x="128" y="-161.0" width="33" height="33" fill="#bbb" />
<rect x="192" y="-49.0" width="33" height="33" fill="white" />
<rect x="224" y="-49.0" width="33" height="33" fill="white" />
<rect x="256" y="-49.0" width="33" height="33" fill="white" />
<rect x="288" y="-49.0" width="33" height="33" fill="white" />
<rect x="320" y="-49.0" width="33" height="33" fill="white" />
<rect x="192" y="-81.0" width="33" height="33" fill="#bbb" />
<rect x="224" y="-81.0" width="33" height="33" fill="#bbb" />
<rect x="256" y="-81.0" width="33" height="33" fill="#bbb" />
<rect x="288" y="-81.0" width="33" height="33" fill="#bbb" />
<rect x="320" y="-81.0" width="33" height="33" fill="#bbb" />
<rect x="192" y="-113.0" width="33" height="33" fill="#bbb" />
<rect x="224" y="-113.0" width="33" height="33" fill="#bbb" />
<rect x="256" y="-113.0" width="33" height="33" fill="#bbb" />
<rect x="288" y="-113.0" width="33" height="33" fill="#bbb" />
<rect x="320" y="-113.0" width="33" height="33" fill="#bbb" />
<rect x="192" y="-145.0" width="33" height="33" fill="#bbb" />
<rect x="224" y="-145.0" width="33" height="33" fill="#bbb" />
<rect x="256" y="-145.0" width="33" height="33" fill="#bbb" />
<rect x="288" y="-145.0" width="33" height="33" fill="#bbb" />
<rect x="320" y="-145.0" width="33" height="33" fill="#bbb" />
<rect x="384" y="-65.0" width="33" height="33" fill="white" />
<rect x="416" y="-65.0" width="33" height="33" fill="white" />
<rect x="448" y="-65.0" width="33" height="33" fill="white" />
<rect x="480" y="-65.0" width="33" height="33" fill="white" />
<rect x="512" y="-65.0" width="33" height="33" fill="white" />
<rect x="384" y="-97.0" width="33" height="33" fill="#bbb" />
<rect x="416" y="-97.0" width="33" height="33" fill="#bbb" />
<rect x="448" y="-97.0" width="33" height="33" fill="#bbb" />
<rect x="480" y="-97.0" width="33" height="33" fill="#bbb" />
<rect x="512" y="-97.0" width="33" height="33" fill="#bbb" />
<rect x="384" y="-129.0" width="33" height="33" fill="white" />
<rect x="416" y="-129.0" width="33" height="33" fill="white" />
<rect x="448" y="-129.0" width="33" height="33" fill="white" />
<rect x="480" y="-129.0" width="33" height="33" fill="white" />
<rect x="512" y="-129.0" width="33" height="33" fill="white" />
<rect x="576" y="-65.0" width="33" height="33" fill="white" />
<rect x="608" y="-65.0" width="33" height="33" fill="white" />
<rect x="640" y="-65.0" width="33" height="33" fill="white" />
<rect x="672" y="-65.0" width="33" height="33" fill="white" />
<rect x="576" y="-97.0" width="33" height="33" fill="#bbb" />
<rect x="608" y="-97.0" width="33" height="33" fill="#bbb" />
<rect x="640" y="-97.0" width="33" height="33" fill="#bbb" />
<rect x="672" y="-97.0" width="33" height="33" fill="white" />
<rect x="576" y="-129.0" width="33" height="33" fill="white" />
<rect x="608" y="-129.0" width="33" height="33" fill="white" />
<rect x="640" y="-129.0" width="33" height="33" fill="white" />
<rect x="672" y="-129.0" width="33" height="33" fill="white" />
<rect x="736" y="-65.0" width="33" height="33" fill="white" />
<rect x="768" y="-65.0" width="33" height="33" fill="white" />
<rect x="800" y="-65.0" width="33" height="33" fill="white" />
<rect x="736" y="-97.0" width="33" height="33" fill="white" />
<rect x="768" y="-97.0" width="33" height="33" fill="#bbb" />
<rect x="800" y="-97.0" width="33" height="33" fill="white" />
<rect x="736" y="-129.0" width="33" height="33" fill="white" />
<rect x="768" y="-129.0" width="33" height="33" fill="white" />
<rect x="800" y="-129.0" width="33" height="33" fill="white" />
<path d="M32,-0.0 L32,-32.0" stroke="#ddd" stroke-width="1" fill="none" />
<path d="M64,-0.0 L64,-32.0" stroke="#ddd" stroke-width="1" fill="none" />
<path d="M96,-0.0 L96,-32.0" stroke="#ddd" stroke-width="1" fill="none" />
<path d="M128,-0.0 L128,-32.0" stroke="#ddd" stroke-width="1" fill="none" />
<path d="M32,-32.0 L32,-64.0" stroke="#ddd" stroke-width="1" fill="none" />
<path d="M64,-32.0 L64,-64.0" stroke="#ddd" stroke-width="1" fill="none" />
<path d="M96,-32.0 L96,-64.0" stroke="#ddd" stroke-width="1" fill="none" />
<path d="M128,-32.0 L128,-64.0" stroke="#ddd" stroke-width="1" fill="none" />
<path d="M32,-64.0 L32,-96.0" stroke="#ddd" stroke-width="1" fill="none" />
<path d="M64,-64.0 L64,-96.0" stroke="#ddd" stroke-width="1" fill="none" />
<path d="M96,-64.0 L96,-96.0" stroke="#ddd" stroke-width="1" fill="none" />
<path d="M128,-64.0 L128,-96.0" stroke="#ddd" stroke-width="1" fill="none" />
<path d="M32,-96.0 L32,-128.0" stroke="#ddd" stroke-width="1" fill="none" />
<path d="M64,-96.0 L64,-128.0" stroke="#ddd" stroke-width="1" fill="none" />
<path d="M96,-96.0 L96,-128.0" stroke="#ddd" stroke-width="1" fill="none" />
<path d="M128,-96.0 L128,-128.0" stroke="#ddd" stroke-width="1" fill="none" />
<path d="M32,-128.0 L32,-160.0" stroke="#ddd" stroke-width="1" fill="none" />
<path d="M64,-128.0 L64,-160.0" stroke="#ddd" stroke-width="1" fill="none" />
<path d="M96,-128.0 L96,-160.0" stroke="#ddd" stroke-width="1" fill="none" />
<path d="M128,-128.0 L128,-160.0" stroke="#ddd" stroke-width="1" fill="none" />
<path d="M0,-32.0 L32,-32.0" stroke="#ddd" stroke-width="1" fill="none" />
<path d="M32,-32.0 L64,-32.0" stroke="#ddd" stroke-width="1" fill="none" />
<path d="M64,-32.0 L96,-32.0" stroke="#ddd" stroke-width="1" fill="none" />
<path d="M96,-32.0 L128,-32.0" stroke="#ddd" stroke-width="1" fill="none" />
<path d="M128,-32.0 L160,-32.0" stroke="#ddd" stroke-width="1" fill="none" />
<path d="M0,-64.0 L32,-64.0" stroke="#ddd" stroke-width="1" fill="none" />
<path d="M32,-64.0 L64,-64.0" stroke="#ddd" stroke-width="1" fill="none" />
<path d="M64,-64.0 L96,-64.0" stroke="#ddd" stroke-width="1" fill="none" />
<path d="M96,-64.0 L128,-64.0" stroke="#ddd" stroke-width="1" fill="none" />
<path d="M128,-64.0 L160,-64.0" stroke="#ddd" stroke-width="1" fill="none" />
<path d="M0,-96.0 L32,-96.0" stroke="#ddd" stroke-width="1" fill="none" />
<path d="M32,-96.0 L64,-96.0" stroke="#ddd" stroke-width="1" fill="none" />
<path d="M64,-96.0 L96,-96.0" stroke="#ddd" stroke-width="1" fill="none" />
<path d="M96,-96.0 L128,-96.0" stroke="#ddd" stroke-width="1" fill="none" />
<path d="M128,-96.0 L160,-96.0" stroke="#ddd" stroke-width="1" fill="none" />
<path d="M0,-128.0 L32,-128.0" stroke="#ddd" stroke-width="1" fill="none" />
<path d="M32,-128.0 L64,-128.0" stroke="#ddd" stroke-width="1" fill="none" />
<path d="M64,-128.0 L96,-128.0" stroke="#ddd" stroke-width="1" fill="none" />
<path d="M96,-128.0 L128,-128.0" stroke="#ddd" stroke-width="1" fill="none" />
<path d="M128,-128.0 L160,-128.0" stroke="#ddd" stroke-width="1" fill="none" />
<path d="M224,-16.0 L224,-48.0" stroke="#ddd" stroke-width="1" fill="none" />
<path d="M256,-16.0 L256,-48.0" stroke="#ddd" stroke-width="1" fill="none" />
<path d="M288,-16.0 L288,-48.0" stroke="#ddd" stroke-width="1" fill="none" />
<path d="M320,-16.0 L320,-48.0" stroke="#ddd" stroke-width="1" fill="none" />
<path d="M224,-48.0 L224,-80.0" stroke="#ddd" stroke-width="1" fill="none" />
<path d="M256,-48.0 L256,-80.0" stroke="#ddd" stroke-width="1" fill="none" />
<path d="M288,-48.0 L288,-80.0" stroke="#ddd" stroke-width="1" fill="none" />
<path d="M320,-48.0 L320,-80.0" stroke="#ddd" stroke-width="1" fill="none" />
<path d="M224,-80.0 L224,-112.0" stroke="#ddd" stroke-width="1" fill="none" />
<path d="M256,-80.0 L256,-112.0" stroke="#ddd" stroke-width="1" fill="none" />
<path d="M288,-80.0 L288,-112.0" stroke="#ddd" stroke-width="1" fill="none" />
<path d="M320,-80.0 L320,-112.0" stroke="#ddd" stroke-width="1" fill="none" />
<path d="M224,-112.0 L224,-144.0" stroke="#ddd" stroke-width="1" fill="none" />
<path d="M256,-112.0 L256,-144.0" stroke="#ddd" stroke-width="1" fill="none" />
<path d="M288,-112.0 L288,-144.0" stroke="#ddd" stroke-width="1" fill="none" />
<path d="M320,-112.0 L320,-144.0" stroke="#ddd" stroke-width="1" fill="none" />
<path d="M192,-80.0 L224,-80.0" stroke="#ddd" stroke-width="1" fill="none" />
<path d="M224,-80.0 L256,-80.0" stroke="#ddd" stroke-width="1" fill="none" />
<path d="M256,-80.0 L288,-80.0" stroke="#ddd" stroke-width="1" fill="none" />
<path d="M288,-80.0 L320,-80.0" stroke="#ddd" stroke-width="1" fill="none" />
<path d="M320,-80.0 L352,-80.0" stroke="#ddd" stroke-width="1" fill="none" />
<path d="M192,-112.0 L224,-112.0" stroke="#ddd" stroke-width="1" fill="none" />
<path d="M224,-112.0 L256,-112.0" stroke="#ddd" stroke-width="1" fill="none" />
<path d="M256,-112.0 L288,-112.0" stroke="#ddd" stroke-width="1" fill="none" />
<path d="M288,-112.0 L320,-112.0" stroke="#ddd" stroke-width="1" fill="none" />
<path d="M320,-112.0 L352,-112.0" stroke="#ddd" stroke-width="1" fill="none" />
<path d="M416,-32.0 L416,-64.0" stroke="#ddd" stroke-width="1" fill="none" />
<path d="M448,-32.0 L448,-64.0" stroke="#ddd" stroke-width="1" fill="none" />
<path d="M480,-32.0 L480,-64.0" stroke="#ddd" stroke-width="1" fill="none" />
<path d="M512,-32.0 L512,-64.0" stroke="#ddd" stroke-width="1" fill="none" />
<path d="M416,-64.0 L416,-96.0" stroke="#ddd" stroke-width="1" fill="none" />
<path d="M448,-64.0 L448,-96.0" stroke="#ddd" stroke-width="1" fill="none" />
<path d="M480,-64.0 L480,-96.0" stroke="#ddd" stroke-width="1" fill="none" />
<path d="M512,-64.0 L512,-96.0" stroke="#ddd" stroke-width="1" fill="none" />
<path d="M416,-96.0 L416,-128.0" stroke="#ddd" stroke-width="1" fill="none" />
<path d="M448,-96.0 L448,-128.0" stroke="#ddd" stroke-width="1" fill="none" />
<path d="M480,-96.0 L480,-128.0" stroke="#ddd" stroke-width="1" fill="none" />
<path d="M512,-96.0 L512,-128.0" stroke="#ddd" stroke-width="1" fill="none" />
<path d="M608,-32.0 L608,-64.0" stroke="#ddd" stroke-width="1" fill="none" />
<path d="M640,-32.0 L640,-64.0" stroke="#ddd" stroke-width="1" fill="none" />
<path d="M608,-64.0 L608,-96.0" stroke="#ddd" stroke-width="1" fill="none" />
<path d="M640,-64.0 L640,-96.0" stroke="#ddd" stroke-width="1" fill="none" />
<path d="M608,-96.0 L608,-128.0" stroke="#ddd" stroke-width="1" fill="none" />
<path d="M640,-96.0 L640,-128.0" stroke="#ddd" stroke-width="1" fill="none" />
<path d="M672,-64.0 L704,-64.0" stroke="#ddd" stroke-width="1" fill="none" />
<path d="M672,-96.0 L704,-96.0" stroke="#ddd" stroke-width="1" fill="none" />
<path d="M736,-64.0 L768,-64.0" stroke="#ddd" stroke-width="1" fill="none" />
<path d="M800,-64.0 L832,-64.0" stroke="#ddd" stroke-width="1" fill="none" />
<path d="M736,-96.0 L768,-96.0" stroke="#ddd" stroke-width="1" fill="none" />
<path d="M800,-96.0 L832,-96.0" stroke="#ddd" stroke-width="1" fill="none" />
<path d="M0,-0.0 L160,-0.0 L160,-160.0 L0,-160.0 Z" stroke="black" stroke-width="2" fill="none" />
<path d="M192,-48.0 L224,-48.0" stroke="black" stroke-width="2" fill="none" />
<path d="M224,-48.0 L256,-48.0" stroke="black" stroke-width="2" fill="none" />
<path d="M256,-48.0 L288,-48.0" stroke="black" stroke-width="2" fill="none" />
<path d="M288,-48.0 L320,-48.0" stroke="black" stroke-width="2" fill="none" />
<path d="M320,-48.0 L352,-48.0" stroke="black" stroke-width="2" fill="none" />
<path d="M192,-16.0 L352,-16.0 L352,-144.0 L192,-144.0 Z" stroke="black" stroke-width="2" fill="none" />
<path d="M384,-64.0 L416,-64.0" stroke="black" stroke-width="2" fill="none" />
<path d="M416,-64.0 L448,-64.0" stroke="black" stroke-width="2" fill="none" />
<path d="M448,-64.0 L480,-64.0" stroke="black" stroke-width="2" fill="none" />
<path d="M480,-64.0 L512,-64.0" stroke="black" stroke-width="2" fill="none" />
<path d="M512,-64.0 L544,-64.0" stroke="black" stroke-width="2" fill="none" />
<path d="M384,-96.0 L416,-96.0" stroke="black" stroke-width="2" fill="none" />
<path d="M416,-96.0 L448,-96.0" stroke="black" stroke-width="2" fill="none" />
<path d="M448,-96.0 L480,-96.0" stroke="black" stroke-width="2" fill="none" />
<path d="M480,-96.0 L512,-96.0" stroke="black" stroke-width="2" fill="none" />
<path d="M512,-96.0 L544,-96.0" stroke="black" stroke-width="2" fill="none" />
<path d="M384,-32.0 L544,-32.0 L544,-128.0 L384,-128.0 Z" stroke="black" stroke-width="2" fill="none" />
<path d="M672,-32.0 L672,-64.0" stroke="black" stroke-width="2" fill="none" />
<path d="M672,-64.0 L672,-96.0" stroke="black" stroke-width="2" fill="none" />
<path d="M672,-96.0 L672,-128.0" stroke="black" stroke-width="2" fill="none" />
<path d="M576,-64.0 L608,-64.0" stroke="black" stroke-width="2" fill="none" />
<path d="M608,-64.0 L640,-64.0" stroke="black" stroke-width="2" fill="none" />
<path d="M640,-64.0 L672,-64.0" stroke="black" stroke-width="2" fill="none" />
<path d="M576,-96.0 L608,-96.0" stroke="black" stroke-width="2" fill="none" />
<path d="M608,-96.0 L640,-96.0" stroke="black" stroke-width="2" fill="none" />
<path d="M640,-96.0 L672,-96.0" stroke="black" stroke-width="2" fill="none" />
<path d="M576,-32.0 L704,-32.0 L704,-128.0 L576,-128.0 Z" stroke="black" stroke-width="2" fill="none" />
<path d="M768,-32.0 L768,-64.0" stroke="black" stroke-width="2" fill="none" />
<path d="M800,-32.0 L800,-64.0" stroke="black" stroke-width="2" fill="none" />
<path d="M768,-64.0 L768,-96.0" stroke="black" stroke-width="2" fill="none" />
<path d="M800,-64.0 L800,-96.0" stroke="black" stroke-width="2" fill="none" />
<path d="M768,-96.0 L768,-128.0" stroke="black" stroke-width="2" fill="none" />
<path d="M800,-96.0 L800,-128.0" stroke="black" stroke-width="2" fill="none" />
<path d="M768,-64.0 L800,-64.0" stroke="black" stroke-width="2" fill="none" />
<path d="M768,-96.0 L800,-96.0" stroke="black" stroke-width="2" fill="none" />
<path d="M736,-32.0 L832,-32.0 L832,-128.0 L736,-128.0 Z" stroke="black" stroke-width="2" fill="none" />
<path d="M80.0,-13.52479138593197 A36.950417228136054,36.950417228136054,0,0,1,80.0,-50.47520861406802" stroke="black" stroke-width="1" fill="none" marker-end="url(#d0)" />
<path d="M272.0,-130.47520861406804 A36.950417228136054,36.950417228136054,0,0,0,272.0,-93.52479138593196" stroke="black" stroke-width="1" fill="none" marker-end="url(#d0)" />
<path d="M530.475208614068,-80.0 A36.950417228136054,36.950417228136054,0,0,0,493.52479138593196,-80.0" stroke="black" stroke-width="1" fill="none" marker-end="url(#d0)" />
<path d="M589.524791385932,-80.0 A36.950417228136054,36.950417228136054,0,0,1,626.475208614068,-80.0" stroke="black" stroke-width="1" fill="none" marker-end="url(#d0)" />
<path d="M0,-32.0 L160,-32.0" stroke="black" stroke-width="1" fill="none" stroke-dasharray="4" />
<path d="M192,-112.0 L352,-112.0" stroke="black" stroke-width="1" fill="none" stroke-dasharray="4" />
<path d="M512,-32.0 L512,-128.0" stroke="black" stroke-width="1" fill="none" stroke-dasharray="4" />
<path d="M608,-32.0 L608,-128.0" stroke="black" stroke-width="1" fill="none" stroke-dasharray="4" />
</svg>