<?xml version="1.0" encoding="UTF-8"?>
<svg xmlns="http://www.w3.org/2000/svg" xmlns:xlink="http://www.w3.org/1999/xlink"
     width="385" height="129" viewBox="0 -129 385 129">
<defs>
<marker markerWidth="4.0" markerHeight="4.0" viewBox="-0.1 -0.5 1.0 1.0" orient="auto" stroke="grey" id="d0">
<path d="M-0.1,0.5 L-0.1,-0.5 L0.9,0 Z" stroke-width="0.1" stroke="grey" fill="white" />
</marker>
<marker markerWidth="4.0" markerHeight="4.0" viewBox="-0.1 -0.5 1.0 1.0" orient="auto" id="d1">
<path d="M-0.1,0.5 L-0.1,-0.5 L0.9,0 Z" stroke-width="0.1" stroke="black" fill="black" />
</marker>
</defs>
<rect x="0" y="-33.0" width="33" height="33" fill="white" />
<rect x="32" y="-33.0" width="33" height="33" fill="white" />
<rect x="64" y="-33.0" width="33" height="33" fill="white" />
<rect x="96" y="-33.0" width="33" height="33" fill="white" />
<rect x="0" y="-65.0" width="33" height="33" fill="white" />
<rect x="32" y="-65.0" width="33" height="33" fill="white" />
<rect x="64" y="-65.0" width="33" height="33" fill="white" />
<rect x="96" y="-65.0" width="33" height="33" fill="white" />
<rect x="0" y="-97.0" width="33" height="33" fill="white" />
<rect x="32" y="-97.0" width="33" height="33" fill="white" />
<rect x="64" y="-97.0" width="33" height="33" fill="white" />
<rect x="96" y="-97.0" width="33" height="33" fill="white" />
<rect x="0" y="-129.0" width="33" height="33" fill="white" />
<rect x="32" y="-129.0" width="33" height="33" fill="white" />
<rect x="64" y="-129.0" width="33" height="33" fill="white" />
<rect x="96" y="-129.0" width="33" height="33" fill="white" />
<rect x="160" y="-33.0" width="33" height="33" fill="white" />
<rect x="192" y="-33.0" width="33" height="33" fill="white" />
<rect x="224" y="-33.0" width="33" height="33" fill="white" />
<rect x="160" y="-65.0" width="33" height="33" fill="white" />
<rect x="192" y="-65.0" width="33" height="33" fill="white" />
<rect x="224" y="-65.0" width="33" height="33" fill="white" />
<rect x="160" y="-97.0" width="33" height="33" fill="white" />
<rect x="192" y="-97.0" width="33" height="33" fill="white" />
<rect x="224" y="-97.0" width="33" height="33" fill="white" />
<rect x="160" y="-129.0" width="33" height="33" fill="white" />
<rect x="192" y="-129.0" width="33" height="33" fill="white" />
<rect x="224" y="-129.0" width="33" height="33" fill="white" />
<rect x="288" y="-49.0" width="33" height="33" fill="white" />
<rect x="320" y="-49.0" width="33" height="33" fill="white" />
<rect x="352" y="-49.0" width="33" height="33" fill="white" />
<rect x="288" y="-81.0" width="33" height="33" fill="white" />
<rect x="320" y="-81.0" width="33" height="33" fill="white" />
<rect x="352" y="-81.0" width="33" height="33" fill="white" />
<rect x="288" y="-113.0" width="33" height="33" fill="#bbb" />
<rect x="320" y="-113.0" width="33" height="33" fill="#bbb" />
<rect x="352" y="-113.0" width="33" height="33" fill="white" />
<path d="M32,-0.0 L32,-32.0" stroke="#ddd" stroke-width="1" fill="none" />
<path d="M64,-0.0 L64,-32.0" stroke="#ddd" stroke-width="1" fill="none" />
<path d="M96,-0.0 L96,-32.0" stroke="#ddd" stroke-width="1" fill="none" />
<path d="M32,-32.0 L32,-64.0" stroke="#ddd" stroke-width="1" fill="none" />
<path d="M64,-32.0 L64,-64.0" stroke="#ddd" stroke-width="1" fill="none" />
<path d="M96,-32.0 L96,-64.0" stroke="#ddd" stroke-width="1" fill="none" />
<path d="M32,-64.0 L32,-96.0" stroke="#ddd" stroke-width="1" fill="none" />
<path d="M64,-64.0 L64,-96.0" stroke="#ddd" stroke-width="1" fill="none" />
<path d="M96,-64.0 L96,-96.0" stroke="#ddd" stroke-width="1" fill="none" />
<path d="M32,-96.0 L32,-128.0" stroke="#ddd" stroke-width="1" fill="none" />
<path d="M64,-96.0 L64,-128.0" stroke="#ddd" stroke-width="1" fill="none" />
<path d="M96,-96.0 L96,-128.0" stroke="#ddd" stroke-width="1" fill="none" />
<path d="M0,-32.0 L32,-32.0" stroke="#ddd" stroke-width="1" fill="none" />
<path d="M32,-32.0 L64,-32.0" stroke="#ddd" stroke-width="1" fill="none" />
<path d="M64,-32.0 L96,-32.0" stroke="#ddd" stroke-width="1" fill="none" />
<path d="M96,-32.0 L128,-32.0" stroke="#ddd" stroke-width="1" fill="none" />
<path d="M0,-64.0 L32,-64.0" stroke="#ddd" stroke-width="1" fill="none" />
<path d="M32,-64.0 L64,-64.0" stroke="#ddd" stroke-width="1" fill="none" />
<path d="M64,-64.0 L96,-64.0" stroke="#ddd" stroke-width="1" fill="none" />
<path d="M96,-64.0 L128,-64.0" stroke="#ddd" stroke-width="1" fill="none" />
<path d="M0,-96.0 L32,-96.0" stroke="#ddd" stroke-width="1" fill="none" />
<path d="M32,-96.0 L64,-96.0" stroke="#ddd" stroke-width="1" fill="none" />
<path d="M64,-96.0 L96,-96.0" stroke="#ddd" stroke-width="1" fill="none" />
<path d="M96,-96.0 L128,-96.0" stroke="#ddd" stroke-width="1" fill="none" />
<path d="M192,-0.0 L192,-32.0" stroke="#ddd" stroke-width="1" fill="none" />
<path d="M224,-0.0 L224,-32.0" stroke="#ddd" stroke-width="1" fill="none" />
<path d="M192,-32.0 L192,-64.0" stroke="#ddd" stroke-width="1" fill="none" />
<path d="M224,-32.0 L224,-64.0" stroke="#ddd" stroke-width="1" fill="none" />
<path d="M192,-64.0 L192,-96.0" stroke="#ddd" stroke-width="1" fill="none" />
<path d="M224,-64.0 L224,-96.0" stroke="#ddd" stroke-width="1" fill="none" />
<path d="M192,-96.0 L192,-128.0" stroke="#ddd" stroke-width="1" fill="none" />
<path d="M224,-96.0 L224,-128.0" stroke="#ddd" stroke-width="1" fill="none" />
<path d="M160,-32.0 L192,-32.0" stroke="#ddd" stroke-width="1" fill="none" />
<path d="M192,-32.0 L224,-32.0" stroke="#ddd" stroke-width="1" fill="none" />
<path d="M224,-32.0 L256,-32.0" stroke="#ddd" stroke-width="1" fill="none" />
<path d="M160,-64.0 L192,-64.0" stroke="#ddd" stroke-width="1" fill="none" />
<path d="M192,-64.0 L224,-64.0" stroke="#ddd" stroke-width="1" fill="none" />
<path d="M224,-64.0 L256,-64.0" stroke="#ddd" stroke-width="1" fill="none" />
<path d="M160,-96.0 L192,-96.0" stroke="#ddd" stroke-width="1" fill="none" />
<path d="M192,-96.0 L224,-96.0" stroke="#ddd" stroke-width="1" fill="none" />
<path d="M224,-96.0 L256,-96.0" stroke="#ddd" stroke-width="1" fill="none" />
<path d="M320,-16.0 L320,-48.0" stroke="#ddd" stroke-width="1" fill="none" />
<path d="M352,-16.0 L352,-48.0" stroke="#ddd" stroke-width="1" fill="none" />
<path d="M320,-48.0 L320,-80.0" stroke="#ddd" stroke-width="1" fill="none" />
<path d="M352,-48.0 L352,-80.0" stroke="#ddd" stroke-width="1" fill="none" />
<path d="M320,-80.0 L320,-112.0" stroke="#ddd" stroke-width="1" fill="none" />
<path d="M288,-48.0 L320,-48.0" stroke="#ddd" stroke-width="1" fill="none" />
<path d="M320,-48.0 L352,-48.0" stroke="#ddd" stroke-width="1" fill="none" />
<path d="M352,-48.0 L384,-48.0" stroke="#ddd" stroke-width="1" fill="none" />
<path d="M114.47520861406804,-64.0 A36.950417228136054,36.950417228136054,0,0,1,77.52479138593196,-64.0" stroke="grey" stroke-width="1" fill="none" marker-end="url(#d0)" />
<path d="M0,-0.0 L128,-0.0 L128,-128.0 L0,-128.0 Z" stroke="black" stroke-width="2" fill="none" />
<path d="M160,-0.0 L256,-0.0 L256,-128.0 L160,-128.0 Z" stroke="black" stroke-width="2" fill="none" />
<path d="M352,-80.0 L352,-112.0" stroke="black" stroke-width="2" fill="none" />
<path d="M288,-80.0 L320,-80.0" stroke="black" stroke-width="2" fill="none" />
<path d="M320,-80.0 L352,-80.0" stroke="black" stroke-width="2" fill="none" />
<path d="M352,-80.0 L384,-80.0" stroke="black" stroke-width="2" fill="none" />
<path d="M288,-16.0 L384,-16.0 L384,-112.0 L288,-112.0 Z" stroke="black" stroke-width="2" fill="none" />
<path d="M208.0,-114.47520861406802 A36.950417228136054,36.950417228136054,0,0,0,208.0,-77.52479138593196" stroke="black" stroke-width="1" fill="none" marker-end="url(#d1)" />
<path d="M96,-0.0 L96,-128.0" stroke="black" stroke-width="1" fill="none" stroke-dasharray="10 2 2 2" />
<path d="M160,-96.0 L256,-96.0" stroke="black" stroke-width="1" fill="none" stroke-dasharray="4" />
</svg>