<?xml version="1.0" encoding="UTF-8"?>
<svg xmlns="http://www.w3.org/2000/svg" xmlns:xlink="http://www.w3.org/1999/xlink"
     width="641" height="161" viewBox="0 -161 641 161">
<defs>
<marker markerWidth="4.0" markerHeight="4.0" viewBox="-0.1 -0.5 1.0 1.0" orient="auto" stroke="grey" id="d0">
<path d="M-0.1,0.5 L-0.1,-0.5 L0.9,0 Z" stroke-width="0.1" stroke="grey" fill="white" />
</marker>
<marker markerWidth="4.0" markerHeight="4.0" viewBox="-0.1 -0.5 1.0 1.0" orient="auto" id="d1">
<path d="M-0.1,0.5 L-0.1,-0.5 L0.9,0 Z" stroke-width="0.1" stroke="black" fill="black" />
</marker>
</defs>
<rect x="0" y="-33.0" width="33" height="33" fill="white" />
<rect x="32" y="-33.0" width="33" height="33" fill="white" />
<rect x="64" y="-33.0" width="33" height="33" fill="white" />
<rect x="96" y="-33.0" width="33" height="33" fill="white" />
<rect x="128" y="-33.0" width="33" height="33" fill="white" />
<rect x="0" y="-65.0" width="33" height="33" fill="white" />
<rect x="32" y="-65.0" width="33" height="33" fill="white" />
<rect x="64" y="-65.0" width="33" height="33" fill="white" />
<rect x="96" y="-65.0" width="33" height="33" fill="white" />
<rect x="128" y="-65.0" width="33" height="33" fill="white" />
<rect x="0" y="-97.0" width="33" height="33" fill="white" />
<rect x="32" y="-97.0" width="33" height="33" fill="white" />
<rect x="64" y="-97.0" width="33" height="33" fill="white" />
<rect x="96" y="-97.0" width="33" height="33" fill="white" />
<rect x="128" y="-97.0" width="33" height="33" fill="white" />
<rect x="0" y="-129.0" width="33" height="33" fill="white" />
<rect x="32" y="-129.0" width="33" height="33" fill="white" />
<rect x="64" y="-129.0" width="33" height="33" fill="white" />
<rect x="96" y="-129.0" width="33" height="33" fill="white" />
<rect x="128" y="-129.0" width="33" height="33" fill="white" />
<rect x="0" y="-161.0" width="33" height="33" fill="white" />
<rect x="32" y="-161.0" width="33" height="33" fill="white" />
<rect x="64" y="-161.0" width="33" height="33" fill="white" />
<rect x="96" y="-161.0" width="33" height="33" fill="white" />
<rect x="128" y="-161.0" width="33" height="33" fill="white" />
<rect x="192" y="-65.0" width="33" height="33" fill="white" />
<rect x="224" y="-65.0" width="33" height="33" fill="white" />
<rect x="256" y="-65.0" width="33" height="33" fill="white" />
<rect x="288" y="-65.0" width="33" height="33" fill="white" />
<rect x="320" y="-65.0" width="33" height="33" fill="white" />
<rect x="192" y="-97.0" width="33" height="33" fill="white" />
<rect x="224" y="-97.0" width="33" height="33" fill="white" />
<rect x="256" y="-97.0" width="33" height="33" fill="white" />
<rect x="288" y="-97.0" width="33" height="33" fill="white" />
<rect x="320" y="-97.0" width="33" height="33" fill="white" />
<rect x="192" y="-129.0" width="33" height="33" fill="white" />
<rect x="224" y="-129.0" width="33" height="33" fill="white" />
<rect x="256" y="-129.0" width="33" height="33" fill="white" />
<rect x="288" y="-129.0" width="33" height="33" fill="white" />
<rect x="320" y="-129.0" width="33" height="33" fill="white" />
<rect x="384" y="-65.0" width="33" height="33" fill="white" />
<rect x="416" y="-65.0" width="33" height="33" fill="white" />
<rect x="448" y="-65.0" width="33" height="33" fill="white" />
<rect x="480" y="-65.0" width="33" height="33" fill="white" />
<rect x="384" y="-97.0" width="33" height="33" fill="white" />
<rect x="416" y="-97.0" width="33" height="33" fill="white" />
<rect x="448" y="-97.0" width="33" height="33" fill="white" />
<rect x="480" y="-97.0" width="33" height="33" fill="white" />
<rect x="384" y="-129.0" width="33" height="33" fill="white" />
<rect x="416" y="-129.0" width="33" height="33" fill="white" />
<rect x="448" y="-129.0" width="33" height="33" fill="white" />
<rect x="480" y="-129.0" width="33" height="33" fill="#bbb" />
<rect x="544" y="-65.0" width="33" height="33" fill="white" />
<rect x="576" y="-65.0" width="33" height="33" fill="white" />
<rect x="608" y="-65.0" width="33" height="33" fill="white" />
<rect x="544" y="-97.0" width="33" height="33" fill="white" />
<rect x="576" y="-97.0" width="33" height="33" fill="white" />
<rect x="608" y="-97.0" width="33" height="33" fill="white" />
<rect x="544" y="-129.0" width="33" height="33" fill="#bbb" />
<rect x="576" y="-129.0" width="33" height="33" fill="white" />
<rect x="608" y="-129.0" width="33" height="33" fill="#bbb" />
<path d="M32,-0.0 L32,-32.0" stroke="#ddd" stroke-width="1" fill="none" />
<path d="M64,-0.0 L64,-32.0" stroke="#ddd" stroke-width="1" fill="none" />
<path d="M96,-0.0 L96,-32.0" stroke="#ddd" stroke-width="1" fill="none" />
<path d="M128,-0.0 L128,-32.0" stroke="#ddd" stroke-width="1" fill="none" />
<path d="M32,-32.0 L32,-64.0" stroke="#ddd" stroke-width="1" fill="none" />
<path d="M64,-32.0 L64,-64.0" stroke="#ddd" stroke-width="1" fill="none" />
<path d="M96,-32.0 L96,-64.0" stroke="#ddd" stroke-width="1" fill="none" />
<path d="M128,-32.0 L128,-64.0" stroke="#ddd" stroke-width="1" fill="none" />
<path d="M32,-64.0 L32,-96.0" stroke="#ddd" stroke-width="1" fill="none" />
<path d="M64,-64.0 L64,-96.0" stroke="#ddd" stroke-width="1" fill="none" />
<path d="M96,-64.0 L96,-96.0" stroke="#ddd" stroke-width="1" fill="none" />
<path d="M128,-64.0 L128,-96.0" stroke="#ddd" stroke-width="1" fill="none" />
<path d="M32,-96.0 L32,-128.0" stroke="#ddd" stroke-width="1" fill="none" />
<path d="M64,-96.0 L64,-128.0" stroke="#ddd" stroke-width="1" fill="none" />
<path d="M96,-96.0 L96,-128.0" stroke="#ddd" stroke-width="1" fill="none" />
<path d="M128,-96.0 L128,-128.0" stroke="#ddd" stroke-width="1" fill="none" />
<path d="M32,-128.0 L32,-160.0" stroke="#ddd" stroke-width="1" fill="none" />
<path d="M64,-128.0 L64,-160.0" stroke="#ddd" stroke-width="1" fill="none" />
<path d="M96,-128.0 L96,-160.0" stroke="#ddd" stroke-width="1" fill="none" />
<path d="M128,-128.0 L128,-160.0" stroke="#ddd" stroke-width="1" fill="none" />
<path d="M0,-32.0 L32,-32.0" stroke="#ddd" stroke-width="1" fill="none" />
<path d="M32,-32.0 L64,-32.0" stroke="#ddd" stroke-width="1" fill="none" />
<path d="M64,-32.0 L96,-32.0" stroke="#ddd" stroke-width="1" fill="none" />
<path d="M96,-32.0 L128,-32.0" stroke="#ddd" stroke-width="1" fill="none" />
<path d="M128,-32.0 L160,-32.0" stroke="#ddd" stroke-width="1" fill="none" />
<path d="M0,-64.0 L32,-64.0" stroke="#ddd" stroke-width="1" fill="none" />
<path d="M32,-64.0 L64,-64.0" stroke="#ddd" stroke-width="1" fill="none" />
<path d="M64,-64.0 L96,-64.0" stroke="#ddd" stroke-width="1" fill="none" />
<path d="M96,-64.0 L128,-64.0" stroke="#ddd" stroke-width="1" fill="none" />
<path d="M128,-64.0 L160,-64.0" stroke="#ddd" stroke-width="1" fill="none" />
<path d="M0,-96.0 L32,-96.0" stroke="#ddd" stroke-width="1" fill="none" />
<path d="M32,-96.0 L64,-96.0" stroke="#ddd" stroke-width="1" fill="none" />
<path d="M64,-96.0 L96,-96.0" stroke="#ddd" stroke-width="1" fill="none" />
<path d="M96,-96.0 L128,-96.0" stroke="#ddd" stroke-width="1" fill="none" />
<path d="M128,-96.0 L160,-96.0" stroke="#ddd" stroke-width="1" fill="none" />
<path d="M0,-128.0 L32,-128.0" stroke="#ddd" stroke-width="1" fill="none" />
<path d="M32,-128.0 L64,-128.0" stroke="#ddd" stroke-width="1" fill="none" />
<path d="M64,-128.0 L96,-128.0" stroke="#ddd" stroke-width="1" fill="none" />
<path d="M96,-128.0 L128,-128.0" stroke="#ddd" stroke-width="1" fill="none" />
<path d="M128,-128.0 L160,-128.0" stroke="#ddd" stroke-width="1" fill="none" />
<path d="M224,-32.0 L224,-64.0" stroke="#ddd" stroke-width="1" fill="none" />
<path d="M256,-32.0 L256,-64.0" stroke="#ddd" stroke-width="1" fill="none" />
<path d="M288,-32.0 L288,-64.0" stroke="#ddd" stroke-width="1" fill="none" />
<path d="M320,-32.0 L320,-64.0" stroke="#ddd" stroke-width="1" fill="none" />
<path d="M224,-64.0 L224,-96.0" stroke="#ddd" stroke-width="1" fill="none" />
<path d="M256,-64.0 L256,-96.0" stroke="#ddd" stroke-width="1" fill="none" />
<path d="M288,-64.0 L288,-96.0" stroke="#ddd" stroke-width="1" fill="none" />
<path d="M320,-64.0 L320,-96.0" stroke="#ddd" stroke-width="1" fill="none" />
<path d="M224,-96.0 L224,-128.0" stroke="#ddd" stroke-width="1" fill="none" />
<path d="M256,-96.0 L256,-128.0" stroke="#ddd" stroke-width="1" fill="none" />
<path d="M288,-96.0 L288,-128.0" stroke="#ddd" stroke-width="1" fill="none" />
<path d="M320,-96.0 L320,-128.0" stroke="#ddd" stroke-width="1" fill="none" />
<path d="M192,-64.0 L224,-64.0" stroke="#ddd" stroke-width="1" fill="none" />
<path d="M224,-64.0 L256,-64.0" stroke="#ddd" stroke-width="1" fill="none" />
<path d="M256,-64.0 L288,-64.0" stroke="#ddd" stroke-width="1" fill="none" />
<path d="M288,-64.0 L320,-64.0" stroke="#ddd" stroke-width="1" fill="none" />
<path d="M320,-64.0 L352,-64.0" stroke="#ddd" stroke-width="1" fill="none" />
<path d="M192,-96.0 L224,-96.0" stroke="#ddd" stroke-width="1" fill="none" />
<path d="M224,-96.0 L256,-96.0" stroke="#ddd" stroke-width="1" fill="none" />
<path d="M256,-96.0 L288,-96.0" stroke="#ddd" stroke-width="1" fill="none" />
<path d="M288,-96.0 L320,-96.0" stroke="#ddd" stroke-width="1" fill="none" />
<path d="M320,-96.0 L352,-96.0" stroke="#ddd" stroke-width="1" fill="none" />
<path d="M416,-32.0 L416,-64.0" stroke="#ddd" stroke-width="1" fill="none" />
<path d="M448,-32.0 L448,-64.0" stroke="#ddd" stroke-width="1" fill="none" />
<path d="M416,-64.0 L416,-96.0" stroke="#ddd" stroke-width="1" fill="none" />
<path d="M448,-64.0 L448,-96.0" stroke="#ddd" stroke-width="1" fill="none" />
<path d="M416,-96.0 L416,-128.0" stroke="#ddd" stroke-width="1" fill="none" />
<path d="M448,-96.0 L448,-128.0" stroke="#ddd" stroke-width="1" fill="none" />
<path d="M384,-64.0 L416,-64.0" stroke="#ddd" stroke-width="1" fill="none" />
<path d="M416,-64.0 L448,-64.0" stroke="#ddd" stroke-width="1" fill="none" />
<path d="M448,-64.0 L480,-64.0" stroke="#ddd" stroke-width="1" fill="none" />
<path d="M480,-64.0 L512,-64.0" stroke="#ddd" stroke-width="1" fill="none" />
<path d="M384,-96.0 L416,-96.0" stroke="#ddd" stroke-width="1" fill="none" />
<path d="M416,-96.0 L448,-96.0" stroke="#ddd" stroke-width="1" fill="none" />
<path d="M448,-96.0 L480,-96.0" stroke="#ddd" stroke-width="1" fill="none" />
<path d="M544,-64.0 L576,-64.0" stroke="#ddd" stroke-width="1" fill="none" />
<path d="M576,-64.0 L608,-64.0" stroke="#ddd" stroke-width="1" fill="none" />
<path d="M608,-64.0 L640,-64.0" stroke="#ddd" stroke-width="1" fill="none" />
<path d="M576,-96.0 L608,-96.0" stroke="#ddd" stroke-width="1" fill="none" />
<path d="M80.0,-45.524791385931955 A36.950417228136054,36.950417228136054,0,0,0,80.0,-82.47520861406802" stroke="grey" stroke-width="1" fill="none" marker-end="url(#d0)" />
<path d="M0,-0.0 L160,-0.0 L160,-160.0 L0,-160.0 Z" stroke="black" stroke-width="2" fill="none" />
<path d="M192,-32.0 L352,-32.0 L352,-128.0 L192,-128.0 Z" stroke="black" stroke-width="2" fill="none" />
<path d="M480,-32.0 L480,-64.0" stroke="black" stroke-width="2" fill="none" />
<path d="M480,-64.0 L480,-96.0" stroke="black" stroke-width="2" fill="none" />
<path d="M480,-96.0 L480,-128.0" stroke="black" stroke-width="2" fill="none" />
<path d="M480,-96.0 L512,-96.0" stroke="black" stroke-width="2" fill="none" />
<path d="M384,-32.0 L512,-32.0 L512,-128.0 L384,-128.0 Z" stroke="black" stroke-width="2" fill="none" />
<path d="M576,-32.0 L576,-64.0" stroke="black" stroke-width="2" fill="none" />
<path d="M608,-32.0 L608,-64.0" stroke="black" stroke-width="2" fill="none" />
<path d="M576,-64.0 L576,-96.0" stroke="black" stroke-width="2" fill="none" />
<path d="M608,-64.0 L608,-96.0" stroke="black" stroke-width="2" fill="none" />
<path d="M576,-96.0 L576,-128.0" stroke="black" stroke-width="2" fill="none" />
<path d="M608,-96.0 L608,-128.0" stroke="black" stroke-width="2" fill="none" />
<path d="M544,-96.0 L576,-96.0" stroke="black" stroke-width="2" fill="none" />
<path d="M608,-96.0 L640,-96.0" stroke="black" stroke-width="2" fill="none" />
<path d="M544,-32.0 L640,-32.0 L640,-128.0 L544,-128.0 Z" stroke="black" stroke-width="2" fill="none" />
<path d="M338.47520861406804,-80.0 A36.950417228136054,36.950417228136054,0,0,0,301.52479138593196,-80.0" stroke="black" stroke-width="1" fill="none" marker-end="url(#d1)" />
<path d="M397.52479138593196,-80.0 A36.950417228136054,36.950417228136054,0,0,1,434.47520861406804,-80.0" stroke="black" stroke-width="1" fill="none" marker-end="url(#d1)" />
<path d="M0,-64.0 L160,-64.0" stroke="black" stroke-width="1" fill="none" stroke-dasharray="10 2 2 2" />
<path d="M320,-32.0 L320,-128.0" stroke="black" stroke-width="1" fill="none" stroke-dasharray="4" />
<path d="M416,-32.0 L416,-128.0" stroke="black" stroke-width="1" fill="none" stroke-dasharray="4" />
</svg>