<?xml version="1.0" encoding="UTF-8"?>
<svg xmlns="http://www.w3.org/2000/svg" xmlns:xlink="http://www.w3.org/1999/xlink"
     width="1217" height="193" viewBox="0 -193 1217 193">
<defs>
<marker markerWidth="4.0" markerHeight="4.0" viewBox="-0.1 -0.5 1.0 1.0" orient="auto" stroke="grey" id="d0">
<path d="M-0.1,0.5 L-0.1,-0.5 L0.9,0 Z" stroke-width="0.1" stroke="grey" fill="white" />
</marker>
<marker markerWidth="4.0" markerHeight="4.0" viewBox="-0.1 -0.5 1.0 1.0" orient="auto" id="d1">
<path d="M-0.1,0.5 L-0.1,-0.5 L0.9,0 Z" stroke-width="0.1" stroke="black" fill="black" />
</marker>
</defs>
<rect x="0" y="-33.0" width="33" height="33" fill="white" />
<rect x="32" y="-33.0" width="33" height="33" fill="white" />
<rect x="64" y="-33.0" width="33" height="33" fill="white" />
<rect x="96" y="-33.0" width="33" height="33" fill="white" />
<rect x="128" y="-33.0" width="33" height="33" fill="white" />
<rect x="160" y="-33.0" width="33" height="33" fill="white" />
<rect x="0" y="-65.0" width="33" height="33" fill="white" />
<rect x="32" y="-65.0" width="33" height="33" fill="white" />
<rect x="64" y="-65.0" width="33" height="33" fill="white" />
<rect x="96" y="-65.0" width="33" height="33" fill="white" />
<rect x="128" y="-65.0" width="33" height="33" fill="white" />
<rect x="160" y="-65.0" width="33" height="33" fill="white" />
<rect x="0" y="-97.0" width="33" height="33" fill="white" />
<rect x="32" y="-97.0" width="33" height="33" fill="white" />
<rect x="64" y="-97.0" width="33" height="33" fill="white" />
<rect x="96" y="-97.0" width="33" height="33" fill="white" />
<rect x="128" y="-97.0" width="33" height="33" fill="white" />
<rect x="160" y="-97.0" width="33" height="33" fill="white" />
<rect x="0" y="-129.0" width="33" height="33" fill="white" />
<rect x="32" y="-129.0" width="33" height="33" fill="white" />
<rect x="64" y="-129.0" width="33" height="33" fill="white" />
<rect x="96" y="-129.0" width="33" height="33" fill="white" />
<rect x="128" y="-129.0" width="33" height="33" fill="white" />
<rect x="160" y="-129.0" width="33" height="33" fill="white" />
<rect x="0" y="-161.0" width="33" height="33" fill="white" />
<rect x="32" y="-161.0" width="33" height="33" fill="white" />
<rect x="64" y="-161.0" width="33" height="33" fill="white" />
<rect x="96" y="-161.0" width="33" height="33" fill="white" />
<rect x="128" y="-161.0" width="33" height="33" fill="white" />
<rect x="160" y="-161.0" width="33" height="33" fill="white" />
<rect x="0" y="-193.0" width="33" height="33" fill="white" />
<rect x="32" y="-193.0" width="33" height="33" fill="white" />
<rect x="64" y="-193.0" width="33" height="33" fill="white" />
<rect x="96" y="-193.0" width="33" height="33" fill="white" />
<rect x="128" y="-193.0" width="33" height="33" fill="white" />
<rect x="160" y="-193.0" width="33" height="33" fill="white" />
<rect x="224" y="-49.0" width="33" height="33" fill="white" />
<rect x="256" y="-49.0" width="33" height="33" fill="white" />
<rect x="288" y="-49.0" width="33" height="33" fill="white" />
<rect x="320" y="-49.0" width="33" height="33" fill="white" />
<rect x="352" y="-49.0" width="33" height="33" fill="white" />
<rect x="384" y="-49.0" width="33" height="33" fill="white" />
<rect x="224" y="-81.0" width="33" height="33" fill="white" />
<rect x="256" y="-81.0" width="33" height="33" fill="white" />
<rect x="288" y="-81.0" width="33" height="33" fill="white" />
<rect x="320" y="-81.0" width="33" height="33" fill="white" />
<rect x="352" y="-81.0" width="33" height="33" fill="white" />
<rect x="384" y="-81.0" width="33" height="33" fill="white" />
<rect x="224" y="-113.0" width="33" height="33" fill="white" />
<rect x="256" y="-113.0" width="33" height="33" fill="white" />
<rect x="288" y="-113.0" width="33" height="33" fill="white" />
<rect x="320" y="-113.0" width="33" height="33" fill="white" />
<rect x="352" y="-113.0" width="33" height="33" fill="white" />
<rect x="384" y="-113.0" width="33" height="33" fill="white" />
<rect x="224" y="-145.0" width="33" height="33" fill="white" />
<rect x="256" y="-145.0" width="33" height="33" fill="white" />
<rect x="288" y="-145.0" width="33" height="33" fill="white" />
<rect x="320" y="-145.0" width="33" height="33" fill="white" />
<rect x="352" y="-145.0" width="33" height="33" fill="white" />
<rect x="384" y="-145.0" width="33" height="33" fill="white" />
<rect x="224" y="-177.0" width="33" height="33" fill="white" />
<rect x="256" y="-177.0" width="33" height="33" fill="white" />
<rect x="288" y="-177.0" width="33" height="33" fill="white" />
<rect x="320" y="-177.0" width="33" height="33" fill="white" />
<rect x="352" y="-177.0" width="33" height="33" fill="white" />
<rect x="384" y="-177.0" width="33" height="33" fill="white" />
<rect x="448" y="-49.0" width="33" height="33" fill="white" />
<rect x="480" y="-49.0" width="33" height="33" fill="white" />
<rect x="512" y="-49.0" width="33" height="33" fill="white" />
<rect x="544" y="-49.0" width="33" height="33" fill="white" />
<rect x="576" y="-49.0" width="33" height="33" fill="white" />
<rect x="448" y="-81.0" width="33" height="33" fill="#bbb" />
<rect x="480" y="-81.0" width="33" height="33" fill="white" />
<rect x="512" y="-81.0" width="33" height="33" fill="white" />
<rect x="544" y="-81.0" width="33" height="33" fill="white" />
<rect x="576" y="-81.0" width="33" height="33" fill="white" />
<rect x="448" y="-113.0" width="33" height="33" fill="#bbb" />
<rect x="480" y="-113.0" width="33" height="33" fill="white" />
<rect x="512" y="-113.0" width="33" height="33" fill="white" />
<rect x="544" y="-113.0" width="33" height="33" fill="white" />
<rect x="576" y="-113.0" width="33" height="33" fill="white" />
<rect x="448" y="-145.0" width="33" height="33" fill="#bbb" />
<rect x="480" y="-145.0" width="33" height="33" fill="white" />
<rect x="512" y="-145.0" width="33" height="33" fill="white" />
<rect x="544" y="-145.0" width="33" height="33" fill="white" />
<rect x="576" y="-145.0" width="33" height="33" fill="white" />
<rect x="448" y="-177.0" width="33" height="33" fill="#bbb" />
<rect x="480" y="-177.0" width="33" height="33" fill="white" />
<rect x="512" y="-177.0" width="33" height="33" fill="white" />
<rect x="544" y="-177.0" width="33" height="33" fill="white" />
<rect x="576" y="-177.0" width="33" height="33" fill="white" />
<rect x="640" y="-65.0" width="33" height="33" fill="white" />
<rect x="672" y="-65.0" width="33" height="33" fill="white" />
<rect x="704" y="-65.0" width="33" height="33" fill="white" />
<rect x="736" y="-65.0" width="33" height="33" fill="white" />
<rect x="768" y="-65.0" width="33" height="33" fill="white" />
<rect x="640" y="-97.0" width="33" height="33" fill="#bbb" />
<rect x="672" y="-97.0" width="33" height="33" fill="white" />
<rect x="704" y="-97.0" width="33" height="33" fill="white" />
<rect x="736" y="-97.0" width="33" height="33" fill="white" />
<rect x="768" y="-97.0" width="33" height="33" fill="white" />
<rect x="640" y="-129.0" width="33" height="33" fill="#bbb" />
<rect x="672" y="-129.0" width="33" height="33" fill="white" />
<rect x="704" y="-129.0" width="33" height="33" fill="white" />
<rect x="736" y="-129.0" width="33" height="33" fill="white" />
<rect x="768" y="-129.0" width="33" height="33" fill="white" />
<rect x="640" y="-161.0" width="33" height="33" fill="#bbb" />
<rect x="672" y="-161.0" width="33" height="33" fill="white" />
<rect x="704" y="-161.0" width="33" height="33" fill="white" />
<rect x="736" y="-161.0" width="33" height="33" fill="white" />
<rect x="768" y="-161.0" width="33" height="33" fill="white" />
<rect x="832" y="-65.0" width="33" height="33" fill="white" />
<rect x="864" y="-65.0" width="33" height="33" fill="white" />
<rect x="896" y="-65.0" width="33" height="33" fill="white" />
<rect x="928" y="-65.0" width="33" height="33" fill="white" />
<rect x="832" y="-97.0" width="33" height="33" fill="#bbb" />
<rect x="864" y="-97.0" width="33" height="33" fill="white" />
<rect x="896" y="-97.0" width="33" height="33" fill="white" />
<rect x="928" y="-97.0" width="33" height="33" fill="#bbb" />
<rect x="832" y="-129.0" width="33" height="33" fill="#bbb" />
<rect x="864" y="-129.0" width="33" height="33" fill="white" />
<rect x="896" y="-129.0" width="33" height="33" fill="white" />
<rect x="928" y="-129.0" width="33" height="33" fill="#bbb" />
<rect x="832" y="-161.0" width="33" height="33" fill="#bbb" />
<rect x="864" y="-161.0" width="33" height="33" fill="white" />
<rect x="896" y="-161.0" width="33" height="33" fill="white" />
<rect x="928" y="-161.0" width="33" height="33" fill="white" />
<rect x="992" y="-65.0" width="33" height="33" fill="white" />
<rect x="1024" y="-65.0" width="33" height="33" fill="white" />
<rect x="1056" y="-65.0" width="33" height="33" fill="white" />
<rect x="992" y="-97.0" width="33" height="33" fill="white" />
<rect x="1024" y="-97.0" width="33" height="33" fill="white" />
<rect x="1056" y="-97.0" width="33" height="33" fill="#bbb" />
<rect x="992" y="-129.0" width="33" height="33" fill="white" />
<rect x="1024" y="-129.0" width="33" height="33" fill="white" />
<rect x="1056" y="-129.0" width="33" height="33" fill="#bbb" />
<rect x="992" y="-161.0" width="33" height="33" fill="white" />
<rect x="1024" y="-161.0" width="33" height="33" fill="white" />
<rect x="1056" y="-161.0" width="33" height="33" fill="white" />
<rect x="1120" y="-81.0" width="33" height="33" fill="white" />
<rect x="1152" y="-81.0" width="33" height="33" fill="white" />
<rect x="1184" y="-81.0" width="33" height="33" fill="white" />
<rect x="1120" y="-113.0" width="33" height="33" fill="white" />
<rect x="1152" y="-113.0" width="33" height="33" fill="white" />
<rect x="1184" y="-113.0" width="33" height="33" fill="#bbb" />
<rect x="1120" y="-145.0" width="33" height="33" fill="#bbb" />
<rect x="1152" y="-145.0" width="33" height="33" fill="white" />
<rect x="1184" y="-145.0" width="33" height="33" fill="white" />
<path d="M32,-0.0 L32,-32.0" stroke="#ddd" stroke-width="1" fill="none" />
<path d="M64,-0.0 L64,-32.0" stroke="#ddd" stroke-width="1" fill="none" />
<path d="M96,-0.0 L96,-32.0" stroke="#ddd" stroke-width="1" fill="none" />
<path d="M128,-0.0 L128,-32.0" stroke="#ddd" stroke-width="1" fill="none" />
<path d="M160,-0.0 L160,-32.0" stroke="#ddd" stroke-width="1" fill="none" />
<path d="M32,-32.0 L32,-64.0" stroke="#ddd" stroke-width="1" fill="none" />
<path d="M64,-32.0 L64,-64.0" stroke="#ddd" stroke-width="1" fill="none" />
<path d="M96,-32.0 L96,-64.0" stroke="#ddd" stroke-width="1" fill="none" />
<path d="M128,-32.0 L128,-64.0" stroke="#ddd" stroke-width="1" fill="none" />
<path d="M160,-32.0 L160,-64.0" stroke="#ddd" stroke-width="1" fill="none" />
<path d="M32,-64.0 L32,-96.0" stroke="#ddd" stroke-width="1" fill="none" />
<path d="M64,-64.0 L64,-96.0" stroke="#ddd" stroke-width="1" fill="none" />
<path d="M96,-64.0 L96,-96.0" stroke="#ddd" stroke-width="1" fill="none" />
<path d="M128,-64.0 L128,-96.0" stroke="#ddd" stroke-width="1" fill="none" />
<path d="M160,-64.0 L160,-96.0" stroke="#ddd" stroke-width="1" fill="none" />
<path d="M32,-96.0 L32,-128.0" stroke="#ddd" stroke-width="1" fill="none" />
<path d="M64,-96.0 L64,-128.0" stroke="#ddd" stroke-width="1" fill="none" />
<path d="M96,-96.0 L96,-128.0" stroke="#ddd" stroke-width="1" fill="none" />
<path d="M128,-96.0 L128,-128.0" stroke="#ddd" stroke-width="1" fill="none" />
<path d="M160,-96.0 L160,-128.0" stroke="#ddd" stroke-width="1" fill="none" />
<path d="M32,-128.0 L32,-160.0" stroke="#ddd" stroke-width="1" fill="none" />
<path d="M64,-128.0 L64,-160.0" stroke="#ddd" stroke-width="1" fill="none" />
<path d="M96,-128.0 L96,-160.0" stroke="#ddd" stroke-width="1" fill="none" />
<path d="M128,-128.0 L128,-160.0" stroke="#ddd" stroke-width="1" fill="none" />
<path d="M160,-128.0 L160,-160.0" stroke="#ddd" stroke-width="1" fill="none" />
<path d="M32,-160.0 L32,-192.0" stroke="#ddd" stroke-width="1" fill="none" />
<path d="M64,-160.0 L64,-192.0" stroke="#ddd" stroke-width="1" fill="none" />
<path d="M96,-160.0 L96,-192.0" stroke="#ddd" stroke-width="1" fill="none" />
<path d="M128,-160.0 L128,-192.0" stroke="#ddd" stroke-width="1" fill="none" />
<path d="M160,-160.0 L160,-192.0" stroke="#ddd" stroke-width="1" fill="none" />
<path d="M0,-32.0 L32,-32.0" stroke="#ddd" stroke-width="1" fill="none" />
<path d="M32,-32.0 L64,-32.0" stroke="#ddd" stroke-width="1" fill="none" />
<path d="M64,-32.0 L96,-32.0" stroke="#ddd" stroke-width="1" fill="none" />
<path d="M96,-32.0 L128,-32.0" stroke="#ddd" stroke-width="1" fill="none" />
<path d="M128,-32.0 L160,-32.0" stroke="#ddd" stroke-width="1" fill="none" />
<path d="M160,-32.0 L192,-32.0" stroke="#ddd" stroke-width="1" fill="none" />
<path d="M0,-64.0 L32,-64.0" stroke="#ddd" stroke-width="1" fill="none" />
<path d="M32,-64.0 L64,-64.0" stroke="#ddd" stroke-width="1" fill="none" />
<path d="M64,-64.0 L96,-64.0" stroke="#ddd" stroke-width="1" fill="none" />
<path d="M96,-64.0 L128,-64.0" stroke="#ddd" stroke-width="1" fill="none" />
<path d="M128,-64.0 L160,-64.0" stroke="#ddd" stroke-width="1" fill="none" />
<path d="M160,-64.0 L192,-64.0" stroke="#ddd" stroke-width="1" fill="none" />
<path d="M0,-96.0 L32,-96.0" stroke="#ddd" stroke-width="1" fill="none" />
<path d="M32,-96.0 L64,-96.0" stroke="#ddd" stroke-width="1" fill="none" />
<path d="M64,-96.0 L96,-96.0" stroke="#ddd" stroke-width="1" fill="none" />
<path d="M96,-96.0 L128,-96.0" stroke="#ddd" stroke-width="1" fill="none" />
<path d="M128,-96.0 L160,-96.0" stroke="#ddd" stroke-width="1" fill="none" />
<path d="M160,-96.0 L192,-96.0" stroke="#ddd" stroke-width="1" fill="none" />
<path d="M0,-128.0 L32,-128.0" stroke="#ddd" stroke-width="1" fill="none" />
<path d="M32,-128.0 L64,-128.0" stroke="#ddd" stroke-width="1" fill="none" />
<path d="M64,-128.0 L96,-128.0" stroke="#ddd" stroke-width="1" fill="none" />
<path d="M96,-128.0 L128,-128.0" stroke="#ddd" stroke-width="1" fill="none" />
<path d="M128,-128.0 L160,-128.0" stroke="#ddd" stroke-width="1" fill="none" />
<path d="M160,-128.0 L192,-128.0" stroke="#ddd" stroke-width="1" fill="none" />
<path d="M0,-160.0 L32,-160.0" stroke="#ddd" stroke-width="1" fill="none" />
<path d="M32,-160.0 L64,-160.0" stroke="#ddd" stroke-width="1" fill="none" />
<path d="M64,-160.0 L96,-160.0" stroke="#ddd" stroke-width="1" fill="none" />
<path d="M96,-160.0 L128,-160.0" stroke="#ddd" stroke-width="1" fill="none" />
<path d="M128,-160.0 L160,-160.0" stroke="#ddd" stroke-width="1" fill="none" />
<path d="M160,-160.0 L192,-160.0" stroke="#ddd" stroke-width="1" fill="none" />
<path d="M256,-16.0 L256,-48.0" stroke="#ddd" stroke-width="1" fill="none" />
<path d="M288,-16.0 L288,-48.0" stroke="#ddd" stroke-width="1" fill="none" />
<path d="M320,-16.0 L320,-48.0" stroke="#ddd" stroke-width="1" fill="none" />
<path d="M352,-16.0 L352,-48.0" stroke="#ddd" stroke-width="1" fill="none" />
<path d="M384,-16.0 L384,-48.0" stroke="#ddd" stroke-width="1" fill="none" />
<path d="M256,-48.0 L256,-80.0" stroke="#ddd" stroke-width="1" fill="none" />
<path d="M288,-48.0 L288,-80.0" stroke="#ddd" stroke-width="1" fill="none" />
<path d="M320,-48.0 L320,-80.0" stroke="#ddd" stroke-width="1" fill="none" />
<path d="M352,-48.0 L352,-80.0" stroke="#ddd" stroke-width="1" fill="none" />
<path d="M384,-48.0 L384,-80.0" stroke="#ddd" stroke-width="1" fill="none" />
<path d="M256,-80.0 L256,-112.0" stroke="#ddd" stroke-width="1" fill="none" />
<path d="M288,-80.0 L288,-112.0" stroke="#ddd" stroke-width="1" fill="none" />
<path d="M320,-80.0 L320,-112.0" stroke="#ddd" stroke-width="1" fill="none" />
<path d="M352,-80.0 L352,-112.0" stroke="#ddd" stroke-width="1" fill="none" />
<path d="M384,-80.0 L384,-112.0" stroke="#ddd" stroke-width="1" fill="none" />
<path d="M256,-112.0 L256,-144.0" stroke="#ddd" stroke-width="1" fill="none" />
<path d="M288,-112.0 L288,-144.0" stroke="#ddd" stroke-width="1" fill="none" />
<path d="M320,-112.0 L320,-144.0" stroke="#ddd" stroke-width="1" fill="none" />
<path d="M352,-112.0 L352,-144.0" stroke="#ddd" stroke-width="1" fill="none" />
<path d="M384,-112.0 L384,-144.0" stroke="#ddd" stroke-width="1" fill="none" />
<path d="M256,-144.0 L256,-176.0" stroke="#ddd" stroke-width="1" fill="none" />
<path d="M288,-144.0 L288,-176.0" stroke="#ddd" stroke-width="1" fill="none" />
<path d="M320,-144.0 L320,-176.0" stroke="#ddd" stroke-width="1" fill="none" />
<path d="M352,-144.0 L352,-176.0" stroke="#ddd" stroke-width="1" fill="none" />
<path d="M384,-144.0 L384,-176.0" stroke="#ddd" stroke-width="1" fill="none" />
<path d="M224,-48.0 L256,-48.0" stroke="#ddd" stroke-width="1" fill="none" />
<path d="M256,-48.0 L288,-48.0" stroke="#ddd" stroke-width="1" fill="none" />
<path d="M288,-48.0 L320,-48.0" stroke="#ddd" stroke-width="1" fill="none" />
<path d="M320,-48.0 L352,-48.0" stroke="#ddd" stroke-width="1" fill="none" />
<path d="M352,-48.0 L384,-48.0" stroke="#ddd" stroke-width="1" fill="none" />
<path d="M384,-48.0 L416,-48.0" stroke="#ddd" stroke-width="1" fill="none" />
<path d="M224,-80.0 L256,-80.0" stroke="#ddd" stroke-width="1" fill="none" />
<path d="M256,-80.0 L288,-80.0" stroke="#ddd" stroke-width="1" fill="none" />
<path d="M288,-80.0 L320,-80.0" stroke="#ddd" stroke-width="1" fill="none" />
<path d="M320,-80.0 L352,-80.0" stroke="#ddd" stroke-width="1" fill="none" />
<path d="M352,-80.0 L384,-80.0" stroke="#ddd" stroke-width="1" fill="none" />
<path d="M384,-80.0 L416,-80.0" stroke="#ddd" stroke-width="1" fill="none" />
<path d="M224,-112.0 L256,-112.0" stroke="#ddd" stroke-width="1" fill="none" />
<path d="M256,-112.0 L288,-112.0" stroke="#ddd" stroke-width="1" fill="none" />
<path d="M288,-112.0 L320,-112.0" stroke="#ddd" stroke-width="1" fill="none" />
<path d="M320,-112.0 L352,-112.0" stroke="#ddd" stroke-width="1" fill="none" />
<path d="M352,-112.0 L384,-112.0" stroke="#ddd" stroke-width="1" fill="none" />
<path d="M384,-112.0 L416,-112.0" stroke="#ddd" stroke-width="1" fill="none" />
<path d="M224,-144.0 L256,-144.0" stroke="#ddd" stroke-width="1" fill="none" />
<path d="M256,-144.0 L288,-144.0" stroke="#ddd" stroke-width="1" fill="none" />
<path d="M288,-144.0 L320,-144.0" stroke="#ddd" stroke-width="1" fill="none" />
<path d="M320,-144.0 L352,-144.0" stroke="#ddd" stroke-width="1" fill="none" />
<path d="M352,-144.0 L384,-144.0" stroke="#ddd" stroke-width="1" fill="none" />
<path d="M384,-144.0 L416,-144.0" stroke="#ddd" stroke-width="1" fill="none" />
<path d="M512,-16.0 L512,-48.0" stroke="#ddd" stroke-width="1" fill="none" />
<path d="M544,-16.0 L544,-48.0" stroke="#ddd" stroke-width="1" fill="none" />
<path d="M576,-16.0 L576,-48.0" stroke="#ddd" stroke-width="1" fill="none" />
<path d="M512,-48.0 L512,-80.0" stroke="#ddd" stroke-width="1" fill="none" />
<path d="M544,-48.0 L544,-80.0" stroke="#ddd" stroke-width="1" fill="none" />
<path d="M576,-48.0 L576,-80.0" stroke="#ddd" stroke-width="1" fill="none" />
<path d="M512,-80.0 L512,-112.0" stroke="#ddd" stroke-width="1" fill="none" />
<path d="M544,-80.0 L544,-112.0" stroke="#ddd" stroke-width="1" fill="none" />
<path d="M576,-80.0 L576,-112.0" stroke="#ddd" stroke-width="1" fill="none" />
<path d="M512,-112.0 L512,-144.0" stroke="#ddd" stroke-width="1" fill="none" />
<path d="M544,-112.0 L544,-144.0" stroke="#ddd" stroke-width="1" fill="none" />
<path d="M576,-112.0 L576,-144.0" stroke="#ddd" stroke-width="1" fill="none" />
<path d="M512,-144.0 L512,-176.0" stroke="#ddd" stroke-width="1" fill="none" />
<path d="M544,-144.0 L544,-176.0" stroke="#ddd" stroke-width="1" fill="none" />
<path d="M576,-144.0 L576,-176.0" stroke="#ddd" stroke-width="1" fill="none" />
<path d="M480,-48.0 L512,-48.0" stroke="#ddd" stroke-width="1" fill="none" />
<path d="M512,-48.0 L544,-48.0" stroke="#ddd" stroke-width="1" fill="none" />
<path d="M544,-48.0 L576,-48.0" stroke="#ddd" stroke-width="1" fill="none" />
<path d="M576,-48.0 L608,-48.0" stroke="#ddd" stroke-width="1" fill="none" />
<path d="M448,-80.0 L480,-80.0" stroke="#ddd" stroke-width="1" fill="none" />
<path d="M480,-80.0 L512,-80.0" stroke="#ddd" stroke-width="1" fill="none" />
<path d="M512,-80.0 L544,-80.0" stroke="#ddd" stroke-width="1" fill="none" />
<path d="M544,-80.0 L576,-80.0" stroke="#ddd" stroke-width="1" fill="none" />
<path d="M576,-80.0 L608,-80.0" stroke="#ddd" stroke-width="1" fill="none" />
<path d="M448,-112.0 L480,-112.0" stroke="#ddd" stroke-width="1" fill="none" />
<path d="M480,-112.0 L512,-112.0" stroke="#ddd" stroke-width="1" fill="none" />
<path d="M512,-112.0 L544,-112.0" stroke="#ddd" stroke-width="1" fill="none" />
<path d="M544,-112.0 L576,-112.0" stroke="#ddd" stroke-width="1" fill="none" />
<path d="M576,-112.0 L608,-112.0" stroke="#ddd" stroke-width="1" fill="none" />
<path d="M448,-144.0 L480,-144.0" stroke="#ddd" stroke-width="1" fill="none" />
<path d="M480,-144.0 L512,-144.0" stroke="#ddd" stroke-width="1" fill="none" />
<path d="M512,-144.0 L544,-144.0" stroke="#ddd" stroke-width="1" fill="none" />
<path d="M544,-144.0 L576,-144.0" stroke="#ddd" stroke-width="1" fill="none" />
<path d="M576,-144.0 L608,-144.0" stroke="#ddd" stroke-width="1" fill="none" />
<path d="M704,-32.0 L704,-64.0" stroke="#ddd" stroke-width="1" fill="none" />
<path d="M736,-32.0 L736,-64.0" stroke="#ddd" stroke-width="1" fill="none" />
<path d="M768,-32.0 L768,-64.0" stroke="#ddd" stroke-width="1" fill="none" />
<path d="M704,-64.0 L704,-96.0" stroke="#ddd" stroke-width="1" fill="none" />
<path d="M736,-64.0 L736,-96.0" stroke="#ddd" stroke-width="1" fill="none" />
<path d="M768,-64.0 L768,-96.0" stroke="#ddd" stroke-width="1" fill="none" />
<path d="M704,-96.0 L704,-128.0" stroke="#ddd" stroke-width="1" fill="none" />
<path d="M736,-96.0 L736,-128.0" stroke="#ddd" stroke-width="1" fill="none" />
<path d="M768,-96.0 L768,-128.0" stroke="#ddd" stroke-width="1" fill="none" />
<path d="M704,-128.0 L704,-160.0" stroke="#ddd" stroke-width="1" fill="none" />
<path d="M736,-128.0 L736,-160.0" stroke="#ddd" stroke-width="1" fill="none" />
<path d="M768,-128.0 L768,-160.0" stroke="#ddd" stroke-width="1" fill="none" />
<path d="M672,-64.0 L704,-64.0" stroke="#ddd" stroke-width="1" fill="none" />
<path d="M704,-64.0 L736,-64.0" stroke="#ddd" stroke-width="1" fill="none" />
<path d="M736,-64.0 L768,-64.0" stroke="#ddd" stroke-width="1" fill="none" />
<path d="M768,-64.0 L800,-64.0" stroke="#ddd" stroke-width="1" fill="none" />
<path d="M640,-96.0 L672,-96.0" stroke="#ddd" stroke-width="1" fill="none" />
<path d="M672,-96.0 L704,-96.0" stroke="#ddd" stroke-width="1" fill="none" />
<path d="M704,-96.0 L736,-96.0" stroke="#ddd" stroke-width="1" fill="none" />
<path d="M736,-96.0 L768,-96.0" stroke="#ddd" stroke-width="1" fill="none" />
<path d="M768,-96.0 L800,-96.0" stroke="#ddd" stroke-width="1" fill="none" />
<path d="M640,-128.0 L672,-128.0" stroke="#ddd" stroke-width="1" fill="none" />
<path d="M672,-128.0 L704,-128.0" stroke="#ddd" stroke-width="1" fill="none" />
<path d="M704,-128.0 L736,-128.0" stroke="#ddd" stroke-width="1" fill="none" />
<path d="M736,-128.0 L768,-128.0" stroke="#ddd" stroke-width="1" fill="none" />
<path d="M768,-128.0 L800,-128.0" stroke="#ddd" stroke-width="1" fill="none" />
<path d="M896,-32.0 L896,-64.0" stroke="#ddd" stroke-width="1" fill="none" />
<path d="M896,-64.0 L896,-96.0" stroke="#ddd" stroke-width="1" fill="none" />
<path d="M896,-96.0 L896,-128.0" stroke="#ddd" stroke-width="1" fill="none" />
<path d="M896,-128.0 L896,-160.0" stroke="#ddd" stroke-width="1" fill="none" />
<path d="M864,-64.0 L896,-64.0" stroke="#ddd" stroke-width="1" fill="none" />
<path d="M896,-64.0 L928,-64.0" stroke="#ddd" stroke-width="1" fill="none" />
<path d="M832,-96.0 L864,-96.0" stroke="#ddd" stroke-width="1" fill="none" />
<path d="M864,-96.0 L896,-96.0" stroke="#ddd" stroke-width="1" fill="none" />
<path d="M896,-96.0 L928,-96.0" stroke="#ddd" stroke-width="1" fill="none" />
<path d="M928,-96.0 L960,-96.0" stroke="#ddd" stroke-width="1" fill="none" />
<path d="M832,-128.0 L864,-128.0" stroke="#ddd" stroke-width="1" fill="none" />
<path d="M864,-128.0 L896,-128.0" stroke="#ddd" stroke-width="1" fill="none" />
<path d="M896,-128.0 L928,-128.0" stroke="#ddd" stroke-width="1" fill="none" />
<path d="M1024,-32.0 L1024,-64.0" stroke="#ddd" stroke-width="1" fill="none" />
<path d="M1024,-64.0 L1024,-96.0" stroke="#ddd" stroke-width="1" fill="none" />
<path d="M1024,-96.0 L1024,-128.0" stroke="#ddd" stroke-width="1" fill="none" />
<path d="M1024,-128.0 L1024,-160.0" stroke="#ddd" stroke-width="1" fill="none" />
<path d="M992,-64.0 L1024,-64.0" stroke="#ddd" stroke-width="1" fill="none" />
<path d="M1024,-64.0 L1056,-64.0" stroke="#ddd" stroke-width="1" fill="none" />
<path d="M992,-96.0 L1024,-96.0" stroke="#ddd" stroke-width="1" fill="none" />
<path d="M1024,-96.0 L1056,-96.0" stroke="#ddd" stroke-width="1" fill="none" />
<path d="M1056,-96.0 L1088,-96.0" stroke="#ddd" stroke-width="1" fill="none" />
<path d="M992,-128.0 L1024,-128.0" stroke="#ddd" stroke-width="1" fill="none" />
<path d="M1024,-128.0 L1056,-128.0" stroke="#ddd" stroke-width="1" fill="none" />
<path d="M1152,-48.0 L1152,-80.0" stroke="#ddd" stroke-width="1" fill="none" />
<path d="M1152,-80.0 L1152,-112.0" stroke="#ddd" stroke-width="1" fill="none" />
<path d="M1184,-112.0 L1184,-144.0" stroke="#ddd" stroke-width="1" fill="none" />
<path d="M1120,-80.0 L1152,-80.0" stroke="#ddd" stroke-width="1" fill="none" />
<path d="M1152,-80.0 L1184,-80.0" stroke="#ddd" stroke-width="1" fill="none" />
<path d="M96.0,-13.524791385931955 A36.950417228136054,36.950417228136054,0,0,0,96.0,-50.47520861406802" stroke="grey" stroke-width="1" fill="none" marker-end="url(#d0)" />
<path d="M528.0,-162.47520861406804 A36.950417228136054,36.950417228136054,0,0,1,528.0,-125.52479138593196" stroke="grey" stroke-width="1" fill="none" marker-end="url(#d0)" />
<path d="M845.524791385932,-96.0 A36.950417228136054,36.950417228136054,0,0,0,882.475208614068,-96.0" stroke="grey" stroke-width="1" fill="none" marker-end="url(#d0)" />
<path d="M0,-0.0 L192,-0.0 L192,-192.0 L0,-192.0 Z" stroke="black" stroke-width="2" fill="none" />
<path d="M224,-16.0 L416,-16.0 L416,-176.0 L224,-176.0 Z" stroke="black" stroke-width="2" fill="none" />
<path d="M480,-16.0 L480,-48.0" stroke="black" stroke-width="2" fill="none" />
<path d="M480,-48.0 L480,-80.0" stroke="black" stroke-width="2" fill="none" />
<path d="M480,-80.0 L480,-112.0" stroke="black" stroke-width="2" fill="none" />
<path d="M480,-112.0 L480,-144.0" stroke="black" stroke-width="2" fill="none" />
<path d="M480,-144.0 L480,-176.0" stroke="black" stroke-width="2" fill="none" />
<path d="M448,-48.0 L480,-48.0" stroke="black" stroke-width="2" fill="none" />
<path d="M448,-16.0 L608,-16.0 L608,-176.0 L448,-176.0 Z" stroke="black" stroke-width="2" fill="none" />
<path d="M672,-32.0 L672,-64.0" stroke="black" stroke-width="2" fill="none" />
<path d="M672,-64.0 L672,-96.0" stroke="black" stroke-width="2" fill="none" />
<path d="M672,-96.0 L672,-128.0" stroke="black" stroke-width="2" fill="none" />
<path d="M672,-128.0 L672,-160.0" stroke="black" stroke-width="2" fill="none" />
<path d="M640,-64.0 L672,-64.0" stroke="black" stroke-width="2" fill="none" />
<path d="M640,-32.0 L800,-32.0 L800,-160.0 L640,-160.0 Z" stroke="black" stroke-width="2" fill="none" />
<path d="M864,-32.0 L864,-64.0" stroke="black" stroke-width="2" fill="none" />
<path d="M928,-32.0 L928,-64.0" stroke="black" stroke-width="2" fill="none" />
<path d="M864,-64.0 L864,-96.0" stroke="black" stroke-width="2" fill="none" />
<path d="M928,-64.0 L928,-96.0" stroke="black" stroke-width="2" fill="none" />
<path d="M864,-96.0 L864,-128.0" stroke="black" stroke-width="2" fill="none" />
<path d="M928,-96.0 L928,-128.0" stroke="black" stroke-width="2" fill="none" />
<path d="M864,-128.0 L864,-160.0" stroke="black" stroke-width="2" fill="none" />
<path d="M928,-128.0 L928,-160.0" stroke="black" stroke-width="2" fill="none" />
<path d="M832,-64.0 L864,-64.0" stroke="black" stroke-width="2" fill="none" />
<path d="M928,-64.0 L960,-64.0" stroke="black" stroke-width="2" fill="none" />
<path d="M928,-128.0 L960,-128.0" stroke="black" stroke-width="2" fill="none" />
<path d="M832,-32.0 L960,-32.0 L960,-160.0 L832,-160.0 Z" stroke="black" stroke-width="2" fill="none" />
<path d="M1056,-32.0 L1056,-64.0" stroke="black" stroke-width="2" fill="none" />
<path d="M1056,-64.0 L1056,-96.0" stroke="black" stroke-width="2" fill="none" />
<path d="M1056,-96.0 L1056,-128.0" stroke="black" stroke-width="2" fill="none" />
<path d="M1056,-128.0 L1056,-160.0" stroke="black" stroke-width="2" fill="none" />
<path d="M1056,-64.0 L1088,-64.0" stroke="black" stroke-width="2" fill="none" />
<path d="M1056,-128.0 L1088,-128.0" stroke="black" stroke-width="2" fill="none" />
<path d="M992,-32.0 L1088,-32.0 L1088,-160.0 L992,-160.0 Z" stroke="black" stroke-width="2" fill="none" />
<path d="M1184,-48.0 L1184,-80.0" stroke="black" stroke-width="2" fill="none" />
<path d="M1184,-80.0 L1184,-112.0" stroke="black" stroke-width="2" fill="none" />
<path d="M1152,-112.0 L1152,-144.0" stroke="black" stroke-width="2" fill="none" />
<path d="M1184,-80.0 L1216,-80.0" stroke="black" stroke-width="2" fill="none" />
<path d="M1120,-112.0 L1152,-112.0" stroke="black" stroke-width="2" fill="none" />
<path d="M1152,-112.0 L1184,-112.0" stroke="black" stroke-width="2" fill="none" />
<path d="M1184,-112.0 L1216,-112.0" stroke="black" stroke-width="2" fill="none" />
<path d="M1120,-48.0 L1216,-48.0 L1216,-144.0 L1120,-144.0 Z" stroke="black" stroke-width="2" fill="none" />
<path d="M237.524791385932,-96.0 A36.950417228136054,36.950417228136054,0,0,1,274.47520861406804,-96.0" stroke="black" stroke-width="1" fill="none" marker-end="url(#d1)" />
<path d="M786.475208614068,-96.0 A36.950417228136054,36.950417228136054,0,0,0,749.524791385932,-96.0" stroke="black" stroke-width="1" fill="none" marker-end="url(#d1)" />
<path d="M1040.0,-146.47520861406804 A36.950417228136054,36.950417228136054,0,0,0,1040.0,-109.52479138593196" stroke="black" stroke-width="1" fill="none" marker-end="url(#d1)" />
<path d="M0,-32.0 L192,-32.0" stroke="black" stroke-width="1" fill="none" stroke-dasharray="10 2 2 2" />
<path d="M256,-16.0 L256,-176.0" stroke="black" stroke-width="1" fill="none" stroke-dasharray="4" />
<path d="M448,-144.0 L608,-144.0" stroke="black" stroke-width="1" fill="none" stroke-dasharray="10 2 2 2" />
<path d="M768,-32.0 L768,-160.0" stroke="black" stroke-width="1" fill="none" stroke-dasharray="4" />
<path d="M864,-32.0 L864,-160.0" stroke="black" stroke-width="1" fill="none" stroke-dasharray="10 2 2 2" />
<path d="M992,-128.0 L1088,-128.0" stroke="black" stroke-width="1" fill="none" stroke-dasharray="4" />
</svg>