<?xml version="1.0" encoding="UTF-8"?>
<svg xmlns="http://www.w3.org/2000/svg" xmlns:xlink="http://www.w3.org/1999/xlink"
     width="1185" height="225" viewBox="0 -225 1185 225">
<defs>
<marker markerWidth="4.0" markerHeight="4.0" viewBox="-0.1 -0.5 1.0 1.0" orient="auto" stroke="grey" id="d0">
<path d="M-0.1,0.5 L-0.1,-0.5 L0.9,0 Z" stroke-width="0.1" stroke="grey" fill="white" />
</marker>
<marker markerWidth="4.0" markerHeight="4.0" viewBox="-0.1 -0.5 1.0 1.0" orient="auto" id="d1">
<path d="M-0.1,0.5 L-0.1,-0.5 L0.9,0 Z" stroke-width="0.1" stroke="black" fill="black" />
</marker>
</defs>
<rect x="0" y="-33.0" width="33" height="33" fill="#bbb" />
<rect x="32" y="-33.0" width="33" height="33" fill="#bbb" />
<rect x="64" y="-33.0" width="33" height="33" fill="#bbb" />
<rect x="96" y="-33.0" width="33" height="33" fill="#bbb" />
<rect x="128" y="-33.0" width="33" height="33" fill="#bbb" />
<rect x="160" y="-33.0" width="33" height="33" fill="#bbb" />
<rect x="192" y="-33.0" width="33" height="33" fill="#bbb" />
<rect x="0" y="-65.0" width="33" height="33" fill="#bbb" />
<rect x="32" y="-65.0" width="33" height="33" fill="#bbb" />
<rect x="64" y="-65.0" width="33" height="33" fill="#bbb" />
<rect x="96" y="-65.0" width="33" height="33" fill="#bbb" />
<rect x="128" y="-65.0" width="33" height="33" fill="#bbb" />
<rect x="160" y="-65.0" width="33" height="33" fill="#bbb" />
<rect x="192" y="-65.0" width="33" height="33" fill="#bbb" />
<rect x="0" y="-97.0" width="33" height="33" fill="#bbb" />
<rect x="32" y="-97.0" width="33" height="33" fill="#bbb" />
<rect x="64" y="-97.0" width="33" height="33" fill="#bbb" />
<rect x="96" y="-97.0" width="33" height="33" fill="#bbb" />
<rect x="128" y="-97.0" width="33" height="33" fill="#bbb" />
<rect x="160" y="-97.0" width="33" height="33" fill="#bbb" />
<rect x="192" y="-97.0" width="33" height="33" fill="#bbb" />
<rect x="0" y="-129.0" width="33" height="33" fill="#bbb" />
<rect x="32" y="-129.0" width="33" height="33" fill="#bbb" />
<rect x="64" y="-129.0" width="33" height="33" fill="#bbb" />
<rect x="96" y="-129.0" width="33" height="33" fill="#bbb" />
<rect x="128" y="-129.0" width="33" height="33" fill="#bbb" />
<rect x="160" y="-129.0" width="33" height="33" fill="#bbb" />
<rect x="192" y="-129.0" width="33" height="33" fill="#bbb" />
<rect x="0" y="-161.0" width="33" height="33" fill="#bbb" />
<rect x="32" y="-161.0" width="33" height="33" fill="#bbb" />
<rect x="64" y="-161.0" width="33" height="33" fill="#bbb" />
<rect x="96" y="-161.0" width="33" height="33" fill="#bbb" />
<rect x="128" y="-161.0" width="33" height="33" fill="#bbb" />
<rect x="160" y="-161.0" width="33" height="33" fill="#bbb" />
<rect x="192" y="-161.0" width="33" height="33" fill="#bbb" />
<rect x="0" y="-193.0" width="33" height="33" fill="#bbb" />
<rect x="32" y="-193.0" width="33" height="33" fill="#bbb" />
<rect x="64" y="-193.0" width="33" height="33" fill="#bbb" />
<rect x="96" y="-193.0" width="33" height="33" fill="#bbb" />
<rect x="128" y="-193.0" width="33" height="33" fill="#bbb" />
<rect x="160" y="-193.0" width="33" height="33" fill="#bbb" />
<rect x="192" y="-193.0" width="33" height="33" fill="#bbb" />
<rect x="0" y="-225.0" width="33" height="33" fill="#bbb" />
<rect x="32" y="-225.0" width="33" height="33" fill="#bbb" />
<rect x="64" y="-225.0" width="33" height="33" fill="#bbb" />
<rect x="96" y="-225.0" width="33" height="33" fill="#bbb" />
<rect x="128" y="-225.0" width="33" height="33" fill="#bbb" />
<rect x="160" y="-225.0" width="33" height="33" fill="#bbb" />
<rect x="192" y="-225.0" width="33" height="33" fill="#bbb" />
<rect x="256" y="-49.0" width="33" height="33" fill="#bbb" />
<rect x="288" y="-49.0" width="33" height="33" fill="#bbb" />
<rect x="320" y="-49.0" width="33" height="33" fill="#bbb" />
<rect x="352" y="-49.0" width="33" height="33" fill="#bbb" />
<rect x="384" y="-49.0" width="33" height="33" fill="#bbb" />
<rect x="416" y="-49.0" width="33" height="33" fill="#bbb" />
<rect x="448" y="-49.0" width="33" height="33" fill="#bbb" />
<rect x="256" y="-81.0" width="33" height="33" fill="#bbb" />
<rect x="288" y="-81.0" width="33" height="33" fill="#bbb" />
<rect x="320" y="-81.0" width="33" height="33" fill="#bbb" />
<rect x="352" y="-81.0" width="33" height="33" fill="#bbb" />
<rect x="384" y="-81.0" width="33" height="33" fill="#bbb" />
<rect x="416" y="-81.0" width="33" height="33" fill="#bbb" />
<rect x="448" y="-81.0" width="33" height="33" fill="#bbb" />
<rect x="256" y="-113.0" width="33" height="33" fill="#bbb" />
<rect x="288" y="-113.0" width="33" height="33" fill="#bbb" />
<rect x="320" y="-113.0" width="33" height="33" fill="#bbb" />
<rect x="352" y="-113.0" width="33" height="33" fill="#bbb" />
<rect x="384" y="-113.0" width="33" height="33" fill="#bbb" />
<rect x="416" y="-113.0" width="33" height="33" fill="#bbb" />
<rect x="448" y="-113.0" width="33" height="33" fill="#bbb" />
<rect x="256" y="-145.0" width="33" height="33" fill="#bbb" />
<rect x="288" y="-145.0" width="33" height="33" fill="#bbb" />
<rect x="320" y="-145.0" width="33" height="33" fill="#bbb" />
<rect x="352" y="-145.0" width="33" height="33" fill="#bbb" />
<rect x="384" y="-145.0" width="33" height="33" fill="#bbb" />
<rect x="416" y="-145.0" width="33" height="33" fill="#bbb" />
<rect x="448" y="-145.0" width="33" height="33" fill="#bbb" />
<rect x="256" y="-177.0" width="33" height="33" fill="#bbb" />
<rect x="288" y="-177.0" width="33" height="33" fill="#bbb" />
<rect x="320" y="-177.0" width="33" height="33" fill="#bbb" />
<rect x="352" y="-177.0" width="33" height="33" fill="#bbb" />
<rect x="384" y="-177.0" width="33" height="33" fill="#bbb" />
<rect x="416" y="-177.0" width="33" height="33" fill="#bbb" />
<rect x="448" y="-177.0" width="33" height="33" fill="#bbb" />
<rect x="256" y="-209.0" width="33" height="33" fill="#bbb" />
<rect x="288" y="-209.0" width="33" height="33" fill="#bbb" />
<rect x="320" y="-209.0" width="33" height="33" fill="#bbb" />
<rect x="352" y="-209.0" width="33" height="33" fill="#bbb" />
<rect x="384" y="-209.0" width="33" height="33" fill="#bbb" />
<rect x="416" y="-209.0" width="33" height="33" fill="#bbb" />
<rect x="448" y="-209.0" width="33" height="33" fill="#bbb" />
<rect x="512" y="-49.0" width="33" height="33" fill="#bbb" />
<rect x="544" y="-49.0" width="33" height="33" fill="#bbb" />
<rect x="576" y="-49.0" width="33" height="33" fill="#bbb" />
<rect x="608" y="-49.0" width="33" height="33" fill="#bbb" />
<rect x="640" y="-49.0" width="33" height="33" fill="#bbb" />
<rect x="512" y="-81.0" width="33" height="33" fill="#bbb" />
<rect x="544" y="-81.0" width="33" height="33" fill="#bbb" />
<rect x="576" y="-81.0" width="33" height="33" fill="#bbb" />
<rect x="608" y="-81.0" width="33" height="33" fill="white" />
<rect x="640" y="-81.0" width="33" height="33" fill="white" />
<rect x="512" y="-113.0" width="33" height="33" fill="#bbb" />
<rect x="544" y="-113.0" width="33" height="33" fill="#bbb" />
<rect x="576" y="-113.0" width="33" height="33" fill="#bbb" />
<rect x="608" y="-113.0" width="33" height="33" fill="white" />
<rect x="640" y="-113.0" width="33" height="33" fill="white" />
<rect x="512" y="-145.0" width="33" height="33" fill="#bbb" />
<rect x="544" y="-145.0" width="33" height="33" fill="#bbb" />
<rect x="576" y="-145.0" width="33" height="33" fill="#bbb" />
<rect x="608" y="-145.0" width="33" height="33" fill="white" />
<rect x="640" y="-145.0" width="33" height="33" fill="white" />
<rect x="512" y="-177.0" width="33" height="33" fill="#bbb" />
<rect x="544" y="-177.0" width="33" height="33" fill="#bbb" />
<rect x="576" y="-177.0" width="33" height="33" fill="#bbb" />
<rect x="608" y="-177.0" width="33" height="33" fill="white" />
<rect x="640" y="-177.0" width="33" height="33" fill="white" />
<rect x="512" y="-209.0" width="33" height="33" fill="#bbb" />
<rect x="544" y="-209.0" width="33" height="33" fill="#bbb" />
<rect x="576" y="-209.0" width="33" height="33" fill="#bbb" />
<rect x="608" y="-209.0" width="33" height="33" fill="white" />
<rect x="640" y="-209.0" width="33" height="33" fill="white" />
<rect x="704" y="-81.0" width="33" height="33" fill="white" />
<rect x="736" y="-81.0" width="33" height="33" fill="white" />
<rect x="768" y="-81.0" width="33" height="33" fill="white" />
<rect x="800" y="-81.0" width="33" height="33" fill="white" />
<rect x="832" y="-81.0" width="33" height="33" fill="white" />
<rect x="704" y="-113.0" width="33" height="33" fill="#bbb" />
<rect x="736" y="-113.0" width="33" height="33" fill="#bbb" />
<rect x="768" y="-113.0" width="33" height="33" fill="#bbb" />
<rect x="800" y="-113.0" width="33" height="33" fill="#bbb" />
<rect x="832" y="-113.0" width="33" height="33" fill="#bbb" />
<rect x="704" y="-145.0" width="33" height="33" fill="#bbb" />
<rect x="736" y="-145.0" width="33" height="33" fill="#bbb" />
<rect x="768" y="-145.0" width="33" height="33" fill="#bbb" />
<rect x="800" y="-145.0" width="33" height="33" fill="white" />
<rect x="832" y="-145.0" width="33" height="33" fill="white" />
<rect x="704" y="-177.0" width="33" height="33" fill="#bbb" />
<rect x="736" y="-177.0" width="33" height="33" fill="#bbb" />
<rect x="768" y="-177.0" width="33" height="33" fill="#bbb" />
<rect x="800" y="-177.0" width="33" height="33" fill="white" />
<rect x="832" y="-177.0" width="33" height="33" fill="white" />
<rect x="896" y="-97.0" width="33" height="33" fill="white" />
<rect x="928" y="-97.0" width="33" height="33" fill="white" />
<rect x="960" y="-97.0" width="33" height="33" fill="white" />
<rect x="992" y="-97.0" width="33" height="33" fill="white" />
<rect x="1024" y="-97.0" width="33" height="33" fill="white" />
<rect x="896" y="-129.0" width="33" height="33" fill="#bbb" />
<rect x="928" y="-129.0" width="33" height="33" fill="#bbb" />
<rect x="960" y="-129.0" width="33" height="33" fill="#bbb" />
<rect x="992" y="-129.0" width="33" height="33" fill="#bbb" />
<rect x="1024" y="-129.0" width="33" height="33" fill="#bbb" />
<rect x="896" y="-161.0" width="33" height="33" fill="#bbb" />
<rect x="928" y="-161.0" width="33" height="33" fill="#bbb" />
<rect x="960" y="-161.0" width="33" height="33" fill="#bbb" />
<rect x="992" y="-161.0" width="33" height="33" fill="white" />
<rect x="1024" y="-161.0" width="33" height="33" fill="white" />
<rect x="1088" y="-97.0" width="33" height="33" fill="white" />
<rect x="1120" y="-97.0" width="33" height="33" fill="white" />
<rect x="1152" y="-97.0" width="33" height="33" fill="white" />
<rect x="1088" y="-129.0" width="33" height="33" fill="white" />
<rect x="1120" y="-129.0" width="33" height="33" fill="white" />
<rect x="1152" y="-129.0" width="33" height="33" fill="#bbb" />
<rect x="1088" y="-161.0" width="33" height="33" fill="#bbb" />
<rect x="1120" y="-161.0" width="33" height="33" fill="#bbb" />
<rect x="1152" y="-161.0" width="33" height="33" fill="white" />
<path d="M32,-0.0 L32,-32.0" stroke="#ddd" stroke-width="1" fill="none" />
<path d="M64,-0.0 L64,-32.0" stroke="#ddd" stroke-width="1" fill="none" />
<path d="M96,-0.0 L96,-32.0" stroke="#ddd" stroke-width="1" fill="none" />
<path d="M128,-0.0 L128,-32.0" stroke="#ddd" stroke-width="1" fill="none" />
<path d="M160,-0.0 L160,-32.0" stroke="#ddd" stroke-width="1" fill="none" />
<path d="M192,-0.0 L192,-32.0" stroke="#ddd" stroke-width="1" fill="none" />
<path d="M32,-32.0 L32,-64.0" stroke="#ddd" stroke-width="1" fill="none" />
<path d="M64,-32.0 L64,-64.0" stroke="#ddd" stroke-width="1" fill="none" />
<path d="M96,-32.0 L96,-64.0" stroke="#ddd" stroke-width="1" fill="none" />
<path d="M128,-32.0 L128,-64.0" stroke="#ddd" stroke-width="1" fill="none" />
<path d="M160,-32.0 L160,-64.0" stroke="#ddd" stroke-width="1" fill="none" />
<path d="M192,-32.0 L192,-64.0" stroke="#ddd" stroke-width="1" fill="none" />
<path d="M32,-64.0 L32,-96.0" stroke="#ddd" stroke-width="1" fill="none" />
<path d="M64,-64.0 L64,-96.0" stroke="#ddd" stroke-width="1" fill="none" />
<path d="M96,-64.0 L96,-96.0" stroke="#ddd" stroke-width="1" fill="none" />
<path d="M128,-64.0 L128,-96.0" stroke="#ddd" stroke-width="1" fill="none" />
<path d="M160,-64.0 L160,-96.0" stroke="#ddd" stroke-width="1" fill="none" />
<path d="M192,-64.0 L192,-96.0" stroke="#ddd" stroke-width="1" fill="none" />
<path d="M32,-96.0 L32,-128.0" stroke="#ddd" stroke-width="1" fill="none" />
<path d="M64,-96.0 L64,-128.0" stroke="#ddd" stroke-width="1" fill="none" />
<path d="M96,-96.0 L96,-128.0" stroke="#ddd" stroke-width="1" fill="none" />
<path d="M128,-96.0 L128,-128.0" stroke="#ddd" stroke-width="1" fill="none" />
<path d="M160,-96.0 L160,-128.0" stroke="#ddd" stroke-width="1" fill="none" />
<path d="M192,-96.0 L192,-128.0" stroke="#ddd" stroke-width="1" fill="none" />
<path d="M32,-128.0 L32,-160.0" stroke="#ddd" stroke-width="1" fill="none" />
<path d="M64,-128.0 L64,-160.0" stroke="#ddd" stroke-width="1" fill="none" />
<path d="M96,-128.0 L96,-160.0" stroke="#ddd" stroke-width="1" fill="none" />
<path d="M128,-128.0 L128,-160.0" stroke="#ddd" stroke-width="1" fill="none" />
<path d="M160,-128.0 L160,-160.0" stroke="#ddd" stroke-width="1" fill="none" />
<path d="M192,-128.0 L192,-160.0" stroke="#ddd" stroke-width="1" fill="none" />
<path d="M32,-160.0 L32,-192.0" stroke="#ddd" stroke-width="1" fill="none" />
<path d="M64,-160.0 L64,-192.0" stroke="#ddd" stroke-width="1" fill="none" />
<path d="M96,-160.0 L96,-192.0" stroke="#ddd" stroke-width="1" fill="none" />
<path d="M128,-160.0 L128,-192.0" stroke="#ddd" stroke-width="1" fill="none" />
<path d="M160,-160.0 L160,-192.0" stroke="#ddd" stroke-width="1" fill="none" />
<path d="M192,-160.0 L192,-192.0" stroke="#ddd" stroke-width="1" fill="none" />
<path d="M32,-192.0 L32,-224.0" stroke="#ddd" stroke-width="1" fill="none" />
<path d="M64,-192.0 L64,-224.0" stroke="#ddd" stroke-width="1" fill="none" />
<path d="M96,-192.0 L96,-224.0" stroke="#ddd" stroke-width="1" fill="none" />
<path d="M128,-192.0 L128,-224.0" stroke="#ddd" stroke-width="1" fill="none" />
<path d="M160,-192.0 L160,-224.0" stroke="#ddd" stroke-width="1" fill="none" />
<path d="M192,-192.0 L192,-224.0" stroke="#ddd" stroke-width="1" fill="none" />
<path d="M0,-32.0 L32,-32.0" stroke="#ddd" stroke-width="1" fill="none" />
<path d="M32,-32.0 L64,-32.0" stroke="#ddd" stroke-width="1" fill="none" />
<path d="M64,-32.0 L96,-32.0" stroke="#ddd" stroke-width="1" fill="none" />
<path d="M96,-32.0 L128,-32.0" stroke="#ddd" stroke-width="1" fill="none" />
<path d="M128,-32.0 L160,-32.0" stroke="#ddd" stroke-width="1" fill="none" />
<path d="M160,-32.0 L192,-32.0" stroke="#ddd" stroke-width="1" fill="none" />
<path d="M192,-32.0 L224,-32.0" stroke="#ddd" stroke-width="1" fill="none" />
<path d="M0,-64.0 L32,-64.0" stroke="#ddd" stroke-width="1" fill="none" />
<path d="M32,-64.0 L64,-64.0" stroke="#ddd" stroke-width="1" fill="none" />
<path d="M64,-64.0 L96,-64.0" stroke="#ddd" stroke-width="1" fill="none" />
<path d="M96,-64.0 L128,-64.0" stroke="#ddd" stroke-width="1" fill="none" />
<path d="M128,-64.0 L160,-64.0" stroke="#ddd" stroke-width="1" fill="none" />
<path d="M160,-64.0 L192,-64.0" stroke="#ddd" stroke-width="1" fill="none" />
<path d="M192,-64.0 L224,-64.0" stroke="#ddd" stroke-width="1" fill="none" />
<path d="M0,-96.0 L32,-96.0" stroke="#ddd" stroke-width="1" fill="none" />
<path d="M32,-96.0 L64,-96.0" stroke="#ddd" stroke-width="1" fill="none" />
<path d="M64,-96.0 L96,-96.0" stroke="#ddd" stroke-width="1" fill="none" />
<path d="M96,-96.0 L128,-96.0" stroke="#ddd" stroke-width="1" fill="none" />
<path d="M128,-96.0 L160,-96.0" stroke="#ddd" stroke-width="1" fill="none" />
<path d="M160,-96.0 L192,-96.0" stroke="#ddd" stroke-width="1" fill="none" />
<path d="M192,-96.0 L224,-96.0" stroke="#ddd" stroke-width="1" fill="none" />
<path d="M0,-128.0 L32,-128.0" stroke="#ddd" stroke-width="1" fill="none" />
<path d="M32,-128.0 L64,-128.0" stroke="#ddd" stroke-width="1" fill="none" />
<path d="M64,-128.0 L96,-128.0" stroke="#ddd" stroke-width="1" fill="none" />
<path d="M96,-128.0 L128,-128.0" stroke="#ddd" stroke-width="1" fill="none" />
<path d="M128,-128.0 L160,-128.0" stroke="#ddd" stroke-width="1" fill="none" />
<path d="M160,-128.0 L192,-128.0" stroke="#ddd" stroke-width="1" fill="none" />
<path d="M192,-128.0 L224,-128.0" stroke="#ddd" stroke-width="1" fill="none" />
<path d="M0,-160.0 L32,-160.0" stroke="#ddd" stroke-width="1" fill="none" />
<path d="M32,-160.0 L64,-160.0" stroke="#ddd" stroke-width="1" fill="none" />
<path d="M64,-160.0 L96,-160.0" stroke="#ddd" stroke-width="1" fill="none" />
<path d="M96,-160.0 L128,-160.0" stroke="#ddd" stroke-width="1" fill="none" />
<path d="M128,-160.0 L160,-160.0" stroke="#ddd" stroke-width="1" fill="none" />
<path d="M160,-160.0 L192,-160.0" stroke="#ddd" stroke-width="1" fill="none" />
<path d="M192,-160.0 L224,-160.0" stroke="#ddd" stroke-width="1" fill="none" />
<path d="M0,-192.0 L32,-192.0" stroke="#ddd" stroke-width="1" fill="none" />
<path d="M32,-192.0 L64,-192.0" stroke="#ddd" stroke-width="1" fill="none" />
<path d="M64,-192.0 L96,-192.0" stroke="#ddd" stroke-width="1" fill="none" />
<path d="M96,-192.0 L128,-192.0" stroke="#ddd" stroke-width="1" fill="none" />
<path d="M128,-192.0 L160,-192.0" stroke="#ddd" stroke-width="1" fill="none" />
<path d="M160,-192.0 L192,-192.0" stroke="#ddd" stroke-width="1" fill="none" />
<path d="M192,-192.0 L224,-192.0" stroke="#ddd" stroke-width="1" fill="none" />
<path d="M288,-16.0 L288,-48.0" stroke="#ddd" stroke-width="1" fill="none" />
<path d="M320,-16.0 L320,-48.0" stroke="#ddd" stroke-width="1" fill="none" />
<path d="M352,-16.0 L352,-48.0" stroke="#ddd" stroke-width="1" fill="none" />
<path d="M384,-16.0 L384,-48.0" stroke="#ddd" stroke-width="1" fill="none" />
<path d="M416,-16.0 L416,-48.0" stroke="#ddd" stroke-width="1" fill="none" />
<path d="M448,-16.0 L448,-48.0" stroke="#ddd" stroke-width="1" fill="none" />
<path d="M288,-48.0 L288,-80.0" stroke="#ddd" stroke-width="1" fill="none" />
<path d="M320,-48.0 L320,-80.0" stroke="#ddd" stroke-width="1" fill="none" />
<path d="M352,-48.0 L352,-80.0" stroke="#ddd" stroke-width="1" fill="none" />
<path d="M384,-48.0 L384,-80.0" stroke="#ddd" stroke-width="1" fill="none" />
<path d="M416,-48.0 L416,-80.0" stroke="#ddd" stroke-width="1" fill="none" />
<path d="M448,-48.0 L448,-80.0" stroke="#ddd" stroke-width="1" fill="none" />
<path d="M288,-80.0 L288,-112.0" stroke="#ddd" stroke-width="1" fill="none" />
<path d="M320,-80.0 L320,-112.0" stroke="#ddd" stroke-width="1" fill="none" />
<path d="M352,-80.0 L352,-112.0" stroke="#ddd" stroke-width="1" fill="none" />
<path d="M384,-80.0 L384,-112.0" stroke="#ddd" stroke-width="1" fill="none" />
<path d="M416,-80.0 L416,-112.0" stroke="#ddd" stroke-width="1" fill="none" />
<path d="M448,-80.0 L448,-112.0" stroke="#ddd" stroke-width="1" fill="none" />
<path d="M288,-112.0 L288,-144.0" stroke="#ddd" stroke-width="1" fill="none" />
<path d="M320,-112.0 L320,-144.0" stroke="#ddd" stroke-width="1" fill="none" />
<path d="M352,-112.0 L352,-144.0" stroke="#ddd" stroke-width="1" fill="none" />
<path d="M384,-112.0 L384,-144.0" stroke="#ddd" stroke-width="1" fill="none" />
<path d="M416,-112.0 L416,-144.0" stroke="#ddd" stroke-width="1" fill="none" />
<path d="M448,-112.0 L448,-144.0" stroke="#ddd" stroke-width="1" fill="none" />
<path d="M288,-144.0 L288,-176.0" stroke="#ddd" stroke-width="1" fill="none" />
<path d="M320,-144.0 L320,-176.0" stroke="#ddd" stroke-width="1" fill="none" />
<path d="M352,-144.0 L352,-176.0" stroke="#ddd" stroke-width="1" fill="none" />
<path d="M384,-144.0 L384,-176.0" stroke="#ddd" stroke-width="1" fill="none" />
<path d="M416,-144.0 L416,-176.0" stroke="#ddd" stroke-width="1" fill="none" />
<path d="M448,-144.0 L448,-176.0" stroke="#ddd" stroke-width="1" fill="none" />
<path d="M288,-176.0 L288,-208.0" stroke="#ddd" stroke-width="1" fill="none" />
<path d="M320,-176.0 L320,-208.0" stroke="#ddd" stroke-width="1" fill="none" />
<path d="M352,-176.0 L352,-208.0" stroke="#ddd" stroke-width="1" fill="none" />
<path d="M384,-176.0 L384,-208.0" stroke="#ddd" stroke-width="1" fill="none" />
<path d="M416,-176.0 L416,-208.0" stroke="#ddd" stroke-width="1" fill="none" />
<path d="M448,-176.0 L448,-208.0" stroke="#ddd" stroke-width="1" fill="none" />
<path d="M256,-48.0 L288,-48.0" stroke="#ddd" stroke-width="1" fill="none" />
<path d="M288,-48.0 L320,-48.0" stroke="#ddd" stroke-width="1" fill="none" />
<path d="M320,-48.0 L352,-48.0" stroke="#ddd" stroke-width="1" fill="none" />
<path d="M352,-48.0 L384,-48.0" stroke="#ddd" stroke-width="1" fill="none" />
<path d="M384,-48.0 L416,-48.0" stroke="#ddd" stroke-width="1" fill="none" />
<path d="M416,-48.0 L448,-48.0" stroke="#ddd" stroke-width="1" fill="none" />
<path d="M448,-48.0 L480,-48.0" stroke="#ddd" stroke-width="1" fill="none" />
<path d="M256,-80.0 L288,-80.0" stroke="#ddd" stroke-width="1" fill="none" />
<path d="M288,-80.0 L320,-80.0" stroke="#ddd" stroke-width="1" fill="none" />
<path d="M320,-80.0 L352,-80.0" stroke="#ddd" stroke-width="1" fill="none" />
<path d="M352,-80.0 L384,-80.0" stroke="#ddd" stroke-width="1" fill="none" />
<path d="M384,-80.0 L416,-80.0" stroke="#ddd" stroke-width="1" fill="none" />
<path d="M416,-80.0 L448,-80.0" stroke="#ddd" stroke-width="1" fill="none" />
<path d="M448,-80.0 L480,-80.0" stroke="#ddd" stroke-width="1" fill="none" />
<path d="M256,-112.0 L288,-112.0" stroke="#ddd" stroke-width="1" fill="none" />
<path d="M288,-112.0 L320,-112.0" stroke="#ddd" stroke-width="1" fill="none" />
<path d="M320,-112.0 L352,-112.0" stroke="#ddd" stroke-width="1" fill="none" />
<path d="M352,-112.0 L384,-112.0" stroke="#ddd" stroke-width="1" fill="none" />
<path d="M384,-112.0 L416,-112.0" stroke="#ddd" stroke-width="1" fill="none" />
<path d="M416,-112.0 L448,-112.0" stroke="#ddd" stroke-width="1" fill="none" />
<path d="M448,-112.0 L480,-112.0" stroke="#ddd" stroke-width="1" fill="none" />
<path d="M256,-144.0 L288,-144.0" stroke="#ddd" stroke-width="1" fill="none" />
<path d="M288,-144.0 L320,-144.0" stroke="#ddd" stroke-width="1" fill="none" />
<path d="M320,-144.0 L352,-144.0" stroke="#ddd" stroke-width="1" fill="none" />
<path d="M352,-144.0 L384,-144.0" stroke="#ddd" stroke-width="1" fill="none" />
<path d="M384,-144.0 L416,-144.0" stroke="#ddd" stroke-width="1" fill="none" />
<path d="M416,-144.0 L448,-144.0" stroke="#ddd" stroke-width="1" fill="none" />
<path d="M448,-144.0 L480,-144.0" stroke="#ddd" stroke-width="1" fill="none" />
<path d="M256,-176.0 L288,-176.0" stroke="#ddd" stroke-width="1" fill="none" />
<path d="M288,-176.0 L320,-176.0" stroke="#ddd" stroke-width="1" fill="none" />
<path d="M320,-176.0 L352,-176.0" stroke="#ddd" stroke-width="1" fill="none" />
<path d="M352,-176.0 L384,-176.0" stroke="#ddd" stroke-width="1" fill="none" />
<path d="M384,-176.0 L416,-176.0" stroke="#ddd" stroke-width="1" fill="none" />
<path d="M416,-176.0 L448,-176.0" stroke="#ddd" stroke-width="1" fill="none" />
<path d="M448,-176.0 L480,-176.0" stroke="#ddd" stroke-width="1" fill="none" />
<path d="M544,-16.0 L544,-48.0" stroke="#ddd" stroke-width="1" fill="none" />
<path d="M576,-16.0 L576,-48.0" stroke="#ddd" stroke-width="1" fill="none" />
<path d="M640,-16.0 L640,-48.0" stroke="#ddd" stroke-width="1" fill="none" />
<path d="M544,-48.0 L544,-80.0" stroke="#ddd" stroke-width="1" fill="none" />
<path d="M576,-48.0 L576,-80.0" stroke="#ddd" stroke-width="1" fill="none" />
<path d="M640,-48.0 L640,-80.0" stroke="#ddd" stroke-width="1" fill="none" />
<path d="M544,-80.0 L544,-112.0" stroke="#ddd" stroke-width="1" fill="none" />
<path d="M576,-80.0 L576,-112.0" stroke="#ddd" stroke-width="1" fill="none" />
<path d="M640,-80.0 L640,-112.0" stroke="#ddd" stroke-width="1" fill="none" />
<path d="M544,-112.0 L544,-144.0" stroke="#ddd" stroke-width="1" fill="none" />
<path d="M576,-112.0 L576,-144.0" stroke="#ddd" stroke-width="1" fill="none" />
<path d="M640,-112.0 L640,-144.0" stroke="#ddd" stroke-width="1" fill="none" />
<path d="M544,-144.0 L544,-176.0" stroke="#ddd" stroke-width="1" fill="none" />
<path d="M576,-144.0 L576,-176.0" stroke="#ddd" stroke-width="1" fill="none" />
<path d="M640,-144.0 L640,-176.0" stroke="#ddd" stroke-width="1" fill="none" />
<path d="M544,-176.0 L544,-208.0" stroke="#ddd" stroke-width="1" fill="none" />
<path d="M576,-176.0 L576,-208.0" stroke="#ddd" stroke-width="1" fill="none" />
<path d="M640,-176.0 L640,-208.0" stroke="#ddd" stroke-width="1" fill="none" />
<path d="M512,-48.0 L544,-48.0" stroke="#ddd" stroke-width="1" fill="none" />
<path d="M544,-48.0 L576,-48.0" stroke="#ddd" stroke-width="1" fill="none" />
<path d="M576,-48.0 L608,-48.0" stroke="#ddd" stroke-width="1" fill="none" />
<path d="M512,-80.0 L544,-80.0" stroke="#ddd" stroke-width="1" fill="none" />
<path d="M544,-80.0 L576,-80.0" stroke="#ddd" stroke-width="1" fill="none" />
<path d="M576,-80.0 L608,-80.0" stroke="#ddd" stroke-width="1" fill="none" />
<path d="M608,-80.0 L640,-80.0" stroke="#ddd" stroke-width="1" fill="none" />
<path d="M640,-80.0 L672,-80.0" stroke="#ddd" stroke-width="1" fill="none" />
<path d="M512,-112.0 L544,-112.0" stroke="#ddd" stroke-width="1" fill="none" />
<path d="M544,-112.0 L576,-112.0" stroke="#ddd" stroke-width="1" fill="none" />
<path d="M576,-112.0 L608,-112.0" stroke="#ddd" stroke-width="1" fill="none" />
<path d="M608,-112.0 L640,-112.0" stroke="#ddd" stroke-width="1" fill="none" />
<path d="M640,-112.0 L672,-112.0" stroke="#ddd" stroke-width="1" fill="none" />
<path d="M512,-144.0 L544,-144.0" stroke="#ddd" stroke-width="1" fill="none" />
<path d="M544,-144.0 L576,-144.0" stroke="#ddd" stroke-width="1" fill="none" />
<path d="M576,-144.0 L608,-144.0" stroke="#ddd" stroke-width="1" fill="none" />
<path d="M608,-144.0 L640,-144.0" stroke="#ddd" stroke-width="1" fill="none" />
<path d="M640,-144.0 L672,-144.0" stroke="#ddd" stroke-width="1" fill="none" />
<path d="M512,-176.0 L544,-176.0" stroke="#ddd" stroke-width="1" fill="none" />
<path d="M544,-176.0 L576,-176.0" stroke="#ddd" stroke-width="1" fill="none" />
<path d="M576,-176.0 L608,-176.0" stroke="#ddd" stroke-width="1" fill="none" />
<path d="M608,-176.0 L640,-176.0" stroke="#ddd" stroke-width="1" fill="none" />
<path d="M640,-176.0 L672,-176.0" stroke="#ddd" stroke-width="1" fill="none" />
<path d="M736,-48.0 L736,-80.0" stroke="#ddd" stroke-width="1" fill="none" />
<path d="M768,-48.0 L768,-80.0" stroke="#ddd" stroke-width="1" fill="none" />
<path d="M800,-48.0 L800,-80.0" stroke="#ddd" stroke-width="1" fill="none" />
<path d="M832,-48.0 L832,-80.0" stroke="#ddd" stroke-width="1" fill="none" />
<path d="M736,-80.0 L736,-112.0" stroke="#ddd" stroke-width="1" fill="none" />
<path d="M768,-80.0 L768,-112.0" stroke="#ddd" stroke-width="1" fill="none" />
<path d="M800,-80.0 L800,-112.0" stroke="#ddd" stroke-width="1" fill="none" />
<path d="M832,-80.0 L832,-112.0" stroke="#ddd" stroke-width="1" fill="none" />
<path d="M736,-112.0 L736,-144.0" stroke="#ddd" stroke-width="1" fill="none" />
<path d="M768,-112.0 L768,-144.0" stroke="#ddd" stroke-width="1" fill="none" />
<path d="M832,-112.0 L832,-144.0" stroke="#ddd" stroke-width="1" fill="none" />
<path d="M736,-144.0 L736,-176.0" stroke="#ddd" stroke-width="1" fill="none" />
<path d="M768,-144.0 L768,-176.0" stroke="#ddd" stroke-width="1" fill="none" />
<path d="M832,-144.0 L832,-176.0" stroke="#ddd" stroke-width="1" fill="none" />
<path d="M704,-144.0 L736,-144.0" stroke="#ddd" stroke-width="1" fill="none" />
<path d="M736,-144.0 L768,-144.0" stroke="#ddd" stroke-width="1" fill="none" />
<path d="M768,-144.0 L800,-144.0" stroke="#ddd" stroke-width="1" fill="none" />
<path d="M800,-144.0 L832,-144.0" stroke="#ddd" stroke-width="1" fill="none" />
<path d="M832,-144.0 L864,-144.0" stroke="#ddd" stroke-width="1" fill="none" />
<path d="M928,-64.0 L928,-96.0" stroke="#ddd" stroke-width="1" fill="none" />
<path d="M960,-64.0 L960,-96.0" stroke="#ddd" stroke-width="1" fill="none" />
<path d="M992,-64.0 L992,-96.0" stroke="#ddd" stroke-width="1" fill="none" />
<path d="M1024,-64.0 L1024,-96.0" stroke="#ddd" stroke-width="1" fill="none" />
<path d="M928,-96.0 L928,-128.0" stroke="#ddd" stroke-width="1" fill="none" />
<path d="M960,-96.0 L960,-128.0" stroke="#ddd" stroke-width="1" fill="none" />
<path d="M992,-96.0 L992,-128.0" stroke="#ddd" stroke-width="1" fill="none" />
<path d="M1024,-96.0 L1024,-128.0" stroke="#ddd" stroke-width="1" fill="none" />
<path d="M928,-128.0 L928,-160.0" stroke="#ddd" stroke-width="1" fill="none" />
<path d="M960,-128.0 L960,-160.0" stroke="#ddd" stroke-width="1" fill="none" />
<path d="M1024,-128.0 L1024,-160.0" stroke="#ddd" stroke-width="1" fill="none" />
<path d="M1120,-64.0 L1120,-96.0" stroke="#ddd" stroke-width="1" fill="none" />
<path d="M1120,-96.0 L1120,-128.0" stroke="#ddd" stroke-width="1" fill="none" />
<path d="M1120,-128.0 L1120,-160.0" stroke="#ddd" stroke-width="1" fill="none" />
<path d="M1088,-96.0 L1120,-96.0" stroke="#ddd" stroke-width="1" fill="none" />
<path d="M1120,-96.0 L1152,-96.0" stroke="#ddd" stroke-width="1" fill="none" />
<path d="M112.0,-13.524791385931955 A36.950417228136054,36.950417228136054,0,0,0,112.0,-50.47520861406802" stroke="grey" stroke-width="1" fill="none" marker-end="url(#d0)" />
<path d="M784.0,-162.47520861406804 A36.950417228136054,36.950417228136054,0,0,1,784.0,-125.52479138593196" stroke="grey" stroke-width="1" fill="none" marker-end="url(#d0)" />
<path d="M0,-0.0 L224,-0.0 L224,-224.0 L0,-224.0 Z" stroke="black" stroke-width="2" fill="none" />
<path d="M256,-16.0 L480,-16.0 L480,-208.0 L256,-208.0 Z" stroke="black" stroke-width="2" fill="none" />
<path d="M608,-16.0 L608,-48.0" stroke="black" stroke-width="2" fill="none" />
<path d="M608,-48.0 L608,-80.0" stroke="black" stroke-width="2" fill="none" />
<path d="M608,-80.0 L608,-112.0" stroke="black" stroke-width="2" fill="none" />
<path d="M608,-112.0 L608,-144.0" stroke="black" stroke-width="2" fill="none" />
<path d="M608,-144.0 L608,-176.0" stroke="black" stroke-width="2" fill="none" />
<path d="M608,-176.0 L608,-208.0" stroke="black" stroke-width="2" fill="none" />
<path d="M608,-48.0 L640,-48.0" stroke="black" stroke-width="2" fill="none" />
<path d="M640,-48.0 L672,-48.0" stroke="black" stroke-width="2" fill="none" />
<path d="M512,-16.0 L672,-16.0 L672,-208.0 L512,-208.0 Z" stroke="black" stroke-width="2" fill="none" />
<path d="M800,-112.0 L800,-144.0" stroke="black" stroke-width="2" fill="none" />
<path d="M800,-144.0 L800,-176.0" stroke="black" stroke-width="2" fill="none" />
<path d="M704,-80.0 L736,-80.0" stroke="black" stroke-width="2" fill="none" />
<path d="M736,-80.0 L768,-80.0" stroke="black" stroke-width="2" fill="none" />
<path d="M768,-80.0 L800,-80.0" stroke="black" stroke-width="2" fill="none" />
<path d="M800,-80.0 L832,-80.0" stroke="black" stroke-width="2" fill="none" />
<path d="M832,-80.0 L864,-80.0" stroke="black" stroke-width="2" fill="none" />
<path d="M704,-112.0 L736,-112.0" stroke="black" stroke-width="2" fill="none" />
<path d="M736,-112.0 L768,-112.0" stroke="black" stroke-width="2" fill="none" />
<path d="M768,-112.0 L800,-112.0" stroke="black" stroke-width="2" fill="none" />
<path d="M800,-112.0 L832,-112.0" stroke="black" stroke-width="2" fill="none" />
<path d="M832,-112.0 L864,-112.0" stroke="black" stroke-width="2" fill="none" />
<path d="M704,-48.0 L864,-48.0 L864,-176.0 L704,-176.0 Z" stroke="black" stroke-width="2" fill="none" />
<path d="M992,-128.0 L992,-160.0" stroke="black" stroke-width="2" fill="none" />
<path d="M896,-96.0 L928,-96.0" stroke="black" stroke-width="2" fill="none" />
<path d="M928,-96.0 L960,-96.0" stroke="black" stroke-width="2" fill="none" />
<path d="M960,-96.0 L992,-96.0" stroke="black" stroke-width="2" fill="none" />
<path d="M992,-96.0 L1024,-96.0" stroke="black" stroke-width="2" fill="none" />
<path d="M1024,-96.0 L1056,-96.0" stroke="black" stroke-width="2" fill="none" />
<path d="M896,-128.0 L928,-128.0" stroke="black" stroke-width="2" fill="none" />
<path d="M928,-128.0 L960,-128.0" stroke="black" stroke-width="2" fill="none" />
<path d="M960,-128.0 L992,-128.0" stroke="black" stroke-width="2" fill="none" />
<path d="M992,-128.0 L1024,-128.0" stroke="black" stroke-width="2" fill="none" />
<path d="M1024,-128.0 L1056,-128.0" stroke="black" stroke-width="2" fill="none" />
<path d="M896,-64.0 L1056,-64.0 L1056,-160.0 L896,-160.0 Z" stroke="black" stroke-width="2" fill="none" />
<path d="M1152,-64.0 L1152,-96.0" stroke="black" stroke-width="2" fill="none" />
<path d="M1152,-96.0 L1152,-128.0" stroke="black" stroke-width="2" fill="none" />
<path d="M1152,-128.0 L1152,-160.0" stroke="black" stroke-width="2" fill="none" />
<path d="M1152,-96.0 L1184,-96.0" stroke="black" stroke-width="2" fill="none" />
<path d="M1088,-128.0 L1120,-128.0" stroke="black" stroke-width="2" fill="none" />
<path d="M1120,-128.0 L1152,-128.0" stroke="black" stroke-width="2" fill="none" />
<path d="M1152,-128.0 L1184,-128.0" stroke="black" stroke-width="2" fill="none" />
<path d="M1088,-64.0 L1184,-64.0 L1184,-160.0 L1088,-160.0 Z" stroke="black" stroke-width="2" fill="none" />
<path d="M434.47520861406804,-112.0 A36.950417228136054,36.950417228136054,0,0,0,397.52479138593196,-112.0" stroke="black" stroke-width="1" fill="none" marker-end="url(#d1)" />
<path d="M592.0,-61.52479138593197 A36.950417228136054,36.950417228136054,0,0,1,592.0,-98.47520861406802" stroke="black" stroke-width="1" fill="none" marker-end="url(#d1)" />
<path d="M941.524791385932,-112.0 A36.950417228136054,36.950417228136054,0,0,1,978.475208614068,-112.0" stroke="black" stroke-width="1" fill="none" marker-end="url(#d1)" />
<path d="M0,-32.0 L224,-32.0" stroke="black" stroke-width="1" fill="none" stroke-dasharray="10 2 2 2" />
<path d="M416,-16.0 L416,-208.0" stroke="black" stroke-width="1" fill="none" stroke-dasharray="4" />
<path d="M512,-80.0 L672,-80.0" stroke="black" stroke-width="1" fill="none" stroke-dasharray="4" />
<path d="M704,-144.0 L864,-144.0" stroke="black" stroke-width="1" fill="none" stroke-dasharray="10 2 2 2" />
<path d="M960,-64.0 L960,-160.0" stroke="black" stroke-width="1" fill="none" stroke-dasharray="4" />
</svg>