<?xml version="1.0" encoding="UTF-8"?>
<svg xmlns="http://www.w3.org/2000/svg" xmlns:xlink="http://www.w3.org/1999/xlink"
     width="1089" height="225" viewBox="0 -225 1089 225">
<defs>
<marker markerWidth="4.0" markerHeight="4.0" viewBox="-0.1 -0.5 1.0 1.0" orient="auto" stroke="grey" id="d0">
<path d="M-0.1,0.5 L-0.1,-0.5 L0.9,0 Z" stroke-width="0.1" stroke="grey" fill="white" />
</marker>
<marker markerWidth="4.0" markerHeight="4.0" viewBox="-0.1 -0.5 1.0 1.0" orient="auto" id="d1">
<path d="M-0.1,0.5 L-0.1,-0.5 L0.9,0 Z" stroke-width="0.1" stroke="black" fill="black" />
</marker>
</defs>
<rect x="0" y="-33.0" width="33" height="33" fill="white" />
<rect x="32" y="-33.0" width="33" height="33" fill="white" />
<rect x="64" y="-33.0" width="33" height="33" fill="white" />
<rect x="96" y="-33.0" width="33" height="33" fill="white" />
<rect x="128" y="-33.0" width="33" height="33" fill="white" />
<rect x="160" y="-33.0" width="33" height="33" fill="white" />
<rect x="192" y="-33.0" width="33" height="33" fill="white" />
<rect x="0" y="-65.0" width="33" height="33" fill="white" />
<rect x="32" y="-65.0" width="33" height="33" fill="white" />
<rect x="64" y="-65.0" width="33" height="33" fill="white" />
<rect x="96" y="-65.0" width="33" height="33" fill="white" />
<rect x="128" y="-65.0" width="33" height="33" fill="white" />
<rect x="160" y="-65.0" width="33" height="33" fill="white" />
<rect x="192" y="-65.0" width="33" height="33" fill="white" />
<rect x="0" y="-97.0" width="33" height="33" fill="white" />
<rect x="32" y="-97.0" width="33" height="33" fill="white" />
<rect x="64" y="-97.0" width="33" height="33" fill="white" />
<rect x="96" y="-97.0" width="33" height="33" fill="white" />
<rect x="128" y="-97.0" width="33" height="33" fill="white" />
<rect x="160" y="-97.0" width="33" height="33" fill="white" />
<rect x="192" y="-97.0" width="33" height="33" fill="white" />
<rect x="0" y="-129.0" width="33" height="33" fill="white" />
<rect x="32" y="-129.0" width="33" height="33" fill="white" />
<rect x="64" y="-129.0" width="33" height="33" fill="white" />
<rect x="96" y="-129.0" width="33" height="33" fill="white" />
<rect x="128" y="-129.0" width="33" height="33" fill="white" />
<rect x="160" y="-129.0" width="33" height="33" fill="white" />
<rect x="192" y="-129.0" width="33" height="33" fill="white" />
<rect x="0" y="-161.0" width="33" height="33" fill="white" />
<rect x="32" y="-161.0" width="33" height="33" fill="white" />
<rect x="64" y="-161.0" width="33" height="33" fill="white" />
<rect x="96" y="-161.0" width="33" height="33" fill="white" />
<rect x="128" y="-161.0" width="33" height="33" fill="white" />
<rect x="160" y="-161.0" width="33" height="33" fill="white" />
<rect x="192" y="-161.0" width="33" height="33" fill="white" />
<rect x="0" y="-193.0" width="33" height="33" fill="white" />
<rect x="32" y="-193.0" width="33" height="33" fill="white" />
<rect x="64" y="-193.0" width="33" height="33" fill="white" />
<rect x="96" y="-193.0" width="33" height="33" fill="white" />
<rect x="128" y="-193.0" width="33" height="33" fill="white" />
<rect x="160" y="-193.0" width="33" height="33" fill="white" />
<rect x="192" y="-193.0" width="33" height="33" fill="white" />
<rect x="0" y="-225.0" width="33" height="33" fill="white" />
<rect x="32" y="-225.0" width="33" height="33" fill="white" />
<rect x="64" y="-225.0" width="33" height="33" fill="white" />
<rect x="96" y="-225.0" width="33" height="33" fill="white" />
<rect x="128" y="-225.0" width="33" height="33" fill="white" />
<rect x="160" y="-225.0" width="33" height="33" fill="white" />
<rect x="192" y="-225.0" width="33" height="33" fill="white" />
<rect x="256" y="-33.0" width="33" height="33" fill="white" />
<rect x="288" y="-33.0" width="33" height="33" fill="white" />
<rect x="320" y="-33.0" width="33" height="33" fill="white" />
<rect x="352" y="-33.0" width="33" height="33" fill="white" />
<rect x="384" y="-33.0" width="33" height="33" fill="white" />
<rect x="416" y="-33.0" width="33" height="33" fill="#bbb" />
<rect x="256" y="-65.0" width="33" height="33" fill="white" />
<rect x="288" y="-65.0" width="33" height="33" fill="white" />
<rect x="320" y="-65.0" width="33" height="33" fill="white" />
<rect x="352" y="-65.0" width="33" height="33" fill="white" />
<rect x="384" y="-65.0" width="33" height="33" fill="white" />
<rect x="416" y="-65.0" width="33" height="33" fill="#bbb" />
<rect x="256" y="-97.0" width="33" height="33" fill="white" />
<rect x="288" y="-97.0" width="33" height="33" fill="white" />
<rect x="320" y="-97.0" width="33" height="33" fill="white" />
<rect x="352" y="-97.0" width="33" height="33" fill="white" />
<rect x="384" y="-97.0" width="33" height="33" fill="white" />
<rect x="416" y="-97.0" width="33" height="33" fill="#bbb" />
<rect x="256" y="-129.0" width="33" height="33" fill="white" />
<rect x="288" y="-129.0" width="33" height="33" fill="white" />
<rect x="320" y="-129.0" width="33" height="33" fill="white" />
<rect x="352" y="-129.0" width="33" height="33" fill="white" />
<rect x="384" y="-129.0" width="33" height="33" fill="white" />
<rect x="416" y="-129.0" width="33" height="33" fill="#bbb" />
<rect x="256" y="-161.0" width="33" height="33" fill="white" />
<rect x="288" y="-161.0" width="33" height="33" fill="white" />
<rect x="320" y="-161.0" width="33" height="33" fill="white" />
<rect x="352" y="-161.0" width="33" height="33" fill="white" />
<rect x="384" y="-161.0" width="33" height="33" fill="white" />
<rect x="416" y="-161.0" width="33" height="33" fill="#bbb" />
<rect x="256" y="-193.0" width="33" height="33" fill="white" />
<rect x="288" y="-193.0" width="33" height="33" fill="white" />
<rect x="320" y="-193.0" width="33" height="33" fill="white" />
<rect x="352" y="-193.0" width="33" height="33" fill="white" />
<rect x="384" y="-193.0" width="33" height="33" fill="white" />
<rect x="416" y="-193.0" width="33" height="33" fill="#bbb" />
<rect x="256" y="-225.0" width="33" height="33" fill="white" />
<rect x="288" y="-225.0" width="33" height="33" fill="white" />
<rect x="320" y="-225.0" width="33" height="33" fill="white" />
<rect x="352" y="-225.0" width="33" height="33" fill="white" />
<rect x="384" y="-225.0" width="33" height="33" fill="white" />
<rect x="416" y="-225.0" width="33" height="33" fill="#bbb" />
<rect x="480" y="-65.0" width="33" height="33" fill="white" />
<rect x="512" y="-65.0" width="33" height="33" fill="white" />
<rect x="544" y="-65.0" width="33" height="33" fill="white" />
<rect x="576" y="-65.0" width="33" height="33" fill="white" />
<rect x="608" y="-65.0" width="33" height="33" fill="white" />
<rect x="640" y="-65.0" width="33" height="33" fill="#bbb" />
<rect x="480" y="-97.0" width="33" height="33" fill="white" />
<rect x="512" y="-97.0" width="33" height="33" fill="white" />
<rect x="544" y="-97.0" width="33" height="33" fill="white" />
<rect x="576" y="-97.0" width="33" height="33" fill="white" />
<rect x="608" y="-97.0" width="33" height="33" fill="white" />
<rect x="640" y="-97.0" width="33" height="33" fill="#bbb" />
<rect x="480" y="-129.0" width="33" height="33" fill="white" />
<rect x="512" y="-129.0" width="33" height="33" fill="white" />
<rect x="544" y="-129.0" width="33" height="33" fill="white" />
<rect x="576" y="-129.0" width="33" height="33" fill="white" />
<rect x="608" y="-129.0" width="33" height="33" fill="white" />
<rect x="640" y="-129.0" width="33" height="33" fill="#bbb" />
<rect x="480" y="-161.0" width="33" height="33" fill="white" />
<rect x="512" y="-161.0" width="33" height="33" fill="white" />
<rect x="544" y="-161.0" width="33" height="33" fill="white" />
<rect x="576" y="-161.0" width="33" height="33" fill="white" />
<rect x="608" y="-161.0" width="33" height="33" fill="white" />
<rect x="640" y="-161.0" width="33" height="33" fill="#bbb" />
<rect x="480" y="-193.0" width="33" height="33" fill="white" />
<rect x="512" y="-193.0" width="33" height="33" fill="white" />
<rect x="544" y="-193.0" width="33" height="33" fill="white" />
<rect x="576" y="-193.0" width="33" height="33" fill="white" />
<rect x="608" y="-193.0" width="33" height="33" fill="white" />
<rect x="640" y="-193.0" width="33" height="33" fill="#bbb" />
<rect x="704" y="-65.0" width="33" height="33" fill="white" />
<rect x="736" y="-65.0" width="33" height="33" fill="white" />
<rect x="768" y="-65.0" width="33" height="33" fill="white" />
<rect x="800" y="-65.0" width="33" height="33" fill="white" />
<rect x="704" y="-97.0" width="33" height="33" fill="white" />
<rect x="736" y="-97.0" width="33" height="33" fill="white" />
<rect x="768" y="-97.0" width="33" height="33" fill="white" />
<rect x="800" y="-97.0" width="33" height="33" fill="white" />
<rect x="704" y="-129.0" width="33" height="33" fill="white" />
<rect x="736" y="-129.0" width="33" height="33" fill="white" />
<rect x="768" y="-129.0" width="33" height="33" fill="white" />
<rect x="800" y="-129.0" width="33" height="33" fill="white" />
<rect x="704" y="-161.0" width="33" height="33" fill="white" />
<rect x="736" y="-161.0" width="33" height="33" fill="white" />
<rect x="768" y="-161.0" width="33" height="33" fill="white" />
<rect x="800" y="-161.0" width="33" height="33" fill="white" />
<rect x="704" y="-193.0" width="33" height="33" fill="white" />
<rect x="736" y="-193.0" width="33" height="33" fill="white" />
<rect x="768" y="-193.0" width="33" height="33" fill="white" />
<rect x="800" y="-193.0" width="33" height="33" fill="white" />
<rect x="864" y="-65.0" width="33" height="33" fill="white" />
<rect x="896" y="-65.0" width="33" height="33" fill="white" />
<rect x="928" y="-65.0" width="33" height="33" fill="white" />
<rect x="864" y="-97.0" width="33" height="33" fill="white" />
<rect x="896" y="-97.0" width="33" height="33" fill="white" />
<rect x="928" y="-97.0" width="33" height="33" fill="white" />
<rect x="864" y="-129.0" width="33" height="33" fill="#bbb" />
<rect x="896" y="-129.0" width="33" height="33" fill="white" />
<rect x="928" y="-129.0" width="33" height="33" fill="white" />
<rect x="864" y="-161.0" width="33" height="33" fill="#bbb" />
<rect x="896" y="-161.0" width="33" height="33" fill="white" />
<rect x="928" y="-161.0" width="33" height="33" fill="white" />
<rect x="864" y="-193.0" width="33" height="33" fill="#bbb" />
<rect x="896" y="-193.0" width="33" height="33" fill="white" />
<rect x="928" y="-193.0" width="33" height="33" fill="white" />
<rect x="992" y="-97.0" width="33" height="33" fill="white" />
<rect x="1024" y="-97.0" width="33" height="33" fill="#bbb" />
<rect x="1056" y="-97.0" width="33" height="33" fill="white" />
<rect x="992" y="-129.0" width="33" height="33" fill="white" />
<rect x="1024" y="-129.0" width="33" height="33" fill="#bbb" />
<rect x="1056" y="-129.0" width="33" height="33" fill="white" />
<rect x="992" y="-161.0" width="33" height="33" fill="#bbb" />
<rect x="1024" y="-161.0" width="33" height="33" fill="white" />
<rect x="1056" y="-161.0" width="33" height="33" fill="white" />
<path d="M32,-0.0 L32,-32.0" stroke="#ddd" stroke-width="1" fill="none" />
<path d="M64,-0.0 L64,-32.0" stroke="#ddd" stroke-width="1" fill="none" />
<path d="M96,-0.0 L96,-32.0" stroke="#ddd" stroke-width="1" fill="none" />
<path d="M128,-0.0 L128,-32.0" stroke="#ddd" stroke-width="1" fill="none" />
<path d="M160,-0.0 L160,-32.0" stroke="#ddd" stroke-width="1" fill="none" />
<path d="M192,-0.0 L192,-32.0" stroke="#ddd" stroke-width="1" fill="none" />
<path d="M32,-32.0 L32,-64.0" stroke="#ddd" stroke-width="1" fill="none" />
<path d="M64,-32.0 L64,-64.0" stroke="#ddd" stroke-width="1" fill="none" />
<path d="M96,-32.0 L96,-64.0" stroke="#ddd" stroke-width="1" fill="none" />
<path d="M128,-32.0 L128,-64.0" stroke="#ddd" stroke-width="1" fill="none" />
<path d="M160,-32.0 L160,-64.0" stroke="#ddd" stroke-width="1" fill="none" />
<path d="M192,-32.0 L192,-64.0" stroke="#ddd" stroke-width="1" fill="none" />
<path d="M32,-64.0 L32,-96.0" stroke="#ddd" stroke-width="1" fill="none" />
<path d="M64,-64.0 L64,-96.0" stroke="#ddd" stroke-width="1" fill="none" />
<path d="M96,-64.0 L96,-96.0" stroke="#ddd" stroke-width="1" fill="none" />
<path d="M128,-64.0 L128,-96.0" stroke="#ddd" stroke-width="1" fill="none" />
<path d="M160,-64.0 L160,-96.0" stroke="#ddd" stroke-width="1" fill="none" />
<path d="M192,-64.0 L192,-96.0" stroke="#ddd" stroke-width="1" fill="none" />
<path d="M32,-96.0 L32,-128.0" stroke="#ddd" stroke-width="1" fill="none" />
<path d="M64,-96.0 L64,-128.0" stroke="#ddd" stroke-width="1" fill="none" />
<path d="M96,-96.0 L96,-128.0" stroke="#ddd" stroke-width="1" fill="none" />
<path d="M128,-96.0 L128,-128.0" stroke="#ddd" stroke-width="1" fill="none" />
<path d="M160,-96.0 L160,-128.0" stroke="#ddd" stroke-width="1" fill="none" />
<path d="M192,-96.0 L192,-128.0" stroke="#ddd" stroke-width="1" fill="none" />
<path d="M32,-128.0 L32,-160.0" stroke="#ddd" stroke-width="1" fill="none" />
<path d="M64,-128.0 L64,-160.0" stroke="#ddd" stroke-width="1" fill="none" />
<path d="M96,-128.0 L96,-160.0" stroke="#ddd" stroke-width="1" fill="none" />
<path d="M128,-128.0 L128,-160.0" stroke="#ddd" stroke-width="1" fill="none" />
<path d="M160,-128.0 L160,-160.0" stroke="#ddd" stroke-width="1" fill="none" />
<path d="M192,-128.0 L192,-160.0" stroke="#ddd" stroke-width="1" fill="none" />
<path d="M32,-160.0 L32,-192.0" stroke="#ddd" stroke-width="1" fill="none" />
<path d="M64,-160.0 L64,-192.0" stroke="#ddd" stroke-width="1" fill="none" />
<path d="M96,-160.0 L96,-192.0" stroke="#ddd" stroke-width="1" fill="none" />
<path d="M128,-160.0 L128,-192.0" stroke="#ddd" stroke-width="1" fill="none" />
<path d="M160,-160.0 L160,-192.0" stroke="#ddd" stroke-width="1" fill="none" />
<path d="M192,-160.0 L192,-192.0" stroke="#ddd" stroke-width="1" fill="none" />
<path d="M32,-192.0 L32,-224.0" stroke="#ddd" stroke-width="1" fill="none" />
<path d="M64,-192.0 L64,-224.0" stroke="#ddd" stroke-width="1" fill="none" />
<path d="M96,-192.0 L96,-224.0" stroke="#ddd" stroke-width="1" fill="none" />
<path d="M128,-192.0 L128,-224.0" stroke="#ddd" stroke-width="1" fill="none" />
<path d="M160,-192.0 L160,-224.0" stroke="#ddd" stroke-width="1" fill="none" />
<path d="M192,-192.0 L192,-224.0" stroke="#ddd" stroke-width="1" fill="none" />
<path d="M0,-32.0 L32,-32.0" stroke="#ddd" stroke-width="1" fill="none" />
<path d="M32,-32.0 L64,-32.0" stroke="#ddd" stroke-width="1" fill="none" />
<path d="M64,-32.0 L96,-32.0" stroke="#ddd" stroke-width="1" fill="none" />
<path d="M96,-32.0 L128,-32.0" stroke="#ddd" stroke-width="1" fill="none" />
<path d="M128,-32.0 L160,-32.0" stroke="#ddd" stroke-width="1" fill="none" />
<path d="M160,-32.0 L192,-32.0" stroke="#ddd" stroke-width="1" fill="none" />
<path d="M192,-32.0 L224,-32.0" stroke="#ddd" stroke-width="1" fill="none" />
<path d="M0,-64.0 L32,-64.0" stroke="#ddd" stroke-width="1" fill="none" />
<path d="M32,-64.0 L64,-64.0" stroke="#ddd" stroke-width="1" fill="none" />
<path d="M64,-64.0 L96,-64.0" stroke="#ddd" stroke-width="1" fill="none" />
<path d="M96,-64.0 L128,-64.0" stroke="#ddd" stroke-width="1" fill="none" />
<path d="M128,-64.0 L160,-64.0" stroke="#ddd" stroke-width="1" fill="none" />
<path d="M160,-64.0 L192,-64.0" stroke="#ddd" stroke-width="1" fill="none" />
<path d="M192,-64.0 L224,-64.0" stroke="#ddd" stroke-width="1" fill="none" />
<path d="M0,-96.0 L32,-96.0" stroke="#ddd" stroke-width="1" fill="none" />
<path d="M32,-96.0 L64,-96.0" stroke="#ddd" stroke-width="1" fill="none" />
<path d="M64,-96.0 L96,-96.0" stroke="#ddd" stroke-width="1" fill="none" />
<path d="M96,-96.0 L128,-96.0" stroke="#ddd" stroke-width="1" fill="none" />
<path d="M128,-96.0 L160,-96.0" stroke="#ddd" stroke-width="1" fill="none" />
<path d="M160,-96.0 L192,-96.0" stroke="#ddd" stroke-width="1" fill="none" />
<path d="M192,-96.0 L224,-96.0" stroke="#ddd" stroke-width="1" fill="none" />
<path d="M0,-128.0 L32,-128.0" stroke="#ddd" stroke-width="1" fill="none" />
<path d="M32,-128.0 L64,-128.0" stroke="#ddd" stroke-width="1" fill="none" />
<path d="M64,-128.0 L96,-128.0" stroke="#ddd" stroke-width="1" fill="none" />
<path d="M96,-128.0 L128,-128.0" stroke="#ddd" stroke-width="1" fill="none" />
<path d="M128,-128.0 L160,-128.0" stroke="#ddd" stroke-width="1" fill="none" />
<path d="M160,-128.0 L192,-128.0" stroke="#ddd" stroke-width="1" fill="none" />
<path d="M192,-128.0 L224,-128.0" stroke="#ddd" stroke-width="1" fill="none" />
<path d="M0,-160.0 L32,-160.0" stroke="#ddd" stroke-width="1" fill="none" />
<path d="M32,-160.0 L64,-160.0" stroke="#ddd" stroke-width="1" fill="none" />
<path d="M64,-160.0 L96,-160.0" stroke="#ddd" stroke-width="1" fill="none" />
<path d="M96,-160.0 L128,-160.0" stroke="#ddd" stroke-width="1" fill="none" />
<path d="M128,-160.0 L160,-160.0" stroke="#ddd" stroke-width="1" fill="none" />
<path d="M160,-160.0 L192,-160.0" stroke="#ddd" stroke-width="1" fill="none" />
<path d="M192,-160.0 L224,-160.0" stroke="#ddd" stroke-width="1" fill="none" />
<path d="M0,-192.0 L32,-192.0" stroke="#ddd" stroke-width="1" fill="none" />
<path d="M32,-192.0 L64,-192.0" stroke="#ddd" stroke-width="1" fill="none" />
<path d="M64,-192.0 L96,-192.0" stroke="#ddd" stroke-width="1" fill="none" />
<path d="M96,-192.0 L128,-192.0" stroke="#ddd" stroke-width="1" fill="none" />
<path d="M128,-192.0 L160,-192.0" stroke="#ddd" stroke-width="1" fill="none" />
<path d="M160,-192.0 L192,-192.0" stroke="#ddd" stroke-width="1" fill="none" />
<path d="M192,-192.0 L224,-192.0" stroke="#ddd" stroke-width="1" fill="none" />
<path d="M288,-0.0 L288,-32.0" stroke="#ddd" stroke-width="1" fill="none" />
<path d="M320,-0.0 L320,-32.0" stroke="#ddd" stroke-width="1" fill="none" />
<path d="M352,-0.0 L352,-32.0" stroke="#ddd" stroke-width="1" fill="none" />
<path d="M384,-0.0 L384,-32.0" stroke="#ddd" stroke-width="1" fill="none" />
<path d="M288,-32.0 L288,-64.0" stroke="#ddd" stroke-width="1" fill="none" />
<path d="M320,-32.0 L320,-64.0" stroke="#ddd" stroke-width="1" fill="none" />
<path d="M352,-32.0 L352,-64.0" stroke="#ddd" stroke-width="1" fill="none" />
<path d="M384,-32.0 L384,-64.0" stroke="#ddd" stroke-width="1" fill="none" />
<path d="M288,-64.0 L288,-96.0" stroke="#ddd" stroke-width="1" fill="none" />
<path d="M320,-64.0 L320,-96.0" stroke="#ddd" stroke-width="1" fill="none" />
<path d="M352,-64.0 L352,-96.0" stroke="#ddd" stroke-width="1" fill="none" />
<path d="M384,-64.0 L384,-96.0" stroke="#ddd" stroke-width="1" fill="none" />
<path d="M288,-96.0 L288,-128.0" stroke="#ddd" stroke-width="1" fill="none" />
<path d="M320,-96.0 L320,-128.0" stroke="#ddd" stroke-width="1" fill="none" />
<path d="M352,-96.0 L352,-128.0" stroke="#ddd" stroke-width="1" fill="none" />
<path d="M384,-96.0 L384,-128.0" stroke="#ddd" stroke-width="1" fill="none" />
<path d="M288,-128.0 L288,-160.0" stroke="#ddd" stroke-width="1" fill="none" />
<path d="M320,-128.0 L320,-160.0" stroke="#ddd" stroke-width="1" fill="none" />
<path d="M352,-128.0 L352,-160.0" stroke="#ddd" stroke-width="1" fill="none" />
<path d="M384,-128.0 L384,-160.0" stroke="#ddd" stroke-width="1" fill="none" />
<path d="M288,-160.0 L288,-192.0" stroke="#ddd" stroke-width="1" fill="none" />
<path d="M320,-160.0 L320,-192.0" stroke="#ddd" stroke-width="1" fill="none" />
<path d="M352,-160.0 L352,-192.0" stroke="#ddd" stroke-width="1" fill="none" />
<path d="M384,-160.0 L384,-192.0" stroke="#ddd" stroke-width="1" fill="none" />
<path d="M288,-192.0 L288,-224.0" stroke="#ddd" stroke-width="1" fill="none" />
<path d="M320,-192.0 L320,-224.0" stroke="#ddd" stroke-width="1" fill="none" />
<path d="M352,-192.0 L352,-224.0" stroke="#ddd" stroke-width="1" fill="none" />
<path d="M384,-192.0 L384,-224.0" stroke="#ddd" stroke-width="1" fill="none" />
<path d="M256,-32.0 L288,-32.0" stroke="#ddd" stroke-width="1" fill="none" />
<path d="M288,-32.0 L320,-32.0" stroke="#ddd" stroke-width="1" fill="none" />
<path d="M320,-32.0 L352,-32.0" stroke="#ddd" stroke-width="1" fill="none" />
<path d="M352,-32.0 L384,-32.0" stroke="#ddd" stroke-width="1" fill="none" />
<path d="M384,-32.0 L416,-32.0" stroke="#ddd" stroke-width="1" fill="none" />
<path d="M416,-32.0 L448,-32.0" stroke="#ddd" stroke-width="1" fill="none" />
<path d="M256,-64.0 L288,-64.0" stroke="#ddd" stroke-width="1" fill="none" />
<path d="M288,-64.0 L320,-64.0" stroke="#ddd" stroke-width="1" fill="none" />
<path d="M320,-64.0 L352,-64.0" stroke="#ddd" stroke-width="1" fill="none" />
<path d="M352,-64.0 L384,-64.0" stroke="#ddd" stroke-width="1" fill="none" />
<path d="M384,-64.0 L416,-64.0" stroke="#ddd" stroke-width="1" fill="none" />
<path d="M416,-64.0 L448,-64.0" stroke="#ddd" stroke-width="1" fill="none" />
<path d="M256,-96.0 L288,-96.0" stroke="#ddd" stroke-width="1" fill="none" />
<path d="M288,-96.0 L320,-96.0" stroke="#ddd" stroke-width="1" fill="none" />
<path d="M320,-96.0 L352,-96.0" stroke="#ddd" stroke-width="1" fill="none" />
<path d="M352,-96.0 L384,-96.0" stroke="#ddd" stroke-width="1" fill="none" />
<path d="M384,-96.0 L416,-96.0" stroke="#ddd" stroke-width="1" fill="none" />
<path d="M416,-96.0 L448,-96.0" stroke="#ddd" stroke-width="1" fill="none" />
<path d="M256,-128.0 L288,-128.0" stroke="#ddd" stroke-width="1" fill="none" />
<path d="M288,-128.0 L320,-128.0" stroke="#ddd" stroke-width="1" fill="none" />
<path d="M320,-128.0 L352,-128.0" stroke="#ddd" stroke-width="1" fill="none" />
<path d="M352,-128.0 L384,-128.0" stroke="#ddd" stroke-width="1" fill="none" />
<path d="M384,-128.0 L416,-128.0" stroke="#ddd" stroke-width="1" fill="none" />
<path d="M416,-128.0 L448,-128.0" stroke="#ddd" stroke-width="1" fill="none" />
<path d="M256,-160.0 L288,-160.0" stroke="#ddd" stroke-width="1" fill="none" />
<path d="M288,-160.0 L320,-160.0" stroke="#ddd" stroke-width="1" fill="none" />
<path d="M320,-160.0 L352,-160.0" stroke="#ddd" stroke-width="1" fill="none" />
<path d="M352,-160.0 L384,-160.0" stroke="#ddd" stroke-width="1" fill="none" />
<path d="M384,-160.0 L416,-160.0" stroke="#ddd" stroke-width="1" fill="none" />
<path d="M416,-160.0 L448,-160.0" stroke="#ddd" stroke-width="1" fill="none" />
<path d="M256,-192.0 L288,-192.0" stroke="#ddd" stroke-width="1" fill="none" />
<path d="M288,-192.0 L320,-192.0" stroke="#ddd" stroke-width="1" fill="none" />
<path d="M320,-192.0 L352,-192.0" stroke="#ddd" stroke-width="1" fill="none" />
<path d="M352,-192.0 L384,-192.0" stroke="#ddd" stroke-width="1" fill="none" />
<path d="M384,-192.0 L416,-192.0" stroke="#ddd" stroke-width="1" fill="none" />
<path d="M416,-192.0 L448,-192.0" stroke="#ddd" stroke-width="1" fill="none" />
<path d="M512,-32.0 L512,-64.0" stroke="#ddd" stroke-width="1" fill="none" />
<path d="M544,-32.0 L544,-64.0" stroke="#ddd" stroke-width="1" fill="none" />
<path d="M576,-32.0 L576,-64.0" stroke="#ddd" stroke-width="1" fill="none" />
<path d="M608,-32.0 L608,-64.0" stroke="#ddd" stroke-width="1" fill="none" />
<path d="M512,-64.0 L512,-96.0" stroke="#ddd" stroke-width="1" fill="none" />
<path d="M544,-64.0 L544,-96.0" stroke="#ddd" stroke-width="1" fill="none" />
<path d="M576,-64.0 L576,-96.0" stroke="#ddd" stroke-width="1" fill="none" />
<path d="M608,-64.0 L608,-96.0" stroke="#ddd" stroke-width="1" fill="none" />
<path d="M512,-96.0 L512,-128.0" stroke="#ddd" stroke-width="1" fill="none" />
<path d="M544,-96.0 L544,-128.0" stroke="#ddd" stroke-width="1" fill="none" />
<path d="M576,-96.0 L576,-128.0" stroke="#ddd" stroke-width="1" fill="none" />
<path d="M608,-96.0 L608,-128.0" stroke="#ddd" stroke-width="1" fill="none" />
<path d="M512,-128.0 L512,-160.0" stroke="#ddd" stroke-width="1" fill="none" />
<path d="M544,-128.0 L544,-160.0" stroke="#ddd" stroke-width="1" fill="none" />
<path d="M576,-128.0 L576,-160.0" stroke="#ddd" stroke-width="1" fill="none" />
<path d="M608,-128.0 L608,-160.0" stroke="#ddd" stroke-width="1" fill="none" />
<path d="M512,-160.0 L512,-192.0" stroke="#ddd" stroke-width="1" fill="none" />
<path d="M544,-160.0 L544,-192.0" stroke="#ddd" stroke-width="1" fill="none" />
<path d="M576,-160.0 L576,-192.0" stroke="#ddd" stroke-width="1" fill="none" />
<path d="M608,-160.0 L608,-192.0" stroke="#ddd" stroke-width="1" fill="none" />
<path d="M480,-64.0 L512,-64.0" stroke="#ddd" stroke-width="1" fill="none" />
<path d="M512,-64.0 L544,-64.0" stroke="#ddd" stroke-width="1" fill="none" />
<path d="M544,-64.0 L576,-64.0" stroke="#ddd" stroke-width="1" fill="none" />
<path d="M576,-64.0 L608,-64.0" stroke="#ddd" stroke-width="1" fill="none" />
<path d="M608,-64.0 L640,-64.0" stroke="#ddd" stroke-width="1" fill="none" />
<path d="M640,-64.0 L672,-64.0" stroke="#ddd" stroke-width="1" fill="none" />
<path d="M480,-96.0 L512,-96.0" stroke="#ddd" stroke-width="1" fill="none" />
<path d="M512,-96.0 L544,-96.0" stroke="#ddd" stroke-width="1" fill="none" />
<path d="M544,-96.0 L576,-96.0" stroke="#ddd" stroke-width="1" fill="none" />
<path d="M576,-96.0 L608,-96.0" stroke="#ddd" stroke-width="1" fill="none" />
<path d="M608,-96.0 L640,-96.0" stroke="#ddd" stroke-width="1" fill="none" />
<path d="M640,-96.0 L672,-96.0" stroke="#ddd" stroke-width="1" fill="none" />
<path d="M480,-128.0 L512,-128.0" stroke="#ddd" stroke-width="1" fill="none" />
<path d="M512,-128.0 L544,-128.0" stroke="#ddd" stroke-width="1" fill="none" />
<path d="M544,-128.0 L576,-128.0" stroke="#ddd" stroke-width="1" fill="none" />
<path d="M576,-128.0 L608,-128.0" stroke="#ddd" stroke-width="1" fill="none" />
<path d="M608,-128.0 L640,-128.0" stroke="#ddd" stroke-width="1" fill="none" />
<path d="M640,-128.0 L672,-128.0" stroke="#ddd" stroke-width="1" fill="none" />
<path d="M480,-160.0 L512,-160.0" stroke="#ddd" stroke-width="1" fill="none" />
<path d="M512,-160.0 L544,-160.0" stroke="#ddd" stroke-width="1" fill="none" />
<path d="M544,-160.0 L576,-160.0" stroke="#ddd" stroke-width="1" fill="none" />
<path d="M576,-160.0 L608,-160.0" stroke="#ddd" stroke-width="1" fill="none" />
<path d="M608,-160.0 L640,-160.0" stroke="#ddd" stroke-width="1" fill="none" />
<path d="M640,-160.0 L672,-160.0" stroke="#ddd" stroke-width="1" fill="none" />
<path d="M736,-32.0 L736,-64.0" stroke="#ddd" stroke-width="1" fill="none" />
<path d="M768,-32.0 L768,-64.0" stroke="#ddd" stroke-width="1" fill="none" />
<path d="M800,-32.0 L800,-64.0" stroke="#ddd" stroke-width="1" fill="none" />
<path d="M736,-64.0 L736,-96.0" stroke="#ddd" stroke-width="1" fill="none" />
<path d="M768,-64.0 L768,-96.0" stroke="#ddd" stroke-width="1" fill="none" />
<path d="M800,-64.0 L800,-96.0" stroke="#ddd" stroke-width="1" fill="none" />
<path d="M736,-96.0 L736,-128.0" stroke="#ddd" stroke-width="1" fill="none" />
<path d="M768,-96.0 L768,-128.0" stroke="#ddd" stroke-width="1" fill="none" />
<path d="M800,-96.0 L800,-128.0" stroke="#ddd" stroke-width="1" fill="none" />
<path d="M736,-128.0 L736,-160.0" stroke="#ddd" stroke-width="1" fill="none" />
<path d="M768,-128.0 L768,-160.0" stroke="#ddd" stroke-width="1" fill="none" />
<path d="M800,-128.0 L800,-160.0" stroke="#ddd" stroke-width="1" fill="none" />
<path d="M736,-160.0 L736,-192.0" stroke="#ddd" stroke-width="1" fill="none" />
<path d="M768,-160.0 L768,-192.0" stroke="#ddd" stroke-width="1" fill="none" />
<path d="M800,-160.0 L800,-192.0" stroke="#ddd" stroke-width="1" fill="none" />
<path d="M704,-64.0 L736,-64.0" stroke="#ddd" stroke-width="1" fill="none" />
<path d="M736,-64.0 L768,-64.0" stroke="#ddd" stroke-width="1" fill="none" />
<path d="M768,-64.0 L800,-64.0" stroke="#ddd" stroke-width="1" fill="none" />
<path d="M800,-64.0 L832,-64.0" stroke="#ddd" stroke-width="1" fill="none" />
<path d="M704,-96.0 L736,-96.0" stroke="#ddd" stroke-width="1" fill="none" />
<path d="M736,-96.0 L768,-96.0" stroke="#ddd" stroke-width="1" fill="none" />
<path d="M768,-96.0 L800,-96.0" stroke="#ddd" stroke-width="1" fill="none" />
<path d="M800,-96.0 L832,-96.0" stroke="#ddd" stroke-width="1" fill="none" />
<path d="M704,-128.0 L736,-128.0" stroke="#ddd" stroke-width="1" fill="none" />
<path d="M736,-128.0 L768,-128.0" stroke="#ddd" stroke-width="1" fill="none" />
<path d="M768,-128.0 L800,-128.0" stroke="#ddd" stroke-width="1" fill="none" />
<path d="M800,-128.0 L832,-128.0" stroke="#ddd" stroke-width="1" fill="none" />
<path d="M704,-160.0 L736,-160.0" stroke="#ddd" stroke-width="1" fill="none" />
<path d="M736,-160.0 L768,-160.0" stroke="#ddd" stroke-width="1" fill="none" />
<path d="M768,-160.0 L800,-160.0" stroke="#ddd" stroke-width="1" fill="none" />
<path d="M800,-160.0 L832,-160.0" stroke="#ddd" stroke-width="1" fill="none" />
<path d="M928,-32.0 L928,-64.0" stroke="#ddd" stroke-width="1" fill="none" />
<path d="M928,-64.0 L928,-96.0" stroke="#ddd" stroke-width="1" fill="none" />
<path d="M928,-96.0 L928,-128.0" stroke="#ddd" stroke-width="1" fill="none" />
<path d="M928,-128.0 L928,-160.0" stroke="#ddd" stroke-width="1" fill="none" />
<path d="M928,-160.0 L928,-192.0" stroke="#ddd" stroke-width="1" fill="none" />
<path d="M864,-64.0 L896,-64.0" stroke="#ddd" stroke-width="1" fill="none" />
<path d="M896,-64.0 L928,-64.0" stroke="#ddd" stroke-width="1" fill="none" />
<path d="M928,-64.0 L960,-64.0" stroke="#ddd" stroke-width="1" fill="none" />
<path d="M896,-96.0 L928,-96.0" stroke="#ddd" stroke-width="1" fill="none" />
<path d="M928,-96.0 L960,-96.0" stroke="#ddd" stroke-width="1" fill="none" />
<path d="M864,-128.0 L896,-128.0" stroke="#ddd" stroke-width="1" fill="none" />
<path d="M896,-128.0 L928,-128.0" stroke="#ddd" stroke-width="1" fill="none" />
<path d="M928,-128.0 L960,-128.0" stroke="#ddd" stroke-width="1" fill="none" />
<path d="M864,-160.0 L896,-160.0" stroke="#ddd" stroke-width="1" fill="none" />
<path d="M896,-160.0 L928,-160.0" stroke="#ddd" stroke-width="1" fill="none" />
<path d="M928,-160.0 L960,-160.0" stroke="#ddd" stroke-width="1" fill="none" />
<path d="M1056,-128.0 L1056,-160.0" stroke="#ddd" stroke-width="1" fill="none" />
<path d="M992,-96.0 L1024,-96.0" stroke="#ddd" stroke-width="1" fill="none" />
<path d="M1024,-96.0 L1056,-96.0" stroke="#ddd" stroke-width="1" fill="none" />
<path d="M1056,-96.0 L1088,-96.0" stroke="#ddd" stroke-width="1" fill="none" />
<path d="M352.0,-45.524791385931955 A36.950417228136054,36.950417228136054,0,0,0,352.0,-82.47520861406802" stroke="grey" stroke-width="1" fill="none" marker-end="url(#d0)" />
<path d="M626.475208614068,-112.0 A36.950417228136054,36.950417228136054,0,0,1,589.524791385932,-112.0" stroke="grey" stroke-width="1" fill="none" marker-end="url(#d0)" />
<path d="M0,-0.0 L224,-0.0 L224,-224.0 L0,-224.0 Z" stroke="black" stroke-width="2" fill="none" />
<path d="M416,-0.0 L416,-32.0" stroke="black" stroke-width="2" fill="none" />
<path d="M416,-32.0 L416,-64.0" stroke="black" stroke-width="2" fill="none" />
<path d="M416,-64.0 L416,-96.0" stroke="black" stroke-width="2" fill="none" />
<path d="M416,-96.0 L416,-128.0" stroke="black" stroke-width="2" fill="none" />
<path d="M416,-128.0 L416,-160.0" stroke="black" stroke-width="2" fill="none" />
<path d="M416,-160.0 L416,-192.0" stroke="black" stroke-width="2" fill="none" />
<path d="M416,-192.0 L416,-224.0" stroke="black" stroke-width="2" fill="none" />
<path d="M256,-0.0 L448,-0.0 L448,-224.0 L256,-224.0 Z" stroke="black" stroke-width="2" fill="none" />
<path d="M640,-32.0 L640,-64.0" stroke="black" stroke-width="2" fill="none" />
<path d="M640,-64.0 L640,-96.0" stroke="black" stroke-width="2" fill="none" />
<path d="M640,-96.0 L640,-128.0" stroke="black" stroke-width="2" fill="none" />
<path d="M640,-128.0 L640,-160.0" stroke="black" stroke-width="2" fill="none" />
<path d="M640,-160.0 L640,-192.0" stroke="black" stroke-width="2" fill="none" />
<path d="M480,-32.0 L672,-32.0 L672,-192.0 L480,-192.0 Z" stroke="black" stroke-width="2" fill="none" />
<path d="M704,-32.0 L832,-32.0 L832,-192.0 L704,-192.0 Z" stroke="black" stroke-width="2" fill="none" />
<path d="M896,-32.0 L896,-64.0" stroke="black" stroke-width="2" fill="none" />
<path d="M896,-64.0 L896,-96.0" stroke="black" stroke-width="2" fill="none" />
<path d="M896,-96.0 L896,-128.0" stroke="black" stroke-width="2" fill="none" />
<path d="M896,-128.0 L896,-160.0" stroke="black" stroke-width="2" fill="none" />
<path d="M896,-160.0 L896,-192.0" stroke="black" stroke-width="2" fill="none" />
<path d="M864,-96.0 L896,-96.0" stroke="black" stroke-width="2" fill="none" />
<path d="M864,-32.0 L960,-32.0 L960,-192.0 L864,-192.0 Z" stroke="black" stroke-width="2" fill="none" />
<path d="M1024,-64.0 L1024,-96.0" stroke="black" stroke-width="2" fill="none" />
<path d="M1056,-64.0 L1056,-96.0" stroke="black" stroke-width="2" fill="none" />
<path d="M1024,-96.0 L1024,-128.0" stroke="black" stroke-width="2" fill="none" />
<path d="M1056,-96.0 L1056,-128.0" stroke="black" stroke-width="2" fill="none" />
<path d="M1024,-128.0 L1024,-160.0" stroke="black" stroke-width="2" fill="none" />
<path d="M992,-128.0 L1024,-128.0" stroke="black" stroke-width="2" fill="none" />
<path d="M1024,-128.0 L1056,-128.0" stroke="black" stroke-width="2" fill="none" />
<path d="M1056,-128.0 L1088,-128.0" stroke="black" stroke-width="2" fill="none" />
<path d="M992,-64.0 L1088,-64.0 L1088,-160.0 L992,-160.0 Z" stroke="black" stroke-width="2" fill="none" />
<path d="M210.47520861406804,-112.0 A36.950417228136054,36.950417228136054,0,0,0,173.524791385932,-112.0" stroke="black" stroke-width="1" fill="none" marker-end="url(#d1)" />
<path d="M717.524791385932,-112.0 A36.950417228136054,36.950417228136054,0,0,1,754.475208614068,-112.0" stroke="black" stroke-width="1" fill="none" marker-end="url(#d1)" />
<path d="M912.0,-77.52479138593196 A36.950417228136054,36.950417228136054,0,0,1,912.0,-114.47520861406802" stroke="black" stroke-width="1" fill="none" marker-end="url(#d1)" />
<path d="M192,-0.0 L192,-224.0" stroke="black" stroke-width="1" fill="none" stroke-dasharray="4" />
<path d="M256,-64.0 L448,-64.0" stroke="black" stroke-width="1" fill="none" stroke-dasharray="10 2 2 2" />
<path d="M608,-32.0 L608,-192.0" stroke="black" stroke-width="1" fill="none" stroke-dasharray="10 2 2 2" />
<path d="M736,-32.0 L736,-192.0" stroke="black" stroke-width="1" fill="none" stroke-dasharray="4" />
<path d="M864,-96.0 L960,-96.0" stroke="black" stroke-width="1" fill="none" stroke-dasharray="4" />
</svg>