<?xml version="1.0" encoding="UTF-8"?>
<svg xmlns="http://www.w3.org/2000/svg" xmlns:xlink="http://www.w3.org/1999/xlink"
     width="1153" height="193" viewBox="0 -193 1153 193">
<defs>
<marker markerWidth="4.0" markerHeight="4.0" viewBox="-0.1 -0.5 1.0 1.0" orient="auto" stroke="grey" id="d0">
<path d="M-0.1,0.5 L-0.1,-0.5 L0.9,0 Z" stroke-width="0.1" stroke="grey" fill="white" />
</marker>
<marker markerWidth="4.0" markerHeight="4.0" viewBox="-0.1 -0.5 1.0 1.0" orient="auto" id="d1">
<path d="M-0.1,0.5 L-0.1,-0.5 L0.9,0 Z" stroke-width="0.1" stroke="black" fill="black" />
</marker>
</defs>
<rect x="0" y="-33.0" width="33" height="33" fill="#bbb" />
<rect x="32" y="-33.0" width="33" height="33" fill="#bbb" />
<rect x="64" y="-33.0" width="33" height="33" fill="#bbb" />
<rect x="96" y="-33.0" width="33" height="33" fill="#bbb" />
<rect x="128" y="-33.0" width="33" height="33" fill="#bbb" />
<rect x="160" y="-33.0" width="33" height="33" fill="#bbb" />
<rect x="0" y="-65.0" width="33" height="33" fill="#bbb" />
<rect x="32" y="-65.0" width="33" height="33" fill="#bbb" />
<rect x="64" y="-65.0" width="33" height="33" fill="#bbb" />
<rect x="96" y="-65.0" width="33" height="33" fill="#bbb" />
<rect x="128" y="-65.0" width="33" height="33" fill="#bbb" />
<rect x="160" y="-65.0" width="33" height="33" fill="#bbb" />
<rect x="0" y="-97.0" width="33" height="33" fill="#bbb" />
<rect x="32" y="-97.0" width="33" height="33" fill="#bbb" />
<rect x="64" y="-97.0" width="33" height="33" fill="#bbb" />
<rect x="96" y="-97.0" width="33" height="33" fill="#bbb" />
<rect x="128" y="-97.0" width="33" height="33" fill="#bbb" />
<rect x="160" y="-97.0" width="33" height="33" fill="#bbb" />
<rect x="0" y="-129.0" width="33" height="33" fill="#bbb" />
<rect x="32" y="-129.0" width="33" height="33" fill="#bbb" />
<rect x="64" y="-129.0" width="33" height="33" fill="#bbb" />
<rect x="96" y="-129.0" width="33" height="33" fill="#bbb" />
<rect x="128" y="-129.0" width="33" height="33" fill="#bbb" />
<rect x="160" y="-129.0" width="33" height="33" fill="#bbb" />
<rect x="0" y="-161.0" width="33" height="33" fill="#bbb" />
<rect x="32" y="-161.0" width="33" height="33" fill="#bbb" />
<rect x="64" y="-161.0" width="33" height="33" fill="#bbb" />
<rect x="96" y="-161.0" width="33" height="33" fill="#bbb" />
<rect x="128" y="-161.0" width="33" height="33" fill="#bbb" />
<rect x="160" y="-161.0" width="33" height="33" fill="#bbb" />
<rect x="0" y="-193.0" width="33" height="33" fill="#bbb" />
<rect x="32" y="-193.0" width="33" height="33" fill="#bbb" />
<rect x="64" y="-193.0" width="33" height="33" fill="#bbb" />
<rect x="96" y="-193.0" width="33" height="33" fill="#bbb" />
<rect x="128" y="-193.0" width="33" height="33" fill="#bbb" />
<rect x="160" y="-193.0" width="33" height="33" fill="#bbb" />
<rect x="224" y="-49.0" width="33" height="33" fill="#bbb" />
<rect x="256" y="-49.0" width="33" height="33" fill="#bbb" />
<rect x="288" y="-49.0" width="33" height="33" fill="#bbb" />
<rect x="320" y="-49.0" width="33" height="33" fill="#bbb" />
<rect x="352" y="-49.0" width="33" height="33" fill="#bbb" />
<rect x="384" y="-49.0" width="33" height="33" fill="#bbb" />
<rect x="224" y="-81.0" width="33" height="33" fill="#bbb" />
<rect x="256" y="-81.0" width="33" height="33" fill="#bbb" />
<rect x="288" y="-81.0" width="33" height="33" fill="#bbb" />
<rect x="320" y="-81.0" width="33" height="33" fill="#bbb" />
<rect x="352" y="-81.0" width="33" height="33" fill="#bbb" />
<rect x="384" y="-81.0" width="33" height="33" fill="#bbb" />
<rect x="224" y="-113.0" width="33" height="33" fill="#bbb" />
<rect x="256" y="-113.0" width="33" height="33" fill="#bbb" />
<rect x="288" y="-113.0" width="33" height="33" fill="#bbb" />
<rect x="320" y="-113.0" width="33" height="33" fill="#bbb" />
<rect x="352" y="-113.0" width="33" height="33" fill="#bbb" />
<rect x="384" y="-113.0" width="33" height="33" fill="#bbb" />
<rect x="224" y="-145.0" width="33" height="33" fill="#bbb" />
<rect x="256" y="-145.0" width="33" height="33" fill="#bbb" />
<rect x="288" y="-145.0" width="33" height="33" fill="#bbb" />
<rect x="320" y="-145.0" width="33" height="33" fill="#bbb" />
<rect x="352" y="-145.0" width="33" height="33" fill="#bbb" />
<rect x="384" y="-145.0" width="33" height="33" fill="#bbb" />
<rect x="224" y="-177.0" width="33" height="33" fill="white" />
<rect x="256" y="-177.0" width="33" height="33" fill="white" />
<rect x="288" y="-177.0" width="33" height="33" fill="white" />
<rect x="320" y="-177.0" width="33" height="33" fill="white" />
<rect x="352" y="-177.0" width="33" height="33" fill="white" />
<rect x="384" y="-177.0" width="33" height="33" fill="white" />
<rect x="448" y="-65.0" width="33" height="33" fill="white" />
<rect x="480" y="-65.0" width="33" height="33" fill="white" />
<rect x="512" y="-65.0" width="33" height="33" fill="white" />
<rect x="544" y="-65.0" width="33" height="33" fill="white" />
<rect x="576" y="-65.0" width="33" height="33" fill="white" />
<rect x="608" y="-65.0" width="33" height="33" fill="white" />
<rect x="448" y="-97.0" width="33" height="33" fill="#bbb" />
<rect x="480" y="-97.0" width="33" height="33" fill="#bbb" />
<rect x="512" y="-97.0" width="33" height="33" fill="#bbb" />
<rect x="544" y="-97.0" width="33" height="33" fill="#bbb" />
<rect x="576" y="-97.0" width="33" height="33" fill="#bbb" />
<rect x="608" y="-97.0" width="33" height="33" fill="#bbb" />
<rect x="448" y="-129.0" width="33" height="33" fill="#bbb" />
<rect x="480" y="-129.0" width="33" height="33" fill="#bbb" />
<rect x="512" y="-129.0" width="33" height="33" fill="#bbb" />
<rect x="544" y="-129.0" width="33" height="33" fill="#bbb" />
<rect x="576" y="-129.0" width="33" height="33" fill="#bbb" />
<rect x="608" y="-129.0" width="33" height="33" fill="#bbb" />
<rect x="448" y="-161.0" width="33" height="33" fill="white" />
<rect x="480" y="-161.0" width="33" height="33" fill="white" />
<rect x="512" y="-161.0" width="33" height="33" fill="white" />
<rect x="544" y="-161.0" width="33" height="33" fill="white" />
<rect x="576" y="-161.0" width="33" height="33" fill="white" />
<rect x="608" y="-161.0" width="33" height="33" fill="white" />
<rect x="672" y="-65.0" width="33" height="33" fill="white" />
<rect x="704" y="-65.0" width="33" height="33" fill="white" />
<rect x="736" y="-65.0" width="33" height="33" fill="white" />
<rect x="768" y="-65.0" width="33" height="33" fill="white" />
<rect x="800" y="-65.0" width="33" height="33" fill="white" />
<rect x="672" y="-97.0" width="33" height="33" fill="#bbb" />
<rect x="704" y="-97.0" width="33" height="33" fill="#bbb" />
<rect x="736" y="-97.0" width="33" height="33" fill="#bbb" />
<rect x="768" y="-97.0" width="33" height="33" fill="#bbb" />
<rect x="800" y="-97.0" width="33" height="33" fill="#bbb" />
<rect x="672" y="-129.0" width="33" height="33" fill="#bbb" />
<rect x="704" y="-129.0" width="33" height="33" fill="#bbb" />
<rect x="736" y="-129.0" width="33" height="33" fill="#bbb" />
<rect x="768" y="-129.0" width="33" height="33" fill="#bbb" />
<rect x="800" y="-129.0" width="33" height="33" fill="#bbb" />
<rect x="672" y="-161.0" width="33" height="33" fill="white" />
<rect x="704" y="-161.0" width="33" height="33" fill="white" />
<rect x="736" y="-161.0" width="33" height="33" fill="white" />
<rect x="768" y="-161.0" width="33" height="33" fill="white" />
<rect x="800" y="-161.0" width="33" height="33" fill="white" />
<rect x="864" y="-81.0" width="33" height="33" fill="white" />
<rect x="896" y="-81.0" width="33" height="33" fill="white" />
<rect x="928" y="-81.0" width="33" height="33" fill="white" />
<rect x="960" y="-81.0" width="33" height="33" fill="white" />
<rect x="992" y="-81.0" width="33" height="33" fill="white" />
<rect x="864" y="-113.0" width="33" height="33" fill="#bbb" />
<rect x="896" y="-113.0" width="33" height="33" fill="#bbb" />
<rect x="928" y="-113.0" width="33" height="33" fill="#bbb" />
<rect x="960" y="-113.0" width="33" height="33" fill="#bbb" />
<rect x="992" y="-113.0" width="33" height="33" fill="#bbb" />
<rect x="864" y="-145.0" width="33" height="33" fill="white" />
<rect x="896" y="-145.0" width="33" height="33" fill="white" />
<rect x="928" y="-145.0" width="33" height="33" fill="white" />
<rect x="960" y="-145.0" width="33" height="33" fill="white" />
<rect x="992" y="-145.0" width="33" height="33" fill="white" />
<rect x="1056" y="-81.0" width="33" height="33" fill="white" />
<rect x="1088" y="-81.0" width="33" height="33" fill="white" />
<rect x="1120" y="-81.0" width="33" height="33" fill="white" />
<rect x="1056" y="-113.0" width="33" height="33" fill="#bbb" />
<rect x="1088" y="-113.0" width="33" height="33" fill="#bbb" />
<rect x="1120" y="-113.0" width="33" height="33" fill="white" />
<rect x="1056" y="-145.0" width="33" height="33" fill="white" />
<rect x="1088" y="-145.0" width="33" height="33" fill="#bbb" />
<rect x="1120" y="-145.0" width="33" height="33" fill="white" />
<path d="M32,-0.0 L32,-32.0" stroke="#ddd" stroke-width="1" fill="none" />
<path d="M64,-0.0 L64,-32.0" stroke="#ddd" stroke-width="1" fill="none" />
<path d="M96,-0.0 L96,-32.0" stroke="#ddd" stroke-width="1" fill="none" />
<path d="M128,-0.0 L128,-32.0" stroke="#ddd" stroke-width="1" fill="none" />
<path d="M160,-0.0 L160,-32.0" stroke="#ddd" stroke-width="1" fill="none" />
<path d="M32,-32.0 L32,-64.0" stroke="#ddd" stroke-width="1" fill="none" />
<path d="M64,-32.0 L64,-64.0" stroke="#ddd" stroke-width="1" fill="none" />
<path d="M96,-32.0 L96,-64.0" stroke="#ddd" stroke-width="1" fill="none" />
<path d="M128,-32.0 L128,-64.0" stroke="#ddd" stroke-width="1" fill="none" />
<path d="M160,-32.0 L160,-64.0" stroke="#ddd" stroke-width="1" fill="none" />
<path d="M32,-64.0 L32,-96.0" stroke="#ddd" stroke-width="1" fill="none" />
<path d="M64,-64.0 L64,-96.0" stroke="#ddd" stroke-width="1" fill="none" />
<path d="M96,-64.0 L96,-96.0" stroke="#ddd" stroke-width="1" fill="none" />
<path d="M128,-64.0 L128,-96.0" stroke="#ddd" stroke-width="1" fill="none" />
<path d="M160,-64.0 L160,-96.0" stroke="#ddd" stroke-width="1" fill="none" />
<path d="M32,-96.0 L32,-128.0" stroke="#ddd" stroke-width="1" fill="none" />
<path d="M64,-96.0 L64,-128.0" stroke="#ddd" stroke-width="1" fill="none" />
<path d="M96,-96.0 L96,-128.0" stroke="#ddd" stroke-width="1" fill="none" />
<path d="M128,-96.0 L128,-128.0" stroke="#ddd" stroke-width="1" fill="none" />
<path d="M160,-96.0 L160,-128.0" stroke="#ddd" stroke-width="1" fill="none" />
<path d="M32,-128.0 L32,-160.0" stroke="#ddd" stroke-width="1" fill="none" />
<path d="M64,-128.0 L64,-160.0" stroke="#ddd" stroke-width="1" fill="none" />
<path d="M96,-128.0 L96,-160.0" stroke="#ddd" stroke-width="1" fill="none" />
<path d="M128,-128.0 L128,-160.0" stroke="#ddd" stroke-width="1" fill="none" />
<path d="M160,-128.0 L160,-160.0" stroke="#ddd" stroke-width="1" fill="none" />
<path d="M32,-160.0 L32,-192.0" stroke="#ddd" stroke-width="1" fill="none" />
<path d="M64,-160.0 L64,-192.0" stroke="#ddd" stroke-width="1" fill="none" />
<path d="M96,-160.0 L96,-192.0" stroke="#ddd" stroke-width="1" fill="none" />
<path d="M128,-160.0 L128,-192.0" stroke="#ddd" stroke-width="1" fill="none" />
<path d="M160,-160.0 L160,-192.0" stroke="#ddd" stroke-width="1" fill="none" />
<path d="M0,-32.0 L32,-32.0" stroke="#ddd" stroke-width="1" fill="none" />
<path d="M32,-32.0 L64,-32.0" stroke="#ddd" stroke-width="1" fill="none" />
<path d="M64,-32.0 L96,-32.0" stroke="#ddd" stroke-width="1" fill="none" />
<path d="M96,-32.0 L128,-32.0" stroke="#ddd" stroke-width="1" fill="none" />
<path d="M128,-32.0 L160,-32.0" stroke="#ddd" stroke-width="1" fill="none" />
<path d="M160,-32.0 L192,-32.0" stroke="#ddd" stroke-width="1" fill="none" />
<path d="M0,-64.0 L32,-64.0" stroke="#ddd" stroke-width="1" fill="none" />
<path d="M32,-64.0 L64,-64.0" stroke="#ddd" stroke-width="1" fill="none" />
<path d="M64,-64.0 L96,-64.0" stroke="#ddd" stroke-width="1" fill="none" />
<path d="M96,-64.0 L128,-64.0" stroke="#ddd" stroke-width="1" fill="none" />
<path d="M128,-64.0 L160,-64.0" stroke="#ddd" stroke-width="1" fill="none" />
<path d="M160,-64.0 L192,-64.0" stroke="#ddd" stroke-width="1" fill="none" />
<path d="M0,-96.0 L32,-96.0" stroke="#ddd" stroke-width="1" fill="none" />
<path d="M32,-96.0 L64,-96.0" stroke="#ddd" stroke-width="1" fill="none" />
<path d="M64,-96.0 L96,-96.0" stroke="#ddd" stroke-width="1" fill="none" />
<path d="M96,-96.0 L128,-96.0" stroke="#ddd" stroke-width="1" fill="none" />
<path d="M128,-96.0 L160,-96.0" stroke="#ddd" stroke-width="1" fill="none" />
<path d="M160,-96.0 L192,-96.0" stroke="#ddd" stroke-width="1" fill="none" />
<path d="M0,-128.0 L32,-128.0" stroke="#ddd" stroke-width="1" fill="none" />
<path d="M32,-128.0 L64,-128.0" stroke="#ddd" stroke-width="1" fill="none" />
<path d="M64,-128.0 L96,-128.0" stroke="#ddd" stroke-width="1" fill="none" />
<path d="M96,-128.0 L128,-128.0" stroke="#ddd" stroke-width="1" fill="none" />
<path d="M128,-128.0 L160,-128.0" stroke="#ddd" stroke-width="1" fill="none" />
<path d="M160,-128.0 L192,-128.0" stroke="#ddd" stroke-width="1" fill="none" />
<path d="M0,-160.0 L32,-160.0" stroke="#ddd" stroke-width="1" fill="none" />
<path d="M32,-160.0 L64,-160.0" stroke="#ddd" stroke-width="1" fill="none" />
<path d="M64,-160.0 L96,-160.0" stroke="#ddd" stroke-width="1" fill="none" />
<path d="M96,-160.0 L128,-160.0" stroke="#ddd" stroke-width="1" fill="none" />
<path d="M128,-160.0 L160,-160.0" stroke="#ddd" stroke-width="1" fill="none" />
<path d="M160,-160.0 L192,-160.0" stroke="#ddd" stroke-width="1" fill="none" />
<path d="M256,-16.0 L256,-48.0" stroke="#ddd" stroke-width="1" fill="none" />
<path d="M288,-16.0 L288,-48.0" stroke="#ddd" stroke-width="1" fill="none" />
<path d="M320,-16.0 L320,-48.0" stroke="#ddd" stroke-width="1" fill="none" />
<path d="M352,-16.0 L352,-48.0" stroke="#ddd" stroke-width="1" fill="none" />
<path d="M384,-16.0 L384,-48.0" stroke="#ddd" stroke-width="1" fill="none" />
<path d="M256,-48.0 L256,-80.0" stroke="#ddd" stroke-width="1" fill="none" />
<path d="M288,-48.0 L288,-80.0" stroke="#ddd" stroke-width="1" fill="none" />
<path d="M320,-48.0 L320,-80.0" stroke="#ddd" stroke-width="1" fill="none" />
<path d="M352,-48.0 L352,-80.0" stroke="#ddd" stroke-width="1" fill="none" />
<path d="M384,-48.0 L384,-80.0" stroke="#ddd" stroke-width="1" fill="none" />
<path d="M256,-80.0 L256,-112.0" stroke="#ddd" stroke-width="1" fill="none" />
<path d="M288,-80.0 L288,-112.0" stroke="#ddd" stroke-width="1" fill="none" />
<path d="M320,-80.0 L320,-112.0" stroke="#ddd" stroke-width="1" fill="none" />
<path d="M352,-80.0 L352,-112.0" stroke="#ddd" stroke-width="1" fill="none" />
<path d="M384,-80.0 L384,-112.0" stroke="#ddd" stroke-width="1" fill="none" />
<path d="M256,-112.0 L256,-144.0" stroke="#ddd" stroke-width="1" fill="none" />
<path d="M288,-112.0 L288,-144.0" stroke="#ddd" stroke-width="1" fill="none" />
<path d="M320,-112.0 L320,-144.0" stroke="#ddd" stroke-width="1" fill="none" />
<path d="M352,-112.0 L352,-144.0" stroke="#ddd" stroke-width="1" fill="none" />
<path d="M384,-112.0 L384,-144.0" stroke="#ddd" stroke-width="1" fill="none" />
<path d="M256,-144.0 L256,-176.0" stroke="#ddd" stroke-width="1" fill="none" />
<path d="M288,-144.0 L288,-176.0" stroke="#ddd" stroke-width="1" fill="none" />
<path d="M320,-144.0 L320,-176.0" stroke="#ddd" stroke-width="1" fill="none" />
<path d="M352,-144.0 L352,-176.0" stroke="#ddd" stroke-width="1" fill="none" />
<path d="M384,-144.0 L384,-176.0" stroke="#ddd" stroke-width="1" fill="none" />
<path d="M224,-48.0 L256,-48.0" stroke="#ddd" stroke-width="1" fill="none" />
<path d="M256,-48.0 L288,-48.0" stroke="#ddd" stroke-width="1" fill="none" />
<path d="M288,-48.0 L320,-48.0" stroke="#ddd" stroke-width="1" fill="none" />
<path d="M320,-48.0 L352,-48.0" stroke="#ddd" stroke-width="1" fill="none" />
<path d="M352,-48.0 L384,-48.0" stroke="#ddd" stroke-width="1" fill="none" />
<path d="M384,-48.0 L416,-48.0" stroke="#ddd" stroke-width="1" fill="none" />
<path d="M224,-80.0 L256,-80.0" stroke="#ddd" stroke-width="1" fill="none" />
<path d="M256,-80.0 L288,-80.0" stroke="#ddd" stroke-width="1" fill="none" />
<path d="M288,-80.0 L320,-80.0" stroke="#ddd" stroke-width="1" fill="none" />
<path d="M320,-80.0 L352,-80.0" stroke="#ddd" stroke-width="1" fill="none" />
<path d="M352,-80.0 L384,-80.0" stroke="#ddd" stroke-width="1" fill="none" />
<path d="M384,-80.0 L416,-80.0" stroke="#ddd" stroke-width="1" fill="none" />
<path d="M224,-112.0 L256,-112.0" stroke="#ddd" stroke-width="1" fill="none" />
<path d="M256,-112.0 L288,-112.0" stroke="#ddd" stroke-width="1" fill="none" />
<path d="M288,-112.0 L320,-112.0" stroke="#ddd" stroke-width="1" fill="none" />
<path d="M320,-112.0 L352,-112.0" stroke="#ddd" stroke-width="1" fill="none" />
<path d="M352,-112.0 L384,-112.0" stroke="#ddd" stroke-width="1" fill="none" />
<path d="M384,-112.0 L416,-112.0" stroke="#ddd" stroke-width="1" fill="none" />
<path d="M480,-32.0 L480,-64.0" stroke="#ddd" stroke-width="1" fill="none" />
<path d="M512,-32.0 L512,-64.0" stroke="#ddd" stroke-width="1" fill="none" />
<path d="M544,-32.0 L544,-64.0" stroke="#ddd" stroke-width="1" fill="none" />
<path d="M576,-32.0 L576,-64.0" stroke="#ddd" stroke-width="1" fill="none" />
<path d="M608,-32.0 L608,-64.0" stroke="#ddd" stroke-width="1" fill="none" />
<path d="M480,-64.0 L480,-96.0" stroke="#ddd" stroke-width="1" fill="none" />
<path d="M512,-64.0 L512,-96.0" stroke="#ddd" stroke-width="1" fill="none" />
<path d="M544,-64.0 L544,-96.0" stroke="#ddd" stroke-width="1" fill="none" />
<path d="M576,-64.0 L576,-96.0" stroke="#ddd" stroke-width="1" fill="none" />
<path d="M608,-64.0 L608,-96.0" stroke="#ddd" stroke-width="1" fill="none" />
<path d="M480,-96.0 L480,-128.0" stroke="#ddd" stroke-width="1" fill="none" />
<path d="M512,-96.0 L512,-128.0" stroke="#ddd" stroke-width="1" fill="none" />
<path d="M544,-96.0 L544,-128.0" stroke="#ddd" stroke-width="1" fill="none" />
<path d="M576,-96.0 L576,-128.0" stroke="#ddd" stroke-width="1" fill="none" />
<path d="M608,-96.0 L608,-128.0" stroke="#ddd" stroke-width="1" fill="none" />
<path d="M480,-128.0 L480,-160.0" stroke="#ddd" stroke-width="1" fill="none" />
<path d="M512,-128.0 L512,-160.0" stroke="#ddd" stroke-width="1" fill="none" />
<path d="M544,-128.0 L544,-160.0" stroke="#ddd" stroke-width="1" fill="none" />
<path d="M576,-128.0 L576,-160.0" stroke="#ddd" stroke-width="1" fill="none" />
<path d="M608,-128.0 L608,-160.0" stroke="#ddd" stroke-width="1" fill="none" />
<path d="M448,-96.0 L480,-96.0" stroke="#ddd" stroke-width="1" fill="none" />
<path d="M480,-96.0 L512,-96.0" stroke="#ddd" stroke-width="1" fill="none" />
<path d="M512,-96.0 L544,-96.0" stroke="#ddd" stroke-width="1" fill="none" />
<path d="M544,-96.0 L576,-96.0" stroke="#ddd" stroke-width="1" fill="none" />
<path d="M576,-96.0 L608,-96.0" stroke="#ddd" stroke-width="1" fill="none" />
<path d="M608,-96.0 L640,-96.0" stroke="#ddd" stroke-width="1" fill="none" />
<path d="M704,-32.0 L704,-64.0" stroke="#ddd" stroke-width="1" fill="none" />
<path d="M736,-32.0 L736,-64.0" stroke="#ddd" stroke-width="1" fill="none" />
<path d="M768,-32.0 L768,-64.0" stroke="#ddd" stroke-width="1" fill="none" />
<path d="M800,-32.0 L800,-64.0" stroke="#ddd" stroke-width="1" fill="none" />
<path d="M704,-64.0 L704,-96.0" stroke="#ddd" stroke-width="1" fill="none" />
<path d="M736,-64.0 L736,-96.0" stroke="#ddd" stroke-width="1" fill="none" />
<path d="M768,-64.0 L768,-96.0" stroke="#ddd" stroke-width="1" fill="none" />
<path d="M800,-64.0 L800,-96.0" stroke="#ddd" stroke-width="1" fill="none" />
<path d="M704,-96.0 L704,-128.0" stroke="#ddd" stroke-width="1" fill="none" />
<path d="M736,-96.0 L736,-128.0" stroke="#ddd" stroke-width="1" fill="none" />
<path d="M768,-96.0 L768,-128.0" stroke="#ddd" stroke-width="1" fill="none" />
<path d="M800,-96.0 L800,-128.0" stroke="#ddd" stroke-width="1" fill="none" />
<path d="M704,-128.0 L704,-160.0" stroke="#ddd" stroke-width="1" fill="none" />
<path d="M736,-128.0 L736,-160.0" stroke="#ddd" stroke-width="1" fill="none" />
<path d="M768,-128.0 L768,-160.0" stroke="#ddd" stroke-width="1" fill="none" />
<path d="M800,-128.0 L800,-160.0" stroke="#ddd" stroke-width="1" fill="none" />
<path d="M672,-96.0 L704,-96.0" stroke="#ddd" stroke-width="1" fill="none" />
<path d="M704,-96.0 L736,-96.0" stroke="#ddd" stroke-width="1" fill="none" />
<path d="M736,-96.0 L768,-96.0" stroke="#ddd" stroke-width="1" fill="none" />
<path d="M768,-96.0 L800,-96.0" stroke="#ddd" stroke-width="1" fill="none" />
<path d="M800,-96.0 L832,-96.0" stroke="#ddd" stroke-width="1" fill="none" />
<path d="M896,-48.0 L896,-80.0" stroke="#ddd" stroke-width="1" fill="none" />
<path d="M928,-48.0 L928,-80.0" stroke="#ddd" stroke-width="1" fill="none" />
<path d="M960,-48.0 L960,-80.0" stroke="#ddd" stroke-width="1" fill="none" />
<path d="M992,-48.0 L992,-80.0" stroke="#ddd" stroke-width="1" fill="none" />
<path d="M896,-80.0 L896,-112.0" stroke="#ddd" stroke-width="1" fill="none" />
<path d="M928,-80.0 L928,-112.0" stroke="#ddd" stroke-width="1" fill="none" />
<path d="M960,-80.0 L960,-112.0" stroke="#ddd" stroke-width="1" fill="none" />
<path d="M992,-80.0 L992,-112.0" stroke="#ddd" stroke-width="1" fill="none" />
<path d="M896,-112.0 L896,-144.0" stroke="#ddd" stroke-width="1" fill="none" />
<path d="M928,-112.0 L928,-144.0" stroke="#ddd" stroke-width="1" fill="none" />
<path d="M960,-112.0 L960,-144.0" stroke="#ddd" stroke-width="1" fill="none" />
<path d="M1120,-80.0 L1152,-80.0" stroke="#ddd" stroke-width="1" fill="none" />
<path d="M1088,-112.0 L1120,-112.0" stroke="#ddd" stroke-width="1" fill="none" />
<path d="M1120,-112.0 L1152,-112.0" stroke="#ddd" stroke-width="1" fill="none" />
<path d="M626.475208614068,-96.0 A36.950417228136054,36.950417228136054,0,0,1,589.524791385932,-96.0" stroke="grey" stroke-width="1" fill="none" marker-end="url(#d0)" />
<path d="M0,-0.0 L192,-0.0 L192,-192.0 L0,-192.0 Z" stroke="black" stroke-width="2" fill="none" />
<path d="M224,-144.0 L256,-144.0" stroke="black" stroke-width="2" fill="none" />
<path d="M256,-144.0 L288,-144.0" stroke="black" stroke-width="2" fill="none" />
<path d="M288,-144.0 L320,-144.0" stroke="black" stroke-width="2" fill="none" />
<path d="M320,-144.0 L352,-144.0" stroke="black" stroke-width="2" fill="none" />
<path d="M352,-144.0 L384,-144.0" stroke="black" stroke-width="2" fill="none" />
<path d="M384,-144.0 L416,-144.0" stroke="black" stroke-width="2" fill="none" />
<path d="M224,-16.0 L416,-16.0 L416,-176.0 L224,-176.0 Z" stroke="black" stroke-width="2" fill="none" />
<path d="M448,-64.0 L480,-64.0" stroke="black" stroke-width="2" fill="none" />
<path d="M480,-64.0 L512,-64.0" stroke="black" stroke-width="2" fill="none" />
<path d="M512,-64.0 L544,-64.0" stroke="black" stroke-width="2" fill="none" />
<path d="M544,-64.0 L576,-64.0" stroke="black" stroke-width="2" fill="none" />
<path d="M576,-64.0 L608,-64.0" stroke="black" stroke-width="2" fill="none" />
<path d="M608,-64.0 L640,-64.0" stroke="black" stroke-width="2" fill="none" />
<path d="M448,-128.0 L480,-128.0" stroke="black" stroke-width="2" fill="none" />
<path d="M480,-128.0 L512,-128.0" stroke="black" stroke-width="2" fill="none" />
<path d="M512,-128.0 L544,-128.0" stroke="black" stroke-width="2" fill="none" />
<path d="M544,-128.0 L576,-128.0" stroke="black" stroke-width="2" fill="none" />
<path d="M576,-128.0 L608,-128.0" stroke="black" stroke-width="2" fill="none" />
<path d="M608,-128.0 L640,-128.0" stroke="black" stroke-width="2" fill="none" />
<path d="M448,-32.0 L640,-32.0 L640,-160.0 L448,-160.0 Z" stroke="black" stroke-width="2" fill="none" />
<path d="M672,-64.0 L704,-64.0" stroke="black" stroke-width="2" fill="none" />
<path d="M704,-64.0 L736,-64.0" stroke="black" stroke-width="2" fill="none" />
<path d="M736,-64.0 L768,-64.0" stroke="black" stroke-width="2" fill="none" />
<path d="M768,-64.0 L800,-64.0" stroke="black" stroke-width="2" fill="none" />
<path d="M800,-64.0 L832,-64.0" stroke="black" stroke-width="2" fill="none" />
<path d="M672,-128.0 L704,-128.0" stroke="black" stroke-width="2" fill="none" />
<path d="M704,-128.0 L736,-128.0" stroke="black" stroke-width="2" fill="none" />
<path d="M736,-128.0 L768,-128.0" stroke="black" stroke-width="2" fill="none" />
<path d="M768,-128.0 L800,-128.0" stroke="black" stroke-width="2" fill="none" />
<path d="M800,-128.0 L832,-128.0" stroke="black" stroke-width="2" fill="none" />
<path d="M672,-32.0 L832,-32.0 L832,-160.0 L672,-160.0 Z" stroke="black" stroke-width="2" fill="none" />
<path d="M992,-112.0 L992,-144.0" stroke="black" stroke-width="2" fill="none" />
<path d="M864,-80.0 L896,-80.0" stroke="black" stroke-width="2" fill="none" />
<path d="M896,-80.0 L928,-80.0" stroke="black" stroke-width="2" fill="none" />
<path d="M928,-80.0 L960,-80.0" stroke="black" stroke-width="2" fill="none" />
<path d="M960,-80.0 L992,-80.0" stroke="black" stroke-width="2" fill="none" />
<path d="M992,-80.0 L1024,-80.0" stroke="black" stroke-width="2" fill="none" />
<path d="M864,-112.0 L896,-112.0" stroke="black" stroke-width="2" fill="none" />
<path d="M896,-112.0 L928,-112.0" stroke="black" stroke-width="2" fill="none" />
<path d="M928,-112.0 L960,-112.0" stroke="black" stroke-width="2" fill="none" />
<path d="M960,-112.0 L992,-112.0" stroke="black" stroke-width="2" fill="none" />
<path d="M992,-112.0 L1024,-112.0" stroke="black" stroke-width="2" fill="none" />
<path d="M864,-48.0 L1024,-48.0 L1024,-144.0 L864,-144.0 Z" stroke="black" stroke-width="2" fill="none" />
<path d="M1088,-48.0 L1088,-80.0" stroke="black" stroke-width="2" fill="none" />
<path d="M1120,-48.0 L1120,-80.0" stroke="black" stroke-width="2" fill="none" />
<path d="M1088,-80.0 L1088,-112.0" stroke="black" stroke-width="2" fill="none" />
<path d="M1120,-80.0 L1120,-112.0" stroke="black" stroke-width="2" fill="none" />
<path d="M1088,-112.0 L1088,-144.0" stroke="black" stroke-width="2" fill="none" />
<path d="M1120,-112.0 L1120,-144.0" stroke="black" stroke-width="2" fill="none" />
<path d="M1056,-80.0 L1088,-80.0" stroke="black" stroke-width="2" fill="none" />
<path d="M1088,-80.0 L1120,-80.0" stroke="black" stroke-width="2" fill="none" />
<path d="M1056,-112.0 L1088,-112.0" stroke="black" stroke-width="2" fill="none" />
<path d="M1056,-48.0 L1152,-48.0 L1152,-144.0 L1056,-144.0 Z" stroke="black" stroke-width="2" fill="none" />
<path d="M96.0,-178.47520861406804 A36.950417228136054,36.950417228136054,0,0,0,96.0,-141.52479138593196" stroke="black" stroke-width="1" fill="none" marker-end="url(#d1)" />
<path d="M320.0,-29.52479138593197 A36.950417228136054,36.950417228136054,0,0,1,320.0,-66.47520861406802" stroke="black" stroke-width="1" fill="none" marker-end="url(#d1)" />
<path d="M752.0,-146.47520861406804 A36.950417228136054,36.950417228136054,0,0,0,752.0,-109.52479138593196" stroke="black" stroke-width="1" fill="none" marker-end="url(#d1)" />
<path d="M978.475208614068,-96.0 A36.950417228136054,36.950417228136054,0,0,0,941.524791385932,-96.0" stroke="black" stroke-width="1" fill="none" marker-end="url(#d1)" />
<path d="M0,-160.0 L192,-160.0" stroke="black" stroke-width="1" fill="none" stroke-dasharray="4" />
<path d="M224,-48.0 L416,-48.0" stroke="black" stroke-width="1" fill="none" stroke-dasharray="4" />
<path d="M608,-32.0 L608,-160.0" stroke="black" stroke-width="1" fill="none" stroke-dasharray="10 2 2 2" />
<path d="M672,-128.0 L832,-128.0" stroke="black" stroke-width="1" fill="none" stroke-dasharray="4" />
<path d="M960,-48.0 L960,-144.0" stroke="black" stroke-width="1" fill="none" stroke-dasharray="4" />
</svg>