<?xml version="1.0" encoding="UTF-8"?>
<svg xmlns="http://www.w3.org/2000/svg" xmlns:xlink="http://www.w3.org/1999/xlink"
     width="993" height="193" viewBox="0 -193 993 193">
<defs>
<marker markerWidth="4.0" markerHeight="4.0" viewBox="-0.1 -0.5 1.0 1.0" orient="auto" stroke="grey" id="d0">
<path d="M-0.1,0.5 L-0.1,-0.5 L0.9,0 Z" stroke-width="0.1" stroke="grey" fill="white" />
</marker>
<marker markerWidth="4.0" markerHeight="4.0" viewBox="-0.1 -0.5 1.0 1.0" orient="auto" id="d1">
<path d="M-0.1,0.5 L-0.1,-0.5 L0.9,0 Z" stroke-width="0.1" stroke="black" fill="black" />
</marker>
</defs>
<rect x="0" y="-33.0" width="33" height="33" fill="#bbb" />
<rect x="32" y="-33.0" width="33" height="33" fill="#bbb" />
<rect x="64" y="-33.0" width="33" height="33" fill="#bbb" />
<rect x="96" y="-33.0" width="33" height="33" fill="#bbb" />
<rect x="128" y="-33.0" width="33" height="33" fill="#bbb" />
<rect x="160" y="-33.0" width="33" height="33" fill="#bbb" />
<rect x="0" y="-65.0" width="33" height="33" fill="#bbb" />
<rect x="32" y="-65.0" width="33" height="33" fill="#bbb" />
<rect x="64" y="-65.0" width="33" height="33" fill="#bbb" />
<rect x="96" y="-65.0" width="33" height="33" fill="#bbb" />
<rect x="128" y="-65.0" width="33" height="33" fill="#bbb" />
<rect x="160" y="-65.0" width="33" height="33" fill="#bbb" />
<rect x="0" y="-97.0" width="33" height="33" fill="#bbb" />
<rect x="32" y="-97.0" width="33" height="33" fill="#bbb" />
<rect x="64" y="-97.0" width="33" height="33" fill="#bbb" />
<rect x="96" y="-97.0" width="33" height="33" fill="#bbb" />
<rect x="128" y="-97.0" width="33" height="33" fill="#bbb" />
<rect x="160" y="-97.0" width="33" height="33" fill="#bbb" />
<rect x="0" y="-129.0" width="33" height="33" fill="#bbb" />
<rect x="32" y="-129.0" width="33" height="33" fill="#bbb" />
<rect x="64" y="-129.0" width="33" height="33" fill="#bbb" />
<rect x="96" y="-129.0" width="33" height="33" fill="#bbb" />
<rect x="128" y="-129.0" width="33" height="33" fill="#bbb" />
<rect x="160" y="-129.0" width="33" height="33" fill="#bbb" />
<rect x="0" y="-161.0" width="33" height="33" fill="#bbb" />
<rect x="32" y="-161.0" width="33" height="33" fill="#bbb" />
<rect x="64" y="-161.0" width="33" height="33" fill="#bbb" />
<rect x="96" y="-161.0" width="33" height="33" fill="#bbb" />
<rect x="128" y="-161.0" width="33" height="33" fill="#bbb" />
<rect x="160" y="-161.0" width="33" height="33" fill="#bbb" />
<rect x="0" y="-193.0" width="33" height="33" fill="#bbb" />
<rect x="32" y="-193.0" width="33" height="33" fill="#bbb" />
<rect x="64" y="-193.0" width="33" height="33" fill="#bbb" />
<rect x="96" y="-193.0" width="33" height="33" fill="#bbb" />
<rect x="128" y="-193.0" width="33" height="33" fill="#bbb" />
<rect x="160" y="-193.0" width="33" height="33" fill="#bbb" />
<rect x="224" y="-33.0" width="33" height="33" fill="white" />
<rect x="256" y="-33.0" width="33" height="33" fill="#bbb" />
<rect x="288" y="-33.0" width="33" height="33" fill="#bbb" />
<rect x="320" y="-33.0" width="33" height="33" fill="#bbb" />
<rect x="352" y="-33.0" width="33" height="33" fill="#bbb" />
<rect x="224" y="-65.0" width="33" height="33" fill="white" />
<rect x="256" y="-65.0" width="33" height="33" fill="#bbb" />
<rect x="288" y="-65.0" width="33" height="33" fill="#bbb" />
<rect x="320" y="-65.0" width="33" height="33" fill="#bbb" />
<rect x="352" y="-65.0" width="33" height="33" fill="#bbb" />
<rect x="224" y="-97.0" width="33" height="33" fill="white" />
<rect x="256" y="-97.0" width="33" height="33" fill="#bbb" />
<rect x="288" y="-97.0" width="33" height="33" fill="#bbb" />
<rect x="320" y="-97.0" width="33" height="33" fill="#bbb" />
<rect x="352" y="-97.0" width="33" height="33" fill="#bbb" />
<rect x="224" y="-129.0" width="33" height="33" fill="white" />
<rect x="256" y="-129.0" width="33" height="33" fill="#bbb" />
<rect x="288" y="-129.0" width="33" height="33" fill="#bbb" />
<rect x="320" y="-129.0" width="33" height="33" fill="#bbb" />
<rect x="352" y="-129.0" width="33" height="33" fill="#bbb" />
<rect x="224" y="-161.0" width="33" height="33" fill="white" />
<rect x="256" y="-161.0" width="33" height="33" fill="#bbb" />
<rect x="288" y="-161.0" width="33" height="33" fill="#bbb" />
<rect x="320" y="-161.0" width="33" height="33" fill="#bbb" />
<rect x="352" y="-161.0" width="33" height="33" fill="#bbb" />
<rect x="224" y="-193.0" width="33" height="33" fill="white" />
<rect x="256" y="-193.0" width="33" height="33" fill="#bbb" />
<rect x="288" y="-193.0" width="33" height="33" fill="#bbb" />
<rect x="320" y="-193.0" width="33" height="33" fill="#bbb" />
<rect x="352" y="-193.0" width="33" height="33" fill="#bbb" />
<rect x="416" y="-49.0" width="33" height="33" fill="white" />
<rect x="448" y="-49.0" width="33" height="33" fill="#bbb" />
<rect x="480" y="-49.0" width="33" height="33" fill="#bbb" />
<rect x="512" y="-49.0" width="33" height="33" fill="#bbb" />
<rect x="544" y="-49.0" width="33" height="33" fill="#bbb" />
<rect x="416" y="-81.0" width="33" height="33" fill="white" />
<rect x="448" y="-81.0" width="33" height="33" fill="#bbb" />
<rect x="480" y="-81.0" width="33" height="33" fill="#bbb" />
<rect x="512" y="-81.0" width="33" height="33" fill="#bbb" />
<rect x="544" y="-81.0" width="33" height="33" fill="#bbb" />
<rect x="416" y="-113.0" width="33" height="33" fill="white" />
<rect x="448" y="-113.0" width="33" height="33" fill="#bbb" />
<rect x="480" y="-113.0" width="33" height="33" fill="#bbb" />
<rect x="512" y="-113.0" width="33" height="33" fill="#bbb" />
<rect x="544" y="-113.0" width="33" height="33" fill="#bbb" />
<rect x="416" y="-145.0" width="33" height="33" fill="white" />
<rect x="448" y="-145.0" width="33" height="33" fill="#bbb" />
<rect x="480" y="-145.0" width="33" height="33" fill="#bbb" />
<rect x="512" y="-145.0" width="33" height="33" fill="#bbb" />
<rect x="544" y="-145.0" width="33" height="33" fill="#bbb" />
<rect x="416" y="-177.0" width="33" height="33" fill="white" />
<rect x="448" y="-177.0" width="33" height="33" fill="#bbb" />
<rect x="480" y="-177.0" width="33" height="33" fill="#bbb" />
<rect x="512" y="-177.0" width="33" height="33" fill="#bbb" />
<rect x="544" y="-177.0" width="33" height="33" fill="#bbb" />
<rect x="608" y="-49.0" width="33" height="33" fill="#bbb" />
<rect x="640" y="-49.0" width="33" height="33" fill="#bbb" />
<rect x="672" y="-49.0" width="33" height="33" fill="#bbb" />
<rect x="704" y="-49.0" width="33" height="33" fill="#bbb" />
<rect x="608" y="-81.0" width="33" height="33" fill="#bbb" />
<rect x="640" y="-81.0" width="33" height="33" fill="#bbb" />
<rect x="672" y="-81.0" width="33" height="33" fill="#bbb" />
<rect x="704" y="-81.0" width="33" height="33" fill="#bbb" />
<rect x="608" y="-113.0" width="33" height="33" fill="#bbb" />
<rect x="640" y="-113.0" width="33" height="33" fill="#bbb" />
<rect x="672" y="-113.0" width="33" height="33" fill="#bbb" />
<rect x="704" y="-113.0" width="33" height="33" fill="#bbb" />
<rect x="608" y="-145.0" width="33" height="33" fill="#bbb" />
<rect x="640" y="-145.0" width="33" height="33" fill="#bbb" />
<rect x="672" y="-145.0" width="33" height="33" fill="#bbb" />
<rect x="704" y="-145.0" width="33" height="33" fill="#bbb" />
<rect x="608" y="-177.0" width="33" height="33" fill="#bbb" />
<rect x="640" y="-177.0" width="33" height="33" fill="#bbb" />
<rect x="672" y="-177.0" width="33" height="33" fill="#bbb" />
<rect x="704" y="-177.0" width="33" height="33" fill="#bbb" />
<rect x="768" y="-49.0" width="33" height="33" fill="#bbb" />
<rect x="800" y="-49.0" width="33" height="33" fill="#bbb" />
<rect x="832" y="-49.0" width="33" height="33" fill="#bbb" />
<rect x="768" y="-81.0" width="33" height="33" fill="#bbb" />
<rect x="800" y="-81.0" width="33" height="33" fill="#bbb" />
<rect x="832" y="-81.0" width="33" height="33" fill="white" />
<rect x="768" y="-113.0" width="33" height="33" fill="#bbb" />
<rect x="800" y="-113.0" width="33" height="33" fill="#bbb" />
<rect x="832" y="-113.0" width="33" height="33" fill="white" />
<rect x="768" y="-145.0" width="33" height="33" fill="#bbb" />
<rect x="800" y="-145.0" width="33" height="33" fill="#bbb" />
<rect x="832" y="-145.0" width="33" height="33" fill="white" />
<rect x="768" y="-177.0" width="33" height="33" fill="#bbb" />
<rect x="800" y="-177.0" width="33" height="33" fill="#bbb" />
<rect x="832" y="-177.0" width="33" height="33" fill="white" />
<rect x="896" y="-81.0" width="33" height="33" fill="white" />
<rect x="928" y="-81.0" width="33" height="33" fill="white" />
<rect x="960" y="-81.0" width="33" height="33" fill="white" />
<rect x="896" y="-113.0" width="33" height="33" fill="white" />
<rect x="928" y="-113.0" width="33" height="33" fill="#bbb" />
<rect x="960" y="-113.0" width="33" height="33" fill="#bbb" />
<rect x="896" y="-145.0" width="33" height="33" fill="#bbb" />
<rect x="928" y="-145.0" width="33" height="33" fill="#bbb" />
<rect x="960" y="-145.0" width="33" height="33" fill="white" />
<path d="M32,-0.0 L32,-32.0" stroke="#ddd" stroke-width="1" fill="none" />
<path d="M64,-0.0 L64,-32.0" stroke="#ddd" stroke-width="1" fill="none" />
<path d="M96,-0.0 L96,-32.0" stroke="#ddd" stroke-width="1" fill="none" />
<path d="M128,-0.0 L128,-32.0" stroke="#ddd" stroke-width="1" fill="none" />
<path d="M160,-0.0 L160,-32.0" stroke="#ddd" stroke-width="1" fill="none" />
<path d="M32,-32.0 L32,-64.0" stroke="#ddd" stroke-width="1" fill="none" />
<path d="M64,-32.0 L64,-64.0" stroke="#ddd" stroke-width="1" fill="none" />
<path d="M96,-32.0 L96,-64.0" stroke="#ddd" stroke-width="1" fill="none" />
<path d="M128,-32.0 L128,-64.0" stroke="#ddd" stroke-width="1" fill="none" />
<path d="M160,-32.0 L160,-64.0" stroke="#ddd" stroke-width="1" fill="none" />
<path d="M32,-64.0 L32,-96.0" stroke="#ddd" stroke-width="1" fill="none" />
<path d="M64,-64.0 L64,-96.0" stroke="#ddd" stroke-width="1" fill="none" />
<path d="M96,-64.0 L96,-96.0" stroke="#ddd" stroke-width="1" fill="none" />
<path d="M128,-64.0 L128,-96.0" stroke="#ddd" stroke-width="1" fill="none" />
<path d="M160,-64.0 L160,-96.0" stroke="#ddd" stroke-width="1" fill="none" />
<path d="M32,-96.0 L32,-128.0" stroke="#ddd" stroke-width="1" fill="none" />
<path d="M64,-96.0 L64,-128.0" stroke="#ddd" stroke-width="1" fill="none" />
<path d="M96,-96.0 L96,-128.0" stroke="#ddd" stroke-width="1" fill="none" />
<path d="M128,-96.0 L128,-128.0" stroke="#ddd" stroke-width="1" fill="none" />
<path d="M160,-96.0 L160,-128.0" stroke="#ddd" stroke-width="1" fill="none" />
<path d="M32,-128.0 L32,-160.0" stroke="#ddd" stroke-width="1" fill="none" />
<path d="M64,-128.0 L64,-160.0" stroke="#ddd" stroke-width="1" fill="none" />
<path d="M96,-128.0 L96,-160.0" stroke="#ddd" stroke-width="1" fill="none" />
<path d="M128,-128.0 L128,-160.0" stroke="#ddd" stroke-width="1" fill="none" />
<path d="M160,-128.0 L160,-160.0" stroke="#ddd" stroke-width="1" fill="none" />
<path d="M32,-160.0 L32,-192.0" stroke="#ddd" stroke-width="1" fill="none" />
<path d="M64,-160.0 L64,-192.0" stroke="#ddd" stroke-width="1" fill="none" />
<path d="M96,-160.0 L96,-192.0" stroke="#ddd" stroke-width="1" fill="none" />
<path d="M128,-160.0 L128,-192.0" stroke="#ddd" stroke-width="1" fill="none" />
<path d="M160,-160.0 L160,-192.0" stroke="#ddd" stroke-width="1" fill="none" />
<path d="M0,-32.0 L32,-32.0" stroke="#ddd" stroke-width="1" fill="none" />
<path d="M32,-32.0 L64,-32.0" stroke="#ddd" stroke-width="1" fill="none" />
<path d="M64,-32.0 L96,-32.0" stroke="#ddd" stroke-width="1" fill="none" />
<path d="M96,-32.0 L128,-32.0" stroke="#ddd" stroke-width="1" fill="none" />
<path d="M128,-32.0 L160,-32.0" stroke="#ddd" stroke-width="1" fill="none" />
<path d="M160,-32.0 L192,-32.0" stroke="#ddd" stroke-width="1" fill="none" />
<path d="M0,-64.0 L32,-64.0" stroke="#ddd" stroke-width="1" fill="none" />
<path d="M32,-64.0 L64,-64.0" stroke="#ddd" stroke-width="1" fill="none" />
<path d="M64,-64.0 L96,-64.0" stroke="#ddd" stroke-width="1" fill="none" />
<path d="M96,-64.0 L128,-64.0" stroke="#ddd" stroke-width="1" fill="none" />
<path d="M128,-64.0 L160,-64.0" stroke="#ddd" stroke-width="1" fill="none" />
<path d="M160,-64.0 L192,-64.0" stroke="#ddd" stroke-width="1" fill="none" />
<path d="M0,-96.0 L32,-96.0" stroke="#ddd" stroke-width="1" fill="none" />
<path d="M32,-96.0 L64,-96.0" stroke="#ddd" stroke-width="1" fill="none" />
<path d="M64,-96.0 L96,-96.0" stroke="#ddd" stroke-width="1" fill="none" />
<path d="M96,-96.0 L128,-96.0" stroke="#ddd" stroke-width="1" fill="none" />
<path d="M128,-96.0 L160,-96.0" stroke="#ddd" stroke-width="1" fill="none" />
<path d="M160,-96.0 L192,-96.0" stroke="#ddd" stroke-width="1" fill="none" />
<path d="M0,-128.0 L32,-128.0" stroke="#ddd" stroke-width="1" fill="none" />
<path d="M32,-128.0 L64,-128.0" stroke="#ddd" stroke-width="1" fill="none" />
<path d="M64,-128.0 L96,-128.0" stroke="#ddd" stroke-width="1" fill="none" />
<path d="M96,-128.0 L128,-128.0" stroke="#ddd" stroke-width="1" fill="none" />
<path d="M128,-128.0 L160,-128.0" stroke="#ddd" stroke-width="1" fill="none" />
<path d="M160,-128.0 L192,-128.0" stroke="#ddd" stroke-width="1" fill="none" />
<path d="M0,-160.0 L32,-160.0" stroke="#ddd" stroke-width="1" fill="none" />
<path d="M32,-160.0 L64,-160.0" stroke="#ddd" stroke-width="1" fill="none" />
<path d="M64,-160.0 L96,-160.0" stroke="#ddd" stroke-width="1" fill="none" />
<path d="M96,-160.0 L128,-160.0" stroke="#ddd" stroke-width="1" fill="none" />
<path d="M128,-160.0 L160,-160.0" stroke="#ddd" stroke-width="1" fill="none" />
<path d="M160,-160.0 L192,-160.0" stroke="#ddd" stroke-width="1" fill="none" />
<path d="M288,-0.0 L288,-32.0" stroke="#ddd" stroke-width="1" fill="none" />
<path d="M320,-0.0 L320,-32.0" stroke="#ddd" stroke-width="1" fill="none" />
<path d="M352,-0.0 L352,-32.0" stroke="#ddd" stroke-width="1" fill="none" />
<path d="M288,-32.0 L288,-64.0" stroke="#ddd" stroke-width="1" fill="none" />
<path d="M320,-32.0 L320,-64.0" stroke="#ddd" stroke-width="1" fill="none" />
<path d="M352,-32.0 L352,-64.0" stroke="#ddd" stroke-width="1" fill="none" />
<path d="M288,-64.0 L288,-96.0" stroke="#ddd" stroke-width="1" fill="none" />
<path d="M320,-64.0 L320,-96.0" stroke="#ddd" stroke-width="1" fill="none" />
<path d="M352,-64.0 L352,-96.0" stroke="#ddd" stroke-width="1" fill="none" />
<path d="M288,-96.0 L288,-128.0" stroke="#ddd" stroke-width="1" fill="none" />
<path d="M320,-96.0 L320,-128.0" stroke="#ddd" stroke-width="1" fill="none" />
<path d="M352,-96.0 L352,-128.0" stroke="#ddd" stroke-width="1" fill="none" />
<path d="M288,-128.0 L288,-160.0" stroke="#ddd" stroke-width="1" fill="none" />
<path d="M320,-128.0 L320,-160.0" stroke="#ddd" stroke-width="1" fill="none" />
<path d="M352,-128.0 L352,-160.0" stroke="#ddd" stroke-width="1" fill="none" />
<path d="M288,-160.0 L288,-192.0" stroke="#ddd" stroke-width="1" fill="none" />
<path d="M320,-160.0 L320,-192.0" stroke="#ddd" stroke-width="1" fill="none" />
<path d="M352,-160.0 L352,-192.0" stroke="#ddd" stroke-width="1" fill="none" />
<path d="M224,-32.0 L256,-32.0" stroke="#ddd" stroke-width="1" fill="none" />
<path d="M256,-32.0 L288,-32.0" stroke="#ddd" stroke-width="1" fill="none" />
<path d="M288,-32.0 L320,-32.0" stroke="#ddd" stroke-width="1" fill="none" />
<path d="M320,-32.0 L352,-32.0" stroke="#ddd" stroke-width="1" fill="none" />
<path d="M352,-32.0 L384,-32.0" stroke="#ddd" stroke-width="1" fill="none" />
<path d="M224,-64.0 L256,-64.0" stroke="#ddd" stroke-width="1" fill="none" />
<path d="M256,-64.0 L288,-64.0" stroke="#ddd" stroke-width="1" fill="none" />
<path d="M288,-64.0 L320,-64.0" stroke="#ddd" stroke-width="1" fill="none" />
<path d="M320,-64.0 L352,-64.0" stroke="#ddd" stroke-width="1" fill="none" />
<path d="M352,-64.0 L384,-64.0" stroke="#ddd" stroke-width="1" fill="none" />
<path d="M224,-96.0 L256,-96.0" stroke="#ddd" stroke-width="1" fill="none" />
<path d="M256,-96.0 L288,-96.0" stroke="#ddd" stroke-width="1" fill="none" />
<path d="M288,-96.0 L320,-96.0" stroke="#ddd" stroke-width="1" fill="none" />
<path d="M320,-96.0 L352,-96.0" stroke="#ddd" stroke-width="1" fill="none" />
<path d="M352,-96.0 L384,-96.0" stroke="#ddd" stroke-width="1" fill="none" />
<path d="M224,-128.0 L256,-128.0" stroke="#ddd" stroke-width="1" fill="none" />
<path d="M256,-128.0 L288,-128.0" stroke="#ddd" stroke-width="1" fill="none" />
<path d="M288,-128.0 L320,-128.0" stroke="#ddd" stroke-width="1" fill="none" />
<path d="M320,-128.0 L352,-128.0" stroke="#ddd" stroke-width="1" fill="none" />
<path d="M352,-128.0 L384,-128.0" stroke="#ddd" stroke-width="1" fill="none" />
<path d="M224,-160.0 L256,-160.0" stroke="#ddd" stroke-width="1" fill="none" />
<path d="M256,-160.0 L288,-160.0" stroke="#ddd" stroke-width="1" fill="none" />
<path d="M288,-160.0 L320,-160.0" stroke="#ddd" stroke-width="1" fill="none" />
<path d="M320,-160.0 L352,-160.0" stroke="#ddd" stroke-width="1" fill="none" />
<path d="M352,-160.0 L384,-160.0" stroke="#ddd" stroke-width="1" fill="none" />
<path d="M480,-16.0 L480,-48.0" stroke="#ddd" stroke-width="1" fill="none" />
<path d="M512,-16.0 L512,-48.0" stroke="#ddd" stroke-width="1" fill="none" />
<path d="M544,-16.0 L544,-48.0" stroke="#ddd" stroke-width="1" fill="none" />
<path d="M480,-48.0 L480,-80.0" stroke="#ddd" stroke-width="1" fill="none" />
<path d="M512,-48.0 L512,-80.0" stroke="#ddd" stroke-width="1" fill="none" />
<path d="M544,-48.0 L544,-80.0" stroke="#ddd" stroke-width="1" fill="none" />
<path d="M480,-80.0 L480,-112.0" stroke="#ddd" stroke-width="1" fill="none" />
<path d="M512,-80.0 L512,-112.0" stroke="#ddd" stroke-width="1" fill="none" />
<path d="M544,-80.0 L544,-112.0" stroke="#ddd" stroke-width="1" fill="none" />
<path d="M480,-112.0 L480,-144.0" stroke="#ddd" stroke-width="1" fill="none" />
<path d="M512,-112.0 L512,-144.0" stroke="#ddd" stroke-width="1" fill="none" />
<path d="M544,-112.0 L544,-144.0" stroke="#ddd" stroke-width="1" fill="none" />
<path d="M480,-144.0 L480,-176.0" stroke="#ddd" stroke-width="1" fill="none" />
<path d="M512,-144.0 L512,-176.0" stroke="#ddd" stroke-width="1" fill="none" />
<path d="M544,-144.0 L544,-176.0" stroke="#ddd" stroke-width="1" fill="none" />
<path d="M416,-48.0 L448,-48.0" stroke="#ddd" stroke-width="1" fill="none" />
<path d="M448,-48.0 L480,-48.0" stroke="#ddd" stroke-width="1" fill="none" />
<path d="M480,-48.0 L512,-48.0" stroke="#ddd" stroke-width="1" fill="none" />
<path d="M512,-48.0 L544,-48.0" stroke="#ddd" stroke-width="1" fill="none" />
<path d="M544,-48.0 L576,-48.0" stroke="#ddd" stroke-width="1" fill="none" />
<path d="M416,-80.0 L448,-80.0" stroke="#ddd" stroke-width="1" fill="none" />
<path d="M448,-80.0 L480,-80.0" stroke="#ddd" stroke-width="1" fill="none" />
<path d="M480,-80.0 L512,-80.0" stroke="#ddd" stroke-width="1" fill="none" />
<path d="M512,-80.0 L544,-80.0" stroke="#ddd" stroke-width="1" fill="none" />
<path d="M544,-80.0 L576,-80.0" stroke="#ddd" stroke-width="1" fill="none" />
<path d="M416,-112.0 L448,-112.0" stroke="#ddd" stroke-width="1" fill="none" />
<path d="M448,-112.0 L480,-112.0" stroke="#ddd" stroke-width="1" fill="none" />
<path d="M480,-112.0 L512,-112.0" stroke="#ddd" stroke-width="1" fill="none" />
<path d="M512,-112.0 L544,-112.0" stroke="#ddd" stroke-width="1" fill="none" />
<path d="M544,-112.0 L576,-112.0" stroke="#ddd" stroke-width="1" fill="none" />
<path d="M416,-144.0 L448,-144.0" stroke="#ddd" stroke-width="1" fill="none" />
<path d="M448,-144.0 L480,-144.0" stroke="#ddd" stroke-width="1" fill="none" />
<path d="M480,-144.0 L512,-144.0" stroke="#ddd" stroke-width="1" fill="none" />
<path d="M512,-144.0 L544,-144.0" stroke="#ddd" stroke-width="1" fill="none" />
<path d="M544,-144.0 L576,-144.0" stroke="#ddd" stroke-width="1" fill="none" />
<path d="M640,-16.0 L640,-48.0" stroke="#ddd" stroke-width="1" fill="none" />
<path d="M672,-16.0 L672,-48.0" stroke="#ddd" stroke-width="1" fill="none" />
<path d="M704,-16.0 L704,-48.0" stroke="#ddd" stroke-width="1" fill="none" />
<path d="M640,-48.0 L640,-80.0" stroke="#ddd" stroke-width="1" fill="none" />
<path d="M672,-48.0 L672,-80.0" stroke="#ddd" stroke-width="1" fill="none" />
<path d="M704,-48.0 L704,-80.0" stroke="#ddd" stroke-width="1" fill="none" />
<path d="M640,-80.0 L640,-112.0" stroke="#ddd" stroke-width="1" fill="none" />
<path d="M672,-80.0 L672,-112.0" stroke="#ddd" stroke-width="1" fill="none" />
<path d="M704,-80.0 L704,-112.0" stroke="#ddd" stroke-width="1" fill="none" />
<path d="M640,-112.0 L640,-144.0" stroke="#ddd" stroke-width="1" fill="none" />
<path d="M672,-112.0 L672,-144.0" stroke="#ddd" stroke-width="1" fill="none" />
<path d="M704,-112.0 L704,-144.0" stroke="#ddd" stroke-width="1" fill="none" />
<path d="M640,-144.0 L640,-176.0" stroke="#ddd" stroke-width="1" fill="none" />
<path d="M672,-144.0 L672,-176.0" stroke="#ddd" stroke-width="1" fill="none" />
<path d="M704,-144.0 L704,-176.0" stroke="#ddd" stroke-width="1" fill="none" />
<path d="M608,-48.0 L640,-48.0" stroke="#ddd" stroke-width="1" fill="none" />
<path d="M640,-48.0 L672,-48.0" stroke="#ddd" stroke-width="1" fill="none" />
<path d="M672,-48.0 L704,-48.0" stroke="#ddd" stroke-width="1" fill="none" />
<path d="M704,-48.0 L736,-48.0" stroke="#ddd" stroke-width="1" fill="none" />
<path d="M608,-80.0 L640,-80.0" stroke="#ddd" stroke-width="1" fill="none" />
<path d="M640,-80.0 L672,-80.0" stroke="#ddd" stroke-width="1" fill="none" />
<path d="M672,-80.0 L704,-80.0" stroke="#ddd" stroke-width="1" fill="none" />
<path d="M704,-80.0 L736,-80.0" stroke="#ddd" stroke-width="1" fill="none" />
<path d="M608,-112.0 L640,-112.0" stroke="#ddd" stroke-width="1" fill="none" />
<path d="M640,-112.0 L672,-112.0" stroke="#ddd" stroke-width="1" fill="none" />
<path d="M672,-112.0 L704,-112.0" stroke="#ddd" stroke-width="1" fill="none" />
<path d="M704,-112.0 L736,-112.0" stroke="#ddd" stroke-width="1" fill="none" />
<path d="M608,-144.0 L640,-144.0" stroke="#ddd" stroke-width="1" fill="none" />
<path d="M640,-144.0 L672,-144.0" stroke="#ddd" stroke-width="1" fill="none" />
<path d="M672,-144.0 L704,-144.0" stroke="#ddd" stroke-width="1" fill="none" />
<path d="M704,-144.0 L736,-144.0" stroke="#ddd" stroke-width="1" fill="none" />
<path d="M800,-16.0 L800,-48.0" stroke="#ddd" stroke-width="1" fill="none" />
<path d="M800,-48.0 L800,-80.0" stroke="#ddd" stroke-width="1" fill="none" />
<path d="M800,-80.0 L800,-112.0" stroke="#ddd" stroke-width="1" fill="none" />
<path d="M800,-112.0 L800,-144.0" stroke="#ddd" stroke-width="1" fill="none" />
<path d="M800,-144.0 L800,-176.0" stroke="#ddd" stroke-width="1" fill="none" />
<path d="M768,-48.0 L800,-48.0" stroke="#ddd" stroke-width="1" fill="none" />
<path d="M800,-48.0 L832,-48.0" stroke="#ddd" stroke-width="1" fill="none" />
<path d="M768,-80.0 L800,-80.0" stroke="#ddd" stroke-width="1" fill="none" />
<path d="M800,-80.0 L832,-80.0" stroke="#ddd" stroke-width="1" fill="none" />
<path d="M832,-80.0 L864,-80.0" stroke="#ddd" stroke-width="1" fill="none" />
<path d="M768,-112.0 L800,-112.0" stroke="#ddd" stroke-width="1" fill="none" />
<path d="M800,-112.0 L832,-112.0" stroke="#ddd" stroke-width="1" fill="none" />
<path d="M832,-112.0 L864,-112.0" stroke="#ddd" stroke-width="1" fill="none" />
<path d="M768,-144.0 L800,-144.0" stroke="#ddd" stroke-width="1" fill="none" />
<path d="M800,-144.0 L832,-144.0" stroke="#ddd" stroke-width="1" fill="none" />
<path d="M832,-144.0 L864,-144.0" stroke="#ddd" stroke-width="1" fill="none" />
<path d="M960,-48.0 L960,-80.0" stroke="#ddd" stroke-width="1" fill="none" />
<path d="M960,-80.0 L960,-112.0" stroke="#ddd" stroke-width="1" fill="none" />
<path d="M928,-112.0 L928,-144.0" stroke="#ddd" stroke-width="1" fill="none" />
<path d="M896,-80.0 L928,-80.0" stroke="#ddd" stroke-width="1" fill="none" />
<path d="M304.0,-13.524791385931955 A36.950417228136054,36.950417228136054,0,0,0,304.0,-50.47520861406802" stroke="grey" stroke-width="1" fill="none" marker-end="url(#d0)" />
<path d="M429.52479138593196,-96.0 A36.950417228136054,36.950417228136054,0,0,0,466.47520861406804,-96.0" stroke="grey" stroke-width="1" fill="none" marker-end="url(#d0)" />
<path d="M0,-0.0 L192,-0.0 L192,-192.0 L0,-192.0 Z" stroke="black" stroke-width="2" fill="none" />
<path d="M256,-0.0 L256,-32.0" stroke="black" stroke-width="2" fill="none" />
<path d="M256,-32.0 L256,-64.0" stroke="black" stroke-width="2" fill="none" />
<path d="M256,-64.0 L256,-96.0" stroke="black" stroke-width="2" fill="none" />
<path d="M256,-96.0 L256,-128.0" stroke="black" stroke-width="2" fill="none" />
<path d="M256,-128.0 L256,-160.0" stroke="black" stroke-width="2" fill="none" />
<path d="M256,-160.0 L256,-192.0" stroke="black" stroke-width="2" fill="none" />
<path d="M224,-0.0 L384,-0.0 L384,-192.0 L224,-192.0 Z" stroke="black" stroke-width="2" fill="none" />
<path d="M448,-16.0 L448,-48.0" stroke="black" stroke-width="2" fill="none" />
<path d="M448,-48.0 L448,-80.0" stroke="black" stroke-width="2" fill="none" />
<path d="M448,-80.0 L448,-112.0" stroke="black" stroke-width="2" fill="none" />
<path d="M448,-112.0 L448,-144.0" stroke="black" stroke-width="2" fill="none" />
<path d="M448,-144.0 L448,-176.0" stroke="black" stroke-width="2" fill="none" />
<path d="M416,-16.0 L576,-16.0 L576,-176.0 L416,-176.0 Z" stroke="black" stroke-width="2" fill="none" />
<path d="M608,-16.0 L736,-16.0 L736,-176.0 L608,-176.0 Z" stroke="black" stroke-width="2" fill="none" />
<path d="M832,-16.0 L832,-48.0" stroke="black" stroke-width="2" fill="none" />
<path d="M832,-48.0 L832,-80.0" stroke="black" stroke-width="2" fill="none" />
<path d="M832,-80.0 L832,-112.0" stroke="black" stroke-width="2" fill="none" />
<path d="M832,-112.0 L832,-144.0" stroke="black" stroke-width="2" fill="none" />
<path d="M832,-144.0 L832,-176.0" stroke="black" stroke-width="2" fill="none" />
<path d="M832,-48.0 L864,-48.0" stroke="black" stroke-width="2" fill="none" />
<path d="M768,-16.0 L864,-16.0 L864,-176.0 L768,-176.0 Z" stroke="black" stroke-width="2" fill="none" />
<path d="M928,-48.0 L928,-80.0" stroke="black" stroke-width="2" fill="none" />
<path d="M928,-80.0 L928,-112.0" stroke="black" stroke-width="2" fill="none" />
<path d="M960,-112.0 L960,-144.0" stroke="black" stroke-width="2" fill="none" />
<path d="M928,-80.0 L960,-80.0" stroke="black" stroke-width="2" fill="none" />
<path d="M960,-80.0 L992,-80.0" stroke="black" stroke-width="2" fill="none" />
<path d="M896,-112.0 L928,-112.0" stroke="black" stroke-width="2" fill="none" />
<path d="M928,-112.0 L960,-112.0" stroke="black" stroke-width="2" fill="none" />
<path d="M960,-112.0 L992,-112.0" stroke="black" stroke-width="2" fill="none" />
<path d="M896,-48.0 L992,-48.0 L992,-144.0 L896,-144.0 Z" stroke="black" stroke-width="2" fill="none" />
<path d="M13.52479138593198,-96.0 A36.950417228136054,36.950417228136054,0,0,1,50.47520861406803,-96.0" stroke="black" stroke-width="1" fill="none" marker-end="url(#d1)" />
<path d="M722.475208614068,-96.0 A36.950417228136054,36.950417228136054,0,0,0,685.524791385932,-96.0" stroke="black" stroke-width="1" fill="none" marker-end="url(#d1)" />
<path d="M816.0,-61.52479138593197 A36.950417228136054,36.950417228136054,0,0,1,816.0,-98.47520861406802" stroke="black" stroke-width="1" fill="none" marker-end="url(#d1)" />
<path d="M32,-0.0 L32,-192.0" stroke="black" stroke-width="1" fill="none" stroke-dasharray="4" />
<path d="M224,-32.0 L384,-32.0" stroke="black" stroke-width="1" fill="none" stroke-dasharray="10 2 2 2" />
<path d="M448,-16.0 L448,-176.0" stroke="black" stroke-width="1" fill="none" stroke-dasharray="10 2 2 2" />
<path d="M704,-16.0 L704,-176.0" stroke="black" stroke-width="1" fill="none" stroke-dasharray="4" />
<path d="M768,-80.0 L864,-80.0" stroke="black" stroke-width="1" fill="none" stroke-dasharray="4" />
</svg>