<?xml version="1.0" encoding="UTF-8"?>
<svg xmlns="http://www.w3.org/2000/svg" xmlns:xlink="http://www.w3.org/1999/xlink"
     width="1313" height="225" viewBox="0 -225 1313 225">
<defs>
<marker markerWidth="4.0" markerHeight="4.0" viewBox="-0.1 -0.5 1.0 1.0" orient="auto" stroke="grey" id="d0">
<path d="M-0.1,0.5 L-0.1,-0.5 L0.9,0 Z" stroke-width="0.1" stroke="grey" fill="white" />
</marker>
<marker markerWidth="4.0" markerHeight="4.0" viewBox="-0.1 -0.5 1.0 1.0" orient="auto" id="d1">
<path d="M-0.1,0.5 L-0.1,-0.5 L0.9,0 Z" stroke-width="0.1" stroke="black" fill="black" />
</marker>
</defs>
<rect x="0" y="-33.0" width="33" height="33" fill="#bbb" />
<rect x="32" y="-33.0" width="33" height="33" fill="#bbb" />
<rect x="64" y="-33.0" width="33" height="33" fill="#bbb" />
<rect x="96" y="-33.0" width="33" height="33" fill="#bbb" />
<rect x="128" y="-33.0" width="33" height="33" fill="#bbb" />
<rect x="160" y="-33.0" width="33" height="33" fill="#bbb" />
<rect x="192" y="-33.0" width="33" height="33" fill="#bbb" />
<rect x="0" y="-65.0" width="33" height="33" fill="#bbb" />
<rect x="32" y="-65.0" width="33" height="33" fill="#bbb" />
<rect x="64" y="-65.0" width="33" height="33" fill="#bbb" />
<rect x="96" y="-65.0" width="33" height="33" fill="#bbb" />
<rect x="128" y="-65.0" width="33" height="33" fill="#bbb" />
<rect x="160" y="-65.0" width="33" height="33" fill="#bbb" />
<rect x="192" y="-65.0" width="33" height="33" fill="#bbb" />
<rect x="0" y="-97.0" width="33" height="33" fill="#bbb" />
<rect x="32" y="-97.0" width="33" height="33" fill="#bbb" />
<rect x="64" y="-97.0" width="33" height="33" fill="#bbb" />
<rect x="96" y="-97.0" width="33" height="33" fill="#bbb" />
<rect x="128" y="-97.0" width="33" height="33" fill="#bbb" />
<rect x="160" y="-97.0" width="33" height="33" fill="#bbb" />
<rect x="192" y="-97.0" width="33" height="33" fill="#bbb" />
<rect x="0" y="-129.0" width="33" height="33" fill="#bbb" />
<rect x="32" y="-129.0" width="33" height="33" fill="#bbb" />
<rect x="64" y="-129.0" width="33" height="33" fill="#bbb" />
<rect x="96" y="-129.0" width="33" height="33" fill="#bbb" />
<rect x="128" y="-129.0" width="33" height="33" fill="#bbb" />
<rect x="160" y="-129.0" width="33" height="33" fill="#bbb" />
<rect x="192" y="-129.0" width="33" height="33" fill="#bbb" />
<rect x="0" y="-161.0" width="33" height="33" fill="#bbb" />
<rect x="32" y="-161.0" width="33" height="33" fill="#bbb" />
<rect x="64" y="-161.0" width="33" height="33" fill="#bbb" />
<rect x="96" y="-161.0" width="33" height="33" fill="#bbb" />
<rect x="128" y="-161.0" width="33" height="33" fill="#bbb" />
<rect x="160" y="-161.0" width="33" height="33" fill="#bbb" />
<rect x="192" y="-161.0" width="33" height="33" fill="#bbb" />
<rect x="0" y="-193.0" width="33" height="33" fill="#bbb" />
<rect x="32" y="-193.0" width="33" height="33" fill="#bbb" />
<rect x="64" y="-193.0" width="33" height="33" fill="#bbb" />
<rect x="96" y="-193.0" width="33" height="33" fill="#bbb" />
<rect x="128" y="-193.0" width="33" height="33" fill="#bbb" />
<rect x="160" y="-193.0" width="33" height="33" fill="#bbb" />
<rect x="192" y="-193.0" width="33" height="33" fill="#bbb" />
<rect x="0" y="-225.0" width="33" height="33" fill="#bbb" />
<rect x="32" y="-225.0" width="33" height="33" fill="#bbb" />
<rect x="64" y="-225.0" width="33" height="33" fill="#bbb" />
<rect x="96" y="-225.0" width="33" height="33" fill="#bbb" />
<rect x="128" y="-225.0" width="33" height="33" fill="#bbb" />
<rect x="160" y="-225.0" width="33" height="33" fill="#bbb" />
<rect x="192" y="-225.0" width="33" height="33" fill="#bbb" />
<rect x="256" y="-33.0" width="33" height="33" fill="white" />
<rect x="288" y="-33.0" width="33" height="33" fill="#bbb" />
<rect x="320" y="-33.0" width="33" height="33" fill="#bbb" />
<rect x="352" y="-33.0" width="33" height="33" fill="#bbb" />
<rect x="384" y="-33.0" width="33" height="33" fill="#bbb" />
<rect x="416" y="-33.0" width="33" height="33" fill="#bbb" />
<rect x="256" y="-65.0" width="33" height="33" fill="white" />
<rect x="288" y="-65.0" width="33" height="33" fill="#bbb" />
<rect x="320" y="-65.0" width="33" height="33" fill="#bbb" />
<rect x="352" y="-65.0" width="33" height="33" fill="#bbb" />
<rect x="384" y="-65.0" width="33" height="33" fill="#bbb" />
<rect x="416" y="-65.0" width="33" height="33" fill="#bbb" />
<rect x="256" y="-97.0" width="33" height="33" fill="white" />
<rect x="288" y="-97.0" width="33" height="33" fill="#bbb" />
<rect x="320" y="-97.0" width="33" height="33" fill="#bbb" />
<rect x="352" y="-97.0" width="33" height="33" fill="#bbb" />
<rect x="384" y="-97.0" width="33" height="33" fill="#bbb" />
<rect x="416" y="-97.0" width="33" height="33" fill="#bbb" />
<rect x="256" y="-129.0" width="33" height="33" fill="white" />
<rect x="288" y="-129.0" width="33" height="33" fill="#bbb" />
<rect x="320" y="-129.0" width="33" height="33" fill="#bbb" />
<rect x="352" y="-129.0" width="33" height="33" fill="#bbb" />
<rect x="384" y="-129.0" width="33" height="33" fill="#bbb" />
<rect x="416" y="-129.0" width="33" height="33" fill="#bbb" />
<rect x="256" y="-161.0" width="33" height="33" fill="white" />
<rect x="288" y="-161.0" width="33" height="33" fill="#bbb" />
<rect x="320" y="-161.0" width="33" height="33" fill="#bbb" />
<rect x="352" y="-161.0" width="33" height="33" fill="#bbb" />
<rect x="384" y="-161.0" width="33" height="33" fill="#bbb" />
<rect x="416" y="-161.0" width="33" height="33" fill="#bbb" />
<rect x="256" y="-193.0" width="33" height="33" fill="white" />
<rect x="288" y="-193.0" width="33" height="33" fill="#bbb" />
<rect x="320" y="-193.0" width="33" height="33" fill="#bbb" />
<rect x="352" y="-193.0" width="33" height="33" fill="#bbb" />
<rect x="384" y="-193.0" width="33" height="33" fill="#bbb" />
<rect x="416" y="-193.0" width="33" height="33" fill="#bbb" />
<rect x="256" y="-225.0" width="33" height="33" fill="white" />
<rect x="288" y="-225.0" width="33" height="33" fill="#bbb" />
<rect x="320" y="-225.0" width="33" height="33" fill="#bbb" />
<rect x="352" y="-225.0" width="33" height="33" fill="#bbb" />
<rect x="384" y="-225.0" width="33" height="33" fill="#bbb" />
<rect x="416" y="-225.0" width="33" height="33" fill="#bbb" />
<rect x="480" y="-49.0" width="33" height="33" fill="white" />
<rect x="512" y="-49.0" width="33" height="33" fill="#bbb" />
<rect x="544" y="-49.0" width="33" height="33" fill="#bbb" />
<rect x="576" y="-49.0" width="33" height="33" fill="#bbb" />
<rect x="608" y="-49.0" width="33" height="33" fill="#bbb" />
<rect x="640" y="-49.0" width="33" height="33" fill="#bbb" />
<rect x="480" y="-81.0" width="33" height="33" fill="white" />
<rect x="512" y="-81.0" width="33" height="33" fill="#bbb" />
<rect x="544" y="-81.0" width="33" height="33" fill="#bbb" />
<rect x="576" y="-81.0" width="33" height="33" fill="#bbb" />
<rect x="608" y="-81.0" width="33" height="33" fill="#bbb" />
<rect x="640" y="-81.0" width="33" height="33" fill="#bbb" />
<rect x="480" y="-113.0" width="33" height="33" fill="white" />
<rect x="512" y="-113.0" width="33" height="33" fill="#bbb" />
<rect x="544" y="-113.0" width="33" height="33" fill="#bbb" />
<rect x="576" y="-113.0" width="33" height="33" fill="#bbb" />
<rect x="608" y="-113.0" width="33" height="33" fill="#bbb" />
<rect x="640" y="-113.0" width="33" height="33" fill="#bbb" />
<rect x="480" y="-145.0" width="33" height="33" fill="white" />
<rect x="512" y="-145.0" width="33" height="33" fill="#bbb" />
<rect x="544" y="-145.0" width="33" height="33" fill="#bbb" />
<rect x="576" y="-145.0" width="33" height="33" fill="#bbb" />
<rect x="608" y="-145.0" width="33" height="33" fill="#bbb" />
<rect x="640" y="-145.0" width="33" height="33" fill="#bbb" />
<rect x="480" y="-177.0" width="33" height="33" fill="white" />
<rect x="512" y="-177.0" width="33" height="33" fill="#bbb" />
<rect x="544" y="-177.0" width="33" height="33" fill="#bbb" />
<rect x="576" y="-177.0" width="33" height="33" fill="#bbb" />
<rect x="608" y="-177.0" width="33" height="33" fill="#bbb" />
<rect x="640" y="-177.0" width="33" height="33" fill="#bbb" />
<rect x="480" y="-209.0" width="33" height="33" fill="white" />
<rect x="512" y="-209.0" width="33" height="33" fill="#bbb" />
<rect x="544" y="-209.0" width="33" height="33" fill="#bbb" />
<rect x="576" y="-209.0" width="33" height="33" fill="#bbb" />
<rect x="608" y="-209.0" width="33" height="33" fill="#bbb" />
<rect x="640" y="-209.0" width="33" height="33" fill="#bbb" />
<rect x="704" y="-49.0" width="33" height="33" fill="white" />
<rect x="736" y="-49.0" width="33" height="33" fill="#bbb" />
<rect x="768" y="-49.0" width="33" height="33" fill="#bbb" />
<rect x="800" y="-49.0" width="33" height="33" fill="#bbb" />
<rect x="832" y="-49.0" width="33" height="33" fill="#bbb" />
<rect x="704" y="-81.0" width="33" height="33" fill="white" />
<rect x="736" y="-81.0" width="33" height="33" fill="#bbb" />
<rect x="768" y="-81.0" width="33" height="33" fill="#bbb" />
<rect x="800" y="-81.0" width="33" height="33" fill="#bbb" />
<rect x="832" y="-81.0" width="33" height="33" fill="white" />
<rect x="704" y="-113.0" width="33" height="33" fill="white" />
<rect x="736" y="-113.0" width="33" height="33" fill="#bbb" />
<rect x="768" y="-113.0" width="33" height="33" fill="#bbb" />
<rect x="800" y="-113.0" width="33" height="33" fill="#bbb" />
<rect x="832" y="-113.0" width="33" height="33" fill="white" />
<rect x="704" y="-145.0" width="33" height="33" fill="white" />
<rect x="736" y="-145.0" width="33" height="33" fill="#bbb" />
<rect x="768" y="-145.0" width="33" height="33" fill="#bbb" />
<rect x="800" y="-145.0" width="33" height="33" fill="#bbb" />
<rect x="832" y="-145.0" width="33" height="33" fill="white" />
<rect x="704" y="-177.0" width="33" height="33" fill="white" />
<rect x="736" y="-177.0" width="33" height="33" fill="#bbb" />
<rect x="768" y="-177.0" width="33" height="33" fill="#bbb" />
<rect x="800" y="-177.0" width="33" height="33" fill="#bbb" />
<rect x="832" y="-177.0" width="33" height="33" fill="white" />
<rect x="704" y="-209.0" width="33" height="33" fill="white" />
<rect x="736" y="-209.0" width="33" height="33" fill="#bbb" />
<rect x="768" y="-209.0" width="33" height="33" fill="#bbb" />
<rect x="800" y="-209.0" width="33" height="33" fill="#bbb" />
<rect x="832" y="-209.0" width="33" height="33" fill="white" />
<rect x="896" y="-81.0" width="33" height="33" fill="white" />
<rect x="928" y="-81.0" width="33" height="33" fill="#bbb" />
<rect x="960" y="-81.0" width="33" height="33" fill="#bbb" />
<rect x="992" y="-81.0" width="33" height="33" fill="#bbb" />
<rect x="1024" y="-81.0" width="33" height="33" fill="#bbb" />
<rect x="896" y="-113.0" width="33" height="33" fill="white" />
<rect x="928" y="-113.0" width="33" height="33" fill="#bbb" />
<rect x="960" y="-113.0" width="33" height="33" fill="#bbb" />
<rect x="992" y="-113.0" width="33" height="33" fill="#bbb" />
<rect x="1024" y="-113.0" width="33" height="33" fill="white" />
<rect x="896" y="-145.0" width="33" height="33" fill="white" />
<rect x="928" y="-145.0" width="33" height="33" fill="#bbb" />
<rect x="960" y="-145.0" width="33" height="33" fill="#bbb" />
<rect x="992" y="-145.0" width="33" height="33" fill="#bbb" />
<rect x="1024" y="-145.0" width="33" height="33" fill="white" />
<rect x="896" y="-177.0" width="33" height="33" fill="white" />
<rect x="928" y="-177.0" width="33" height="33" fill="#bbb" />
<rect x="960" y="-177.0" width="33" height="33" fill="#bbb" />
<rect x="992" y="-177.0" width="33" height="33" fill="#bbb" />
<rect x="1024" y="-177.0" width="33" height="33" fill="white" />
<rect x="1088" y="-81.0" width="33" height="33" fill="#bbb" />
<rect x="1120" y="-81.0" width="33" height="33" fill="white" />
<rect x="1152" y="-81.0" width="33" height="33" fill="#bbb" />
<rect x="1088" y="-113.0" width="33" height="33" fill="white" />
<rect x="1120" y="-113.0" width="33" height="33" fill="white" />
<rect x="1152" y="-113.0" width="33" height="33" fill="white" />
<rect x="1088" y="-145.0" width="33" height="33" fill="#bbb" />
<rect x="1120" y="-145.0" width="33" height="33" fill="white" />
<rect x="1152" y="-145.0" width="33" height="33" fill="white" />
<rect x="1088" y="-177.0" width="33" height="33" fill="#bbb" />
<rect x="1120" y="-177.0" width="33" height="33" fill="white" />
<rect x="1152" y="-177.0" width="33" height="33" fill="white" />
<rect x="1216" y="-97.0" width="33" height="33" fill="#bbb" />
<rect x="1248" y="-97.0" width="33" height="33" fill="white" />
<rect x="1280" y="-97.0" width="33" height="33" fill="#bbb" />
<rect x="1216" y="-129.0" width="33" height="33" fill="white" />
<rect x="1248" y="-129.0" width="33" height="33" fill="white" />
<rect x="1280" y="-129.0" width="33" height="33" fill="white" />
<rect x="1216" y="-161.0" width="33" height="33" fill="#bbb" />
<rect x="1248" y="-161.0" width="33" height="33" fill="#bbb" />
<rect x="1280" y="-161.0" width="33" height="33" fill="white" />
<path d="M32,-0.0 L32,-32.0" stroke="#ddd" stroke-width="1" fill="none" />
<path d="M64,-0.0 L64,-32.0" stroke="#ddd" stroke-width="1" fill="none" />
<path d="M96,-0.0 L96,-32.0" stroke="#ddd" stroke-width="1" fill="none" />
<path d="M128,-0.0 L128,-32.0" stroke="#ddd" stroke-width="1" fill="none" />
<path d="M160,-0.0 L160,-32.0" stroke="#ddd" stroke-width="1" fill="none" />
<path d="M192,-0.0 L192,-32.0" stroke="#ddd" stroke-width="1" fill="none" />
<path d="M32,-32.0 L32,-64.0" stroke="#ddd" stroke-width="1" fill="none" />
<path d="M64,-32.0 L64,-64.0" stroke="#ddd" stroke-width="1" fill="none" />
<path d="M96,-32.0 L96,-64.0" stroke="#ddd" stroke-width="1" fill="none" />
<path d="M128,-32.0 L128,-64.0" stroke="#ddd" stroke-width="1" fill="none" />
<path d="M160,-32.0 L160,-64.0" stroke="#ddd" stroke-width="1" fill="none" />
<path d="M192,-32.0 L192,-64.0" stroke="#ddd" stroke-width="1" fill="none" />
<path d="M32,-64.0 L32,-96.0" stroke="#ddd" stroke-width="1" fill="none" />
<path d="M64,-64.0 L64,-96.0" stroke="#ddd" stroke-width="1" fill="none" />
<path d="M96,-64.0 L96,-96.0" stroke="#ddd" stroke-width="1" fill="none" />
<path d="M128,-64.0 L128,-96.0" stroke="#ddd" stroke-width="1" fill="none" />
<path d="M160,-64.0 L160,-96.0" stroke="#ddd" stroke-width="1" fill="none" />
<path d="M192,-64.0 L192,-96.0" stroke="#ddd" stroke-width="1" fill="none" />
<path d="M32,-96.0 L32,-128.0" stroke="#ddd" stroke-width="1" fill="none" />
<path d="M64,-96.0 L64,-128.0" stroke="#ddd" stroke-width="1" fill="none" />
<path d="M96,-96.0 L96,-128.0" stroke="#ddd" stroke-width="1" fill="none" />
<path d="M128,-96.0 L128,-128.0" stroke="#ddd" stroke-width="1" fill="none" />
<path d="M160,-96.0 L160,-128.0" stroke="#ddd" stroke-width="1" fill="none" />
<path d="M192,-96.0 L192,-128.0" stroke="#ddd" stroke-width="1" fill="none" />
<path d="M32,-128.0 L32,-160.0" stroke="#ddd" stroke-width="1" fill="none" />
<path d="M64,-128.0 L64,-160.0" stroke="#ddd" stroke-width="1" fill="none" />
<path d="M96,-128.0 L96,-160.0" stroke="#ddd" stroke-width="1" fill="none" />
<path d="M128,-128.0 L128,-160.0" stroke="#ddd" stroke-width="1" fill="none" />
<path d="M160,-128.0 L160,-160.0" stroke="#ddd" stroke-width="1" fill="none" />
<path d="M192,-128.0 L192,-160.0" stroke="#ddd" stroke-width="1" fill="none" />
<path d="M32,-160.0 L32,-192.0" stroke="#ddd" stroke-width="1" fill="none" />
<path d="M64,-160.0 L64,-192.0" stroke="#ddd" stroke-width="1" fill="none" />
<path d="M96,-160.0 L96,-192.0" stroke="#ddd" stroke-width="1" fill="none" />
<path d="M128,-160.0 L128,-192.0" stroke="#ddd" stroke-width="1" fill="none" />
<path d="M160,-160.0 L160,-192.0" stroke="#ddd" stroke-width="1" fill="none" />
<path d="M192,-160.0 L192,-192.0" stroke="#ddd" stroke-width="1" fill="none" />
<path d="M32,-192.0 L32,-224.0" stroke="#ddd" stroke-width="1" fill="none" />
<path d="M64,-192.0 L64,-224.0" stroke="#ddd" stroke-width="1" fill="none" />
<path d="M96,-192.0 L96,-224.0" stroke="#ddd" stroke-width="1" fill="none" />
<path d="M128,-192.0 L128,-224.0" stroke="#ddd" stroke-width="1" fill="none" />
<path d="M160,-192.0 L160,-224.0" stroke="#ddd" stroke-width="1" fill="none" />
<path d="M192,-192.0 L192,-224.0" stroke="#ddd" stroke-width="1" fill="none" />
<path d="M0,-32.0 L32,-32.0" stroke="#ddd" stroke-width="1" fill="none" />
<path d="M32,-32.0 L64,-32.0" stroke="#ddd" stroke-width="1" fill="none" />
<path d="M64,-32.0 L96,-32.0" stroke="#ddd" stroke-width="1" fill="none" />
<path d="M96,-32.0 L128,-32.0" stroke="#ddd" stroke-width="1" fill="none" />
<path d="M128,-32.0 L160,-32.0" stroke="#ddd" stroke-width="1" fill="none" />
<path d="M160,-32.0 L192,-32.0" stroke="#ddd" stroke-width="1" fill="none" />
<path d="M192,-32.0 L224,-32.0" stroke="#ddd" stroke-width="1" fill="none" />
<path d="M0,-64.0 L32,-64.0" stroke="#ddd" stroke-width="1" fill="none" />
<path d="M32,-64.0 L64,-64.0" stroke="#ddd" stroke-width="1" fill="none" />
<path d="M64,-64.0 L96,-64.0" stroke="#ddd" stroke-width="1" fill="none" />
<path d="M96,-64.0 L128,-64.0" stroke="#ddd" stroke-width="1" fill="none" />
<path d="M128,-64.0 L160,-64.0" stroke="#ddd" stroke-width="1" fill="none" />
<path d="M160,-64.0 L192,-64.0" stroke="#ddd" stroke-width="1" fill="none" />
<path d="M192,-64.0 L224,-64.0" stroke="#ddd" stroke-width="1" fill="none" />
<path d="M0,-96.0 L32,-96.0" stroke="#ddd" stroke-width="1" fill="none" />
<path d="M32,-96.0 L64,-96.0" stroke="#ddd" stroke-width="1" fill="none" />
<path d="M64,-96.0 L96,-96.0" stroke="#ddd" stroke-width="1" fill="none" />
<path d="M96,-96.0 L128,-96.0" stroke="#ddd" stroke-width="1" fill="none" />
<path d="M128,-96.0 L160,-96.0" stroke="#ddd" stroke-width="1" fill="none" />
<path d="M160,-96.0 L192,-96.0" stroke="#ddd" stroke-width="1" fill="none" />
<path d="M192,-96.0 L224,-96.0" stroke="#ddd" stroke-width="1" fill="none" />
<path d="M0,-128.0 L32,-128.0" stroke="#ddd" stroke-width="1" fill="none" />
<path d="M32,-128.0 L64,-128.0" stroke="#ddd" stroke-width="1" fill="none" />
<path d="M64,-128.0 L96,-128.0" stroke="#ddd" stroke-width="1" fill="none" />
<path d="M96,-128.0 L128,-128.0" stroke="#ddd" stroke-width="1" fill="none" />
<path d="M128,-128.0 L160,-128.0" stroke="#ddd" stroke-width="1" fill="none" />
<path d="M160,-128.0 L192,-128.0" stroke="#ddd" stroke-width="1" fill="none" />
<path d="M192,-128.0 L224,-128.0" stroke="#ddd" stroke-width="1" fill="none" />
<path d="M0,-160.0 L32,-160.0" stroke="#ddd" stroke-width="1" fill="none" />
<path d="M32,-160.0 L64,-160.0" stroke="#ddd" stroke-width="1" fill="none" />
<path d="M64,-160.0 L96,-160.0" stroke="#ddd" stroke-width="1" fill="none" />
<path d="M96,-160.0 L128,-160.0" stroke="#ddd" stroke-width="1" fill="none" />
<path d="M128,-160.0 L160,-160.0" stroke="#ddd" stroke-width="1" fill="none" />
<path d="M160,-160.0 L192,-160.0" stroke="#ddd" stroke-width="1" fill="none" />
<path d="M192,-160.0 L224,-160.0" stroke="#ddd" stroke-width="1" fill="none" />
<path d="M0,-192.0 L32,-192.0" stroke="#ddd" stroke-width="1" fill="none" />
<path d="M32,-192.0 L64,-192.0" stroke="#ddd" stroke-width="1" fill="none" />
<path d="M64,-192.0 L96,-192.0" stroke="#ddd" stroke-width="1" fill="none" />
<path d="M96,-192.0 L128,-192.0" stroke="#ddd" stroke-width="1" fill="none" />
<path d="M128,-192.0 L160,-192.0" stroke="#ddd" stroke-width="1" fill="none" />
<path d="M160,-192.0 L192,-192.0" stroke="#ddd" stroke-width="1" fill="none" />
<path d="M192,-192.0 L224,-192.0" stroke="#ddd" stroke-width="1" fill="none" />
<path d="M320,-0.0 L320,-32.0" stroke="#ddd" stroke-width="1" fill="none" />
<path d="M352,-0.0 L352,-32.0" stroke="#ddd" stroke-width="1" fill="none" />
<path d="M384,-0.0 L384,-32.0" stroke="#ddd" stroke-width="1" fill="none" />
<path d="M416,-0.0 L416,-32.0" stroke="#ddd" stroke-width="1" fill="none" />
<path d="M320,-32.0 L320,-64.0" stroke="#ddd" stroke-width="1" fill="none" />
<path d="M352,-32.0 L352,-64.0" stroke="#ddd" stroke-width="1" fill="none" />
<path d="M384,-32.0 L384,-64.0" stroke="#ddd" stroke-width="1" fill="none" />
<path d="M416,-32.0 L416,-64.0" stroke="#ddd" stroke-width="1" fill="none" />
<path d="M320,-64.0 L320,-96.0" stroke="#ddd" stroke-width="1" fill="none" />
<path d="M352,-64.0 L352,-96.0" stroke="#ddd" stroke-width="1" fill="none" />
<path d="M384,-64.0 L384,-96.0" stroke="#ddd" stroke-width="1" fill="none" />
<path d="M416,-64.0 L416,-96.0" stroke="#ddd" stroke-width="1" fill="none" />
<path d="M320,-96.0 L320,-128.0" stroke="#ddd" stroke-width="1" fill="none" />
<path d="M352,-96.0 L352,-128.0" stroke="#ddd" stroke-width="1" fill="none" />
<path d="M384,-96.0 L384,-128.0" stroke="#ddd" stroke-width="1" fill="none" />
<path d="M416,-96.0 L416,-128.0" stroke="#ddd" stroke-width="1" fill="none" />
<path d="M320,-128.0 L320,-160.0" stroke="#ddd" stroke-width="1" fill="none" />
<path d="M352,-128.0 L352,-160.0" stroke="#ddd" stroke-width="1" fill="none" />
<path d="M384,-128.0 L384,-160.0" stroke="#ddd" stroke-width="1" fill="none" />
<path d="M416,-128.0 L416,-160.0" stroke="#ddd" stroke-width="1" fill="none" />
<path d="M320,-160.0 L320,-192.0" stroke="#ddd" stroke-width="1" fill="none" />
<path d="M352,-160.0 L352,-192.0" stroke="#ddd" stroke-width="1" fill="none" />
<path d="M384,-160.0 L384,-192.0" stroke="#ddd" stroke-width="1" fill="none" />
<path d="M416,-160.0 L416,-192.0" stroke="#ddd" stroke-width="1" fill="none" />
<path d="M320,-192.0 L320,-224.0" stroke="#ddd" stroke-width="1" fill="none" />
<path d="M352,-192.0 L352,-224.0" stroke="#ddd" stroke-width="1" fill="none" />
<path d="M384,-192.0 L384,-224.0" stroke="#ddd" stroke-width="1" fill="none" />
<path d="M416,-192.0 L416,-224.0" stroke="#ddd" stroke-width="1" fill="none" />
<path d="M256,-32.0 L288,-32.0" stroke="#ddd" stroke-width="1" fill="none" />
<path d="M288,-32.0 L320,-32.0" stroke="#ddd" stroke-width="1" fill="none" />
<path d="M320,-32.0 L352,-32.0" stroke="#ddd" stroke-width="1" fill="none" />
<path d="M352,-32.0 L384,-32.0" stroke="#ddd" stroke-width="1" fill="none" />
<path d="M384,-32.0 L416,-32.0" stroke="#ddd" stroke-width="1" fill="none" />
<path d="M416,-32.0 L448,-32.0" stroke="#ddd" stroke-width="1" fill="none" />
<path d="M256,-64.0 L288,-64.0" stroke="#ddd" stroke-width="1" fill="none" />
<path d="M288,-64.0 L320,-64.0" stroke="#ddd" stroke-width="1" fill="none" />
<path d="M320,-64.0 L352,-64.0" stroke="#ddd" stroke-width="1" fill="none" />
<path d="M352,-64.0 L384,-64.0" stroke="#ddd" stroke-width="1" fill="none" />
<path d="M384,-64.0 L416,-64.0" stroke="#ddd" stroke-width="1" fill="none" />
<path d="M416,-64.0 L448,-64.0" stroke="#ddd" stroke-width="1" fill="none" />
<path d="M256,-96.0 L288,-96.0" stroke="#ddd" stroke-width="1" fill="none" />
<path d="M288,-96.0 L320,-96.0" stroke="#ddd" stroke-width="1" fill="none" />
<path d="M320,-96.0 L352,-96.0" stroke="#ddd" stroke-width="1" fill="none" />
<path d="M352,-96.0 L384,-96.0" stroke="#ddd" stroke-width="1" fill="none" />
<path d="M384,-96.0 L416,-96.0" stroke="#ddd" stroke-width="1" fill="none" />
<path d="M416,-96.0 L448,-96.0" stroke="#ddd" stroke-width="1" fill="none" />
<path d="M256,-128.0 L288,-128.0" stroke="#ddd" stroke-width="1" fill="none" />
<path d="M288,-128.0 L320,-128.0" stroke="#ddd" stroke-width="1" fill="none" />
<path d="M320,-128.0 L352,-128.0" stroke="#ddd" stroke-width="1" fill="none" />
<path d="M352,-128.0 L384,-128.0" stroke="#ddd" stroke-width="1" fill="none" />
<path d="M384,-128.0 L416,-128.0" stroke="#ddd" stroke-width="1" fill="none" />
<path d="M416,-128.0 L448,-128.0" stroke="#ddd" stroke-width="1" fill="none" />
<path d="M256,-160.0 L288,-160.0" stroke="#ddd" stroke-width="1" fill="none" />
<path d="M288,-160.0 L320,-160.0" stroke="#ddd" stroke-width="1" fill="none" />
<path d="M320,-160.0 L352,-160.0" stroke="#ddd" stroke-width="1" fill="none" />
<path d="M352,-160.0 L384,-160.0" stroke="#ddd" stroke-width="1" fill="none" />
<path d="M384,-160.0 L416,-160.0" stroke="#ddd" stroke-width="1" fill="none" />
<path d="M416,-160.0 L448,-160.0" stroke="#ddd" stroke-width="1" fill="none" />
<path d="M256,-192.0 L288,-192.0" stroke="#ddd" stroke-width="1" fill="none" />
<path d="M288,-192.0 L320,-192.0" stroke="#ddd" stroke-width="1" fill="none" />
<path d="M320,-192.0 L352,-192.0" stroke="#ddd" stroke-width="1" fill="none" />
<path d="M352,-192.0 L384,-192.0" stroke="#ddd" stroke-width="1" fill="none" />
<path d="M384,-192.0 L416,-192.0" stroke="#ddd" stroke-width="1" fill="none" />
<path d="M416,-192.0 L448,-192.0" stroke="#ddd" stroke-width="1" fill="none" />
<path d="M544,-16.0 L544,-48.0" stroke="#ddd" stroke-width="1" fill="none" />
<path d="M576,-16.0 L576,-48.0" stroke="#ddd" stroke-width="1" fill="none" />
<path d="M608,-16.0 L608,-48.0" stroke="#ddd" stroke-width="1" fill="none" />
<path d="M640,-16.0 L640,-48.0" stroke="#ddd" stroke-width="1" fill="none" />
<path d="M544,-48.0 L544,-80.0" stroke="#ddd" stroke-width="1" fill="none" />
<path d="M576,-48.0 L576,-80.0" stroke="#ddd" stroke-width="1" fill="none" />
<path d="M608,-48.0 L608,-80.0" stroke="#ddd" stroke-width="1" fill="none" />
<path d="M640,-48.0 L640,-80.0" stroke="#ddd" stroke-width="1" fill="none" />
<path d="M544,-80.0 L544,-112.0" stroke="#ddd" stroke-width="1" fill="none" />
<path d="M576,-80.0 L576,-112.0" stroke="#ddd" stroke-width="1" fill="none" />
<path d="M608,-80.0 L608,-112.0" stroke="#ddd" stroke-width="1" fill="none" />
<path d="M640,-80.0 L640,-112.0" stroke="#ddd" stroke-width="1" fill="none" />
<path d="M544,-112.0 L544,-144.0" stroke="#ddd" stroke-width="1" fill="none" />
<path d="M576,-112.0 L576,-144.0" stroke="#ddd" stroke-width="1" fill="none" />
<path d="M608,-112.0 L608,-144.0" stroke="#ddd" stroke-width="1" fill="none" />
<path d="M640,-112.0 L640,-144.0" stroke="#ddd" stroke-width="1" fill="none" />
<path d="M544,-144.0 L544,-176.0" stroke="#ddd" stroke-width="1" fill="none" />
<path d="M576,-144.0 L576,-176.0" stroke="#ddd" stroke-width="1" fill="none" />
<path d="M608,-144.0 L608,-176.0" stroke="#ddd" stroke-width="1" fill="none" />
<path d="M640,-144.0 L640,-176.0" stroke="#ddd" stroke-width="1" fill="none" />
<path d="M544,-176.0 L544,-208.0" stroke="#ddd" stroke-width="1" fill="none" />
<path d="M576,-176.0 L576,-208.0" stroke="#ddd" stroke-width="1" fill="none" />
<path d="M608,-176.0 L608,-208.0" stroke="#ddd" stroke-width="1" fill="none" />
<path d="M640,-176.0 L640,-208.0" stroke="#ddd" stroke-width="1" fill="none" />
<path d="M480,-48.0 L512,-48.0" stroke="#ddd" stroke-width="1" fill="none" />
<path d="M512,-48.0 L544,-48.0" stroke="#ddd" stroke-width="1" fill="none" />
<path d="M544,-48.0 L576,-48.0" stroke="#ddd" stroke-width="1" fill="none" />
<path d="M576,-48.0 L608,-48.0" stroke="#ddd" stroke-width="1" fill="none" />
<path d="M608,-48.0 L640,-48.0" stroke="#ddd" stroke-width="1" fill="none" />
<path d="M640,-48.0 L672,-48.0" stroke="#ddd" stroke-width="1" fill="none" />
<path d="M480,-80.0 L512,-80.0" stroke="#ddd" stroke-width="1" fill="none" />
<path d="M512,-80.0 L544,-80.0" stroke="#ddd" stroke-width="1" fill="none" />
<path d="M544,-80.0 L576,-80.0" stroke="#ddd" stroke-width="1" fill="none" />
<path d="M576,-80.0 L608,-80.0" stroke="#ddd" stroke-width="1" fill="none" />
<path d="M608,-80.0 L640,-80.0" stroke="#ddd" stroke-width="1" fill="none" />
<path d="M640,-80.0 L672,-80.0" stroke="#ddd" stroke-width="1" fill="none" />
<path d="M480,-112.0 L512,-112.0" stroke="#ddd" stroke-width="1" fill="none" />
<path d="M512,-112.0 L544,-112.0" stroke="#ddd" stroke-width="1" fill="none" />
<path d="M544,-112.0 L576,-112.0" stroke="#ddd" stroke-width="1" fill="none" />
<path d="M576,-112.0 L608,-112.0" stroke="#ddd" stroke-width="1" fill="none" />
<path d="M608,-112.0 L640,-112.0" stroke="#ddd" stroke-width="1" fill="none" />
<path d="M640,-112.0 L672,-112.0" stroke="#ddd" stroke-width="1" fill="none" />
<path d="M480,-144.0 L512,-144.0" stroke="#ddd" stroke-width="1" fill="none" />
<path d="M512,-144.0 L544,-144.0" stroke="#ddd" stroke-width="1" fill="none" />
<path d="M544,-144.0 L576,-144.0" stroke="#ddd" stroke-width="1" fill="none" />
<path d="M576,-144.0 L608,-144.0" stroke="#ddd" stroke-width="1" fill="none" />
<path d="M608,-144.0 L640,-144.0" stroke="#ddd" stroke-width="1" fill="none" />
<path d="M640,-144.0 L672,-144.0" stroke="#ddd" stroke-width="1" fill="none" />
<path d="M480,-176.0 L512,-176.0" stroke="#ddd" stroke-width="1" fill="none" />
<path d="M512,-176.0 L544,-176.0" stroke="#ddd" stroke-width="1" fill="none" />
<path d="M544,-176.0 L576,-176.0" stroke="#ddd" stroke-width="1" fill="none" />
<path d="M576,-176.0 L608,-176.0" stroke="#ddd" stroke-width="1" fill="none" />
<path d="M608,-176.0 L640,-176.0" stroke="#ddd" stroke-width="1" fill="none" />
<path d="M640,-176.0 L672,-176.0" stroke="#ddd" stroke-width="1" fill="none" />
<path d="M768,-16.0 L768,-48.0" stroke="#ddd" stroke-width="1" fill="none" />
<path d="M800,-16.0 L800,-48.0" stroke="#ddd" stroke-width="1" fill="none" />
<path d="M768,-48.0 L768,-80.0" stroke="#ddd" stroke-width="1" fill="none" />
<path d="M800,-48.0 L800,-80.0" stroke="#ddd" stroke-width="1" fill="none" />
<path d="M768,-80.0 L768,-112.0" stroke="#ddd" stroke-width="1" fill="none" />
<path d="M800,-80.0 L800,-112.0" stroke="#ddd" stroke-width="1" fill="none" />
<path d="M768,-112.0 L768,-144.0" stroke="#ddd" stroke-width="1" fill="none" />
<path d="M800,-112.0 L800,-144.0" stroke="#ddd" stroke-width="1" fill="none" />
<path d="M768,-144.0 L768,-176.0" stroke="#ddd" stroke-width="1" fill="none" />
<path d="M800,-144.0 L800,-176.0" stroke="#ddd" stroke-width="1" fill="none" />
<path d="M768,-176.0 L768,-208.0" stroke="#ddd" stroke-width="1" fill="none" />
<path d="M800,-176.0 L800,-208.0" stroke="#ddd" stroke-width="1" fill="none" />
<path d="M704,-48.0 L736,-48.0" stroke="#ddd" stroke-width="1" fill="none" />
<path d="M736,-48.0 L768,-48.0" stroke="#ddd" stroke-width="1" fill="none" />
<path d="M768,-48.0 L800,-48.0" stroke="#ddd" stroke-width="1" fill="none" />
<path d="M800,-48.0 L832,-48.0" stroke="#ddd" stroke-width="1" fill="none" />
<path d="M704,-80.0 L736,-80.0" stroke="#ddd" stroke-width="1" fill="none" />
<path d="M736,-80.0 L768,-80.0" stroke="#ddd" stroke-width="1" fill="none" />
<path d="M768,-80.0 L800,-80.0" stroke="#ddd" stroke-width="1" fill="none" />
<path d="M800,-80.0 L832,-80.0" stroke="#ddd" stroke-width="1" fill="none" />
<path d="M832,-80.0 L864,-80.0" stroke="#ddd" stroke-width="1" fill="none" />
<path d="M704,-112.0 L736,-112.0" stroke="#ddd" stroke-width="1" fill="none" />
<path d="M736,-112.0 L768,-112.0" stroke="#ddd" stroke-width="1" fill="none" />
<path d="M768,-112.0 L800,-112.0" stroke="#ddd" stroke-width="1" fill="none" />
<path d="M800,-112.0 L832,-112.0" stroke="#ddd" stroke-width="1" fill="none" />
<path d="M832,-112.0 L864,-112.0" stroke="#ddd" stroke-width="1" fill="none" />
<path d="M704,-144.0 L736,-144.0" stroke="#ddd" stroke-width="1" fill="none" />
<path d="M736,-144.0 L768,-144.0" stroke="#ddd" stroke-width="1" fill="none" />
<path d="M768,-144.0 L800,-144.0" stroke="#ddd" stroke-width="1" fill="none" />
<path d="M800,-144.0 L832,-144.0" stroke="#ddd" stroke-width="1" fill="none" />
<path d="M832,-144.0 L864,-144.0" stroke="#ddd" stroke-width="1" fill="none" />
<path d="M704,-176.0 L736,-176.0" stroke="#ddd" stroke-width="1" fill="none" />
<path d="M736,-176.0 L768,-176.0" stroke="#ddd" stroke-width="1" fill="none" />
<path d="M768,-176.0 L800,-176.0" stroke="#ddd" stroke-width="1" fill="none" />
<path d="M800,-176.0 L832,-176.0" stroke="#ddd" stroke-width="1" fill="none" />
<path d="M832,-176.0 L864,-176.0" stroke="#ddd" stroke-width="1" fill="none" />
<path d="M960,-48.0 L960,-80.0" stroke="#ddd" stroke-width="1" fill="none" />
<path d="M992,-48.0 L992,-80.0" stroke="#ddd" stroke-width="1" fill="none" />
<path d="M960,-80.0 L960,-112.0" stroke="#ddd" stroke-width="1" fill="none" />
<path d="M992,-80.0 L992,-112.0" stroke="#ddd" stroke-width="1" fill="none" />
<path d="M960,-112.0 L960,-144.0" stroke="#ddd" stroke-width="1" fill="none" />
<path d="M992,-112.0 L992,-144.0" stroke="#ddd" stroke-width="1" fill="none" />
<path d="M960,-144.0 L960,-176.0" stroke="#ddd" stroke-width="1" fill="none" />
<path d="M992,-144.0 L992,-176.0" stroke="#ddd" stroke-width="1" fill="none" />
<path d="M896,-80.0 L928,-80.0" stroke="#ddd" stroke-width="1" fill="none" />
<path d="M928,-80.0 L960,-80.0" stroke="#ddd" stroke-width="1" fill="none" />
<path d="M960,-80.0 L992,-80.0" stroke="#ddd" stroke-width="1" fill="none" />
<path d="M992,-80.0 L1024,-80.0" stroke="#ddd" stroke-width="1" fill="none" />
<path d="M896,-112.0 L928,-112.0" stroke="#ddd" stroke-width="1" fill="none" />
<path d="M928,-112.0 L960,-112.0" stroke="#ddd" stroke-width="1" fill="none" />
<path d="M960,-112.0 L992,-112.0" stroke="#ddd" stroke-width="1" fill="none" />
<path d="M992,-112.0 L1024,-112.0" stroke="#ddd" stroke-width="1" fill="none" />
<path d="M1024,-112.0 L1056,-112.0" stroke="#ddd" stroke-width="1" fill="none" />
<path d="M896,-144.0 L928,-144.0" stroke="#ddd" stroke-width="1" fill="none" />
<path d="M928,-144.0 L960,-144.0" stroke="#ddd" stroke-width="1" fill="none" />
<path d="M960,-144.0 L992,-144.0" stroke="#ddd" stroke-width="1" fill="none" />
<path d="M992,-144.0 L1024,-144.0" stroke="#ddd" stroke-width="1" fill="none" />
<path d="M1024,-144.0 L1056,-144.0" stroke="#ddd" stroke-width="1" fill="none" />
<path d="M1120,-80.0 L1120,-112.0" stroke="#ddd" stroke-width="1" fill="none" />
<path d="M1152,-112.0 L1184,-112.0" stroke="#ddd" stroke-width="1" fill="none" />
<path d="M1088,-144.0 L1120,-144.0" stroke="#ddd" stroke-width="1" fill="none" />
<path d="M1120,-144.0 L1152,-144.0" stroke="#ddd" stroke-width="1" fill="none" />
<path d="M1152,-144.0 L1184,-144.0" stroke="#ddd" stroke-width="1" fill="none" />
<path d="M1248,-96.0 L1248,-128.0" stroke="#ddd" stroke-width="1" fill="none" />
<path d="M1248,-128.0 L1248,-160.0" stroke="#ddd" stroke-width="1" fill="none" />
<path d="M352.0,-13.524791385931955 A36.950417228136054,36.950417228136054,0,0,0,352.0,-50.47520861406802" stroke="grey" stroke-width="1" fill="none" marker-end="url(#d0)" />
<path d="M784.0,-162.47520861406804 A36.950417228136054,36.950417228136054,0,0,1,784.0,-125.52479138593196" stroke="grey" stroke-width="1" fill="none" marker-end="url(#d0)" />
<path d="M0,-0.0 L224,-0.0 L224,-224.0 L0,-224.0 Z" stroke="black" stroke-width="2" fill="none" />
<path d="M288,-0.0 L288,-32.0" stroke="black" stroke-width="2" fill="none" />
<path d="M288,-32.0 L288,-64.0" stroke="black" stroke-width="2" fill="none" />
<path d="M288,-64.0 L288,-96.0" stroke="black" stroke-width="2" fill="none" />
<path d="M288,-96.0 L288,-128.0" stroke="black" stroke-width="2" fill="none" />
<path d="M288,-128.0 L288,-160.0" stroke="black" stroke-width="2" fill="none" />
<path d="M288,-160.0 L288,-192.0" stroke="black" stroke-width="2" fill="none" />
<path d="M288,-192.0 L288,-224.0" stroke="black" stroke-width="2" fill="none" />
<path d="M256,-0.0 L448,-0.0 L448,-224.0 L256,-224.0 Z" stroke="black" stroke-width="2" fill="none" />
<path d="M512,-16.0 L512,-48.0" stroke="black" stroke-width="2" fill="none" />
<path d="M512,-48.0 L512,-80.0" stroke="black" stroke-width="2" fill="none" />
<path d="M512,-80.0 L512,-112.0" stroke="black" stroke-width="2" fill="none" />
<path d="M512,-112.0 L512,-144.0" stroke="black" stroke-width="2" fill="none" />
<path d="M512,-144.0 L512,-176.0" stroke="black" stroke-width="2" fill="none" />
<path d="M512,-176.0 L512,-208.0" stroke="black" stroke-width="2" fill="none" />
<path d="M480,-16.0 L672,-16.0 L672,-208.0 L480,-208.0 Z" stroke="black" stroke-width="2" fill="none" />
<path d="M736,-16.0 L736,-48.0" stroke="black" stroke-width="2" fill="none" />
<path d="M832,-16.0 L832,-48.0" stroke="black" stroke-width="2" fill="none" />
<path d="M736,-48.0 L736,-80.0" stroke="black" stroke-width="2" fill="none" />
<path d="M832,-48.0 L832,-80.0" stroke="black" stroke-width="2" fill="none" />
<path d="M736,-80.0 L736,-112.0" stroke="black" stroke-width="2" fill="none" />
<path d="M832,-80.0 L832,-112.0" stroke="black" stroke-width="2" fill="none" />
<path d="M736,-112.0 L736,-144.0" stroke="black" stroke-width="2" fill="none" />
<path d="M832,-112.0 L832,-144.0" stroke="black" stroke-width="2" fill="none" />
<path d="M736,-144.0 L736,-176.0" stroke="black" stroke-width="2" fill="none" />
<path d="M832,-144.0 L832,-176.0" stroke="black" stroke-width="2" fill="none" />
<path d="M736,-176.0 L736,-208.0" stroke="black" stroke-width="2" fill="none" />
<path d="M832,-176.0 L832,-208.0" stroke="black" stroke-width="2" fill="none" />
<path d="M832,-48.0 L864,-48.0" stroke="black" stroke-width="2" fill="none" />
<path d="M704,-16.0 L864,-16.0 L864,-208.0 L704,-208.0 Z" stroke="black" stroke-width="2" fill="none" />
<path d="M928,-48.0 L928,-80.0" stroke="black" stroke-width="2" fill="none" />
<path d="M1024,-48.0 L1024,-80.0" stroke="black" stroke-width="2" fill="none" />
<path d="M928,-80.0 L928,-112.0" stroke="black" stroke-width="2" fill="none" />
<path d="M1024,-80.0 L1024,-112.0" stroke="black" stroke-width="2" fill="none" />
<path d="M928,-112.0 L928,-144.0" stroke="black" stroke-width="2" fill="none" />
<path d="M1024,-112.0 L1024,-144.0" stroke="black" stroke-width="2" fill="none" />
<path d="M928,-144.0 L928,-176.0" stroke="black" stroke-width="2" fill="none" />
<path d="M1024,-144.0 L1024,-176.0" stroke="black" stroke-width="2" fill="none" />
<path d="M1024,-80.0 L1056,-80.0" stroke="black" stroke-width="2" fill="none" />
<path d="M896,-48.0 L1056,-48.0 L1056,-176.0 L896,-176.0 Z" stroke="black" stroke-width="2" fill="none" />
<path d="M1120,-48.0 L1120,-80.0" stroke="black" stroke-width="2" fill="none" />
<path d="M1152,-48.0 L1152,-80.0" stroke="black" stroke-width="2" fill="none" />
<path d="M1152,-80.0 L1152,-112.0" stroke="black" stroke-width="2" fill="none" />
<path d="M1120,-112.0 L1120,-144.0" stroke="black" stroke-width="2" fill="none" />
<path d="M1152,-112.0 L1152,-144.0" stroke="black" stroke-width="2" fill="none" />
<path d="M1120,-144.0 L1120,-176.0" stroke="black" stroke-width="2" fill="none" />
<path d="M1152,-144.0 L1152,-176.0" stroke="black" stroke-width="2" fill="none" />
<path d="M1088,-80.0 L1120,-80.0" stroke="black" stroke-width="2" fill="none" />
<path d="M1120,-80.0 L1152,-80.0" stroke="black" stroke-width="2" fill="none" />
<path d="M1152,-80.0 L1184,-80.0" stroke="black" stroke-width="2" fill="none" />
<path d="M1088,-112.0 L1120,-112.0" stroke="black" stroke-width="2" fill="none" />
<path d="M1120,-112.0 L1152,-112.0" stroke="black" stroke-width="2" fill="none" />
<path d="M1088,-48.0 L1184,-48.0 L1184,-176.0 L1088,-176.0 Z" stroke="black" stroke-width="2" fill="none" />
<path d="M1248,-64.0 L1248,-96.0" stroke="black" stroke-width="2" fill="none" />
<path d="M1280,-64.0 L1280,-96.0" stroke="black" stroke-width="2" fill="none" />
<path d="M1280,-96.0 L1280,-128.0" stroke="black" stroke-width="2" fill="none" />
<path d="M1280,-128.0 L1280,-160.0" stroke="black" stroke-width="2" fill="none" />
<path d="M1216,-96.0 L1248,-96.0" stroke="black" stroke-width="2" fill="none" />
<path d="M1248,-96.0 L1280,-96.0" stroke="black" stroke-width="2" fill="none" />
<path d="M1280,-96.0 L1312,-96.0" stroke="black" stroke-width="2" fill="none" />
<path d="M1216,-128.0 L1248,-128.0" stroke="black" stroke-width="2" fill="none" />
<path d="M1248,-128.0 L1280,-128.0" stroke="black" stroke-width="2" fill="none" />
<path d="M1280,-128.0 L1312,-128.0" stroke="black" stroke-width="2" fill="none" />
<path d="M1216,-64.0 L1312,-64.0 L1312,-160.0 L1216,-160.0 Z" stroke="black" stroke-width="2" fill="none" />
<path d="M13.52479138593198,-112.0 A36.950417228136054,36.950417228136054,0,0,1,50.47520861406803,-112.0" stroke="black" stroke-width="1" fill="none" marker-end="url(#d1)" />
<path d="M658.475208614068,-112.0 A36.950417228136054,36.950417228136054,0,0,0,621.524791385932,-112.0" stroke="black" stroke-width="1" fill="none" marker-end="url(#d1)" />
<path d="M941.524791385932,-112.0 A36.950417228136054,36.950417228136054,0,0,1,978.475208614068,-112.0" stroke="black" stroke-width="1" fill="none" marker-end="url(#d1)" />
<path d="M1136.0,-162.47520861406804 A36.950417228136054,36.950417228136054,0,0,0,1136.0,-125.52479138593196" stroke="black" stroke-width="1" fill="none" marker-end="url(#d1)" />
<path d="M32,-0.0 L32,-224.0" stroke="black" stroke-width="1" fill="none" stroke-dasharray="4" />
<path d="M256,-32.0 L448,-32.0" stroke="black" stroke-width="1" fill="none" stroke-dasharray="10 2 2 2" />
<path d="M640,-16.0 L640,-208.0" stroke="black" stroke-width="1" fill="none" stroke-dasharray="4" />
<path d="M704,-144.0 L864,-144.0" stroke="black" stroke-width="1" fill="none" stroke-dasharray="10 2 2 2" />
<path d="M960,-48.0 L960,-176.0" stroke="black" stroke-width="1" fill="none" stroke-dasharray="4" />
<path d="M1088,-144.0 L1184,-144.0" stroke="black" stroke-width="1" fill="none" stroke-dasharray="4" />
</svg>