<?xml version="1.0" encoding="UTF-8"?>
<svg xmlns="http://www.w3.org/2000/svg" xmlns:xlink="http://www.w3.org/1999/xlink"
     width="1569" height="225" viewBox="0 -225 1569 225">
<defs>
<marker markerWidth="4.0" markerHeight="4.0" viewBox="-0.1 -0.5 1.0 1.0" orient="auto" stroke="grey" id="d0">
<path d="M-0.1,0.5 L-0.1,-0.5 L0.9,0 Z" stroke-width="0.1" stroke="grey" fill="white" />
</marker>
<marker markerWidth="4.0" markerHeight="4.0" viewBox="-0.1 -0.5 1.0 1.0" orient="auto" id="d1">
<path d="M-0.1,0.5 L-0.1,-0.5 L0.9,0 Z" stroke-width="0.1" stroke="black" fill="black" />
</marker>
</defs>
<rect x="0" y="-33.0" width="33" height="33" fill="white" />
<rect x="32" y="-33.0" width="33" height="33" fill="white" />
<rect x="64" y="-33.0" width="33" height="33" fill="white" />
<rect x="96" y="-33.0" width="33" height="33" fill="white" />
<rect x="128" y="-33.0" width="33" height="33" fill="white" />
<rect x="160" y="-33.0" width="33" height="33" fill="white" />
<rect x="192" y="-33.0" width="33" height="33" fill="white" />
<rect x="0" y="-65.0" width="33" height="33" fill="white" />
<rect x="32" y="-65.0" width="33" height="33" fill="white" />
<rect x="64" y="-65.0" width="33" height="33" fill="white" />
<rect x="96" y="-65.0" width="33" height="33" fill="white" />
<rect x="128" y="-65.0" width="33" height="33" fill="white" />
<rect x="160" y="-65.0" width="33" height="33" fill="white" />
<rect x="192" y="-65.0" width="33" height="33" fill="white" />
<rect x="0" y="-97.0" width="33" height="33" fill="white" />
<rect x="32" y="-97.0" width="33" height="33" fill="white" />
<rect x="64" y="-97.0" width="33" height="33" fill="white" />
<rect x="96" y="-97.0" width="33" height="33" fill="white" />
<rect x="128" y="-97.0" width="33" height="33" fill="white" />
<rect x="160" y="-97.0" width="33" height="33" fill="white" />
<rect x="192" y="-97.0" width="33" height="33" fill="white" />
<rect x="0" y="-129.0" width="33" height="33" fill="white" />
<rect x="32" y="-129.0" width="33" height="33" fill="white" />
<rect x="64" y="-129.0" width="33" height="33" fill="white" />
<rect x="96" y="-129.0" width="33" height="33" fill="white" />
<rect x="128" y="-129.0" width="33" height="33" fill="white" />
<rect x="160" y="-129.0" width="33" height="33" fill="white" />
<rect x="192" y="-129.0" width="33" height="33" fill="white" />
<rect x="0" y="-161.0" width="33" height="33" fill="white" />
<rect x="32" y="-161.0" width="33" height="33" fill="white" />
<rect x="64" y="-161.0" width="33" height="33" fill="white" />
<rect x="96" y="-161.0" width="33" height="33" fill="white" />
<rect x="128" y="-161.0" width="33" height="33" fill="white" />
<rect x="160" y="-161.0" width="33" height="33" fill="white" />
<rect x="192" y="-161.0" width="33" height="33" fill="white" />
<rect x="0" y="-193.0" width="33" height="33" fill="white" />
<rect x="32" y="-193.0" width="33" height="33" fill="white" />
<rect x="64" y="-193.0" width="33" height="33" fill="white" />
<rect x="96" y="-193.0" width="33" height="33" fill="white" />
<rect x="128" y="-193.0" width="33" height="33" fill="white" />
<rect x="160" y="-193.0" width="33" height="33" fill="white" />
<rect x="192" y="-193.0" width="33" height="33" fill="white" />
<rect x="0" y="-225.0" width="33" height="33" fill="white" />
<rect x="32" y="-225.0" width="33" height="33" fill="white" />
<rect x="64" y="-225.0" width="33" height="33" fill="white" />
<rect x="96" y="-225.0" width="33" height="33" fill="white" />
<rect x="128" y="-225.0" width="33" height="33" fill="white" />
<rect x="160" y="-225.0" width="33" height="33" fill="white" />
<rect x="192" y="-225.0" width="33" height="33" fill="white" />
<rect x="256" y="-49.0" width="33" height="33" fill="white" />
<rect x="288" y="-49.0" width="33" height="33" fill="white" />
<rect x="320" y="-49.0" width="33" height="33" fill="white" />
<rect x="352" y="-49.0" width="33" height="33" fill="white" />
<rect x="384" y="-49.0" width="33" height="33" fill="white" />
<rect x="416" y="-49.0" width="33" height="33" fill="white" />
<rect x="448" y="-49.0" width="33" height="33" fill="white" />
<rect x="256" y="-81.0" width="33" height="33" fill="white" />
<rect x="288" y="-81.0" width="33" height="33" fill="white" />
<rect x="320" y="-81.0" width="33" height="33" fill="white" />
<rect x="352" y="-81.0" width="33" height="33" fill="white" />
<rect x="384" y="-81.0" width="33" height="33" fill="white" />
<rect x="416" y="-81.0" width="33" height="33" fill="white" />
<rect x="448" y="-81.0" width="33" height="33" fill="white" />
<rect x="256" y="-113.0" width="33" height="33" fill="white" />
<rect x="288" y="-113.0" width="33" height="33" fill="white" />
<rect x="320" y="-113.0" width="33" height="33" fill="white" />
<rect x="352" y="-113.0" width="33" height="33" fill="white" />
<rect x="384" y="-113.0" width="33" height="33" fill="white" />
<rect x="416" y="-113.0" width="33" height="33" fill="white" />
<rect x="448" y="-113.0" width="33" height="33" fill="white" />
<rect x="256" y="-145.0" width="33" height="33" fill="white" />
<rect x="288" y="-145.0" width="33" height="33" fill="white" />
<rect x="320" y="-145.0" width="33" height="33" fill="white" />
<rect x="352" y="-145.0" width="33" height="33" fill="white" />
<rect x="384" y="-145.0" width="33" height="33" fill="white" />
<rect x="416" y="-145.0" width="33" height="33" fill="white" />
<rect x="448" y="-145.0" width="33" height="33" fill="white" />
<rect x="256" y="-177.0" width="33" height="33" fill="white" />
<rect x="288" y="-177.0" width="33" height="33" fill="white" />
<rect x="320" y="-177.0" width="33" height="33" fill="white" />
<rect x="352" y="-177.0" width="33" height="33" fill="white" />
<rect x="384" y="-177.0" width="33" height="33" fill="white" />
<rect x="416" y="-177.0" width="33" height="33" fill="white" />
<rect x="448" y="-177.0" width="33" height="33" fill="white" />
<rect x="256" y="-209.0" width="33" height="33" fill="#bbb" />
<rect x="288" y="-209.0" width="33" height="33" fill="#bbb" />
<rect x="320" y="-209.0" width="33" height="33" fill="#bbb" />
<rect x="352" y="-209.0" width="33" height="33" fill="#bbb" />
<rect x="384" y="-209.0" width="33" height="33" fill="#bbb" />
<rect x="416" y="-209.0" width="33" height="33" fill="#bbb" />
<rect x="448" y="-209.0" width="33" height="33" fill="#bbb" />
<rect x="512" y="-49.0" width="33" height="33" fill="white" />
<rect x="544" y="-49.0" width="33" height="33" fill="white" />
<rect x="576" y="-49.0" width="33" height="33" fill="white" />
<rect x="608" y="-49.0" width="33" height="33" fill="white" />
<rect x="640" y="-49.0" width="33" height="33" fill="white" />
<rect x="672" y="-49.0" width="33" height="33" fill="white" />
<rect x="512" y="-81.0" width="33" height="33" fill="white" />
<rect x="544" y="-81.0" width="33" height="33" fill="white" />
<rect x="576" y="-81.0" width="33" height="33" fill="white" />
<rect x="608" y="-81.0" width="33" height="33" fill="white" />
<rect x="640" y="-81.0" width="33" height="33" fill="white" />
<rect x="672" y="-81.0" width="33" height="33" fill="white" />
<rect x="512" y="-113.0" width="33" height="33" fill="white" />
<rect x="544" y="-113.0" width="33" height="33" fill="white" />
<rect x="576" y="-113.0" width="33" height="33" fill="white" />
<rect x="608" y="-113.0" width="33" height="33" fill="white" />
<rect x="640" y="-113.0" width="33" height="33" fill="white" />
<rect x="672" y="-113.0" width="33" height="33" fill="white" />
<rect x="512" y="-145.0" width="33" height="33" fill="white" />
<rect x="544" y="-145.0" width="33" height="33" fill="white" />
<rect x="576" y="-145.0" width="33" height="33" fill="white" />
<rect x="608" y="-145.0" width="33" height="33" fill="white" />
<rect x="640" y="-145.0" width="33" height="33" fill="white" />
<rect x="672" y="-145.0" width="33" height="33" fill="white" />
<rect x="512" y="-177.0" width="33" height="33" fill="white" />
<rect x="544" y="-177.0" width="33" height="33" fill="white" />
<rect x="576" y="-177.0" width="33" height="33" fill="white" />
<rect x="608" y="-177.0" width="33" height="33" fill="white" />
<rect x="640" y="-177.0" width="33" height="33" fill="white" />
<rect x="672" y="-177.0" width="33" height="33" fill="white" />
<rect x="512" y="-209.0" width="33" height="33" fill="#bbb" />
<rect x="544" y="-209.0" width="33" height="33" fill="#bbb" />
<rect x="576" y="-209.0" width="33" height="33" fill="#bbb" />
<rect x="608" y="-209.0" width="33" height="33" fill="#bbb" />
<rect x="640" y="-209.0" width="33" height="33" fill="#bbb" />
<rect x="672" y="-209.0" width="33" height="33" fill="#bbb" />
<rect x="736" y="-49.0" width="33" height="33" fill="white" />
<rect x="768" y="-49.0" width="33" height="33" fill="white" />
<rect x="800" y="-49.0" width="33" height="33" fill="white" />
<rect x="832" y="-49.0" width="33" height="33" fill="white" />
<rect x="864" y="-49.0" width="33" height="33" fill="white" />
<rect x="736" y="-81.0" width="33" height="33" fill="white" />
<rect x="768" y="-81.0" width="33" height="33" fill="white" />
<rect x="800" y="-81.0" width="33" height="33" fill="white" />
<rect x="832" y="-81.0" width="33" height="33" fill="white" />
<rect x="864" y="-81.0" width="33" height="33" fill="white" />
<rect x="736" y="-113.0" width="33" height="33" fill="white" />
<rect x="768" y="-113.0" width="33" height="33" fill="white" />
<rect x="800" y="-113.0" width="33" height="33" fill="white" />
<rect x="832" y="-113.0" width="33" height="33" fill="white" />
<rect x="864" y="-113.0" width="33" height="33" fill="white" />
<rect x="736" y="-145.0" width="33" height="33" fill="white" />
<rect x="768" y="-145.0" width="33" height="33" fill="white" />
<rect x="800" y="-145.0" width="33" height="33" fill="white" />
<rect x="832" y="-145.0" width="33" height="33" fill="white" />
<rect x="864" y="-145.0" width="33" height="33" fill="white" />
<rect x="736" y="-177.0" width="33" height="33" fill="white" />
<rect x="768" y="-177.0" width="33" height="33" fill="white" />
<rect x="800" y="-177.0" width="33" height="33" fill="white" />
<rect x="832" y="-177.0" width="33" height="33" fill="white" />
<rect x="864" y="-177.0" width="33" height="33" fill="white" />
<rect x="736" y="-209.0" width="33" height="33" fill="#bbb" />
<rect x="768" y="-209.0" width="33" height="33" fill="#bbb" />
<rect x="800" y="-209.0" width="33" height="33" fill="#bbb" />
<rect x="832" y="-209.0" width="33" height="33" fill="#bbb" />
<rect x="864" y="-209.0" width="33" height="33" fill="#bbb" />
<rect x="928" y="-81.0" width="33" height="33" fill="white" />
<rect x="960" y="-81.0" width="33" height="33" fill="#bbb" />
<rect x="992" y="-81.0" width="33" height="33" fill="#bbb" />
<rect x="1024" y="-81.0" width="33" height="33" fill="#bbb" />
<rect x="1056" y="-81.0" width="33" height="33" fill="white" />
<rect x="928" y="-113.0" width="33" height="33" fill="white" />
<rect x="960" y="-113.0" width="33" height="33" fill="#bbb" />
<rect x="992" y="-113.0" width="33" height="33" fill="#bbb" />
<rect x="1024" y="-113.0" width="33" height="33" fill="#bbb" />
<rect x="1056" y="-113.0" width="33" height="33" fill="white" />
<rect x="928" y="-145.0" width="33" height="33" fill="white" />
<rect x="960" y="-145.0" width="33" height="33" fill="white" />
<rect x="992" y="-145.0" width="33" height="33" fill="white" />
<rect x="1024" y="-145.0" width="33" height="33" fill="white" />
<rect x="1056" y="-145.0" width="33" height="33" fill="white" />
<rect x="928" y="-177.0" width="33" height="33" fill="#bbb" />
<rect x="960" y="-177.0" width="33" height="33" fill="#bbb" />
<rect x="992" y="-177.0" width="33" height="33" fill="#bbb" />
<rect x="1024" y="-177.0" width="33" height="33" fill="#bbb" />
<rect x="1056" y="-177.0" width="33" height="33" fill="#bbb" />
<rect x="1120" y="-97.0" width="33" height="33" fill="white" />
<rect x="1152" y="-97.0" width="33" height="33" fill="#bbb" />
<rect x="1184" y="-97.0" width="33" height="33" fill="#bbb" />
<rect x="1216" y="-97.0" width="33" height="33" fill="#bbb" />
<rect x="1248" y="-97.0" width="33" height="33" fill="white" />
<rect x="1120" y="-129.0" width="33" height="33" fill="white" />
<rect x="1152" y="-129.0" width="33" height="33" fill="#bbb" />
<rect x="1184" y="-129.0" width="33" height="33" fill="#bbb" />
<rect x="1216" y="-129.0" width="33" height="33" fill="#bbb" />
<rect x="1248" y="-129.0" width="33" height="33" fill="white" />
<rect x="1120" y="-161.0" width="33" height="33" fill="white" />
<rect x="1152" y="-161.0" width="33" height="33" fill="white" />
<rect x="1184" y="-161.0" width="33" height="33" fill="white" />
<rect x="1216" y="-161.0" width="33" height="33" fill="white" />
<rect x="1248" y="-161.0" width="33" height="33" fill="white" />
<rect x="1312" y="-97.0" width="33" height="33" fill="white" />
<rect x="1344" y="-97.0" width="33" height="33" fill="#bbb" />
<rect x="1376" y="-97.0" width="33" height="33" fill="#bbb" />
<rect x="1408" y="-97.0" width="33" height="33" fill="white" />
<rect x="1312" y="-129.0" width="33" height="33" fill="white" />
<rect x="1344" y="-129.0" width="33" height="33" fill="#bbb" />
<rect x="1376" y="-129.0" width="33" height="33" fill="#bbb" />
<rect x="1408" y="-129.0" width="33" height="33" fill="white" />
<rect x="1312" y="-161.0" width="33" height="33" fill="white" />
<rect x="1344" y="-161.0" width="33" height="33" fill="white" />
<rect x="1376" y="-161.0" width="33" height="33" fill="white" />
<rect x="1408" y="-161.0" width="33" height="33" fill="#bbb" />
<rect x="1472" y="-97.0" width="33" height="33" fill="white" />
<rect x="1504" y="-97.0" width="33" height="33" fill="#bbb" />
<rect x="1536" y="-97.0" width="33" height="33" fill="white" />
<rect x="1472" y="-129.0" width="33" height="33" fill="white" />
<rect x="1504" y="-129.0" width="33" height="33" fill="#bbb" />
<rect x="1536" y="-129.0" width="33" height="33" fill="white" />
<rect x="1472" y="-161.0" width="33" height="33" fill="#bbb" />
<rect x="1504" y="-161.0" width="33" height="33" fill="white" />
<rect x="1536" y="-161.0" width="33" height="33" fill="#bbb" />
<path d="M32,-0.0 L32,-32.0" stroke="#ddd" stroke-width="1" fill="none" />
<path d="M64,-0.0 L64,-32.0" stroke="#ddd" stroke-width="1" fill="none" />
<path d="M96,-0.0 L96,-32.0" stroke="#ddd" stroke-width="1" fill="none" />
<path d="M128,-0.0 L128,-32.0" stroke="#ddd" stroke-width="1" fill="none" />
<path d="M160,-0.0 L160,-32.0" stroke="#ddd" stroke-width="1" fill="none" />
<path d="M192,-0.0 L192,-32.0" stroke="#ddd" stroke-width="1" fill="none" />
<path d="M32,-32.0 L32,-64.0" stroke="#ddd" stroke-width="1" fill="none" />
<path d="M64,-32.0 L64,-64.0" stroke="#ddd" stroke-width="1" fill="none" />
<path d="M96,-32.0 L96,-64.0" stroke="#ddd" stroke-width="1" fill="none" />
<path d="M128,-32.0 L128,-64.0" stroke="#ddd" stroke-width="1" fill="none" />
<path d="M160,-32.0 L160,-64.0" stroke="#ddd" stroke-width="1" fill="none" />
<path d="M192,-32.0 L192,-64.0" stroke="#ddd" stroke-width="1" fill="none" />
<path d="M32,-64.0 L32,-96.0" stroke="#ddd" stroke-width="1" fill="none" />
<path d="M64,-64.0 L64,-96.0" stroke="#ddd" stroke-width="1" fill="none" />
<path d="M96,-64.0 L96,-96.0" stroke="#ddd" stroke-width="1" fill="none" />
<path d="M128,-64.0 L128,-96.0" stroke="#ddd" stroke-width="1" fill="none" />
<path d="M160,-64.0 L160,-96.0" stroke="#ddd" stroke-width="1" fill="none" />
<path d="M192,-64.0 L192,-96.0" stroke="#ddd" stroke-width="1" fill="none" />
<path d="M32,-96.0 L32,-128.0" stroke="#ddd" stroke-width="1" fill="none" />
<path d="M64,-96.0 L64,-128.0" stroke="#ddd" stroke-width="1" fill="none" />
<path d="M96,-96.0 L96,-128.0" stroke="#ddd" stroke-width="1" fill="none" />
<path d="M128,-96.0 L128,-128.0" stroke="#ddd" stroke-width="1" fill="none" />
<path d="M160,-96.0 L160,-128.0" stroke="#ddd" stroke-width="1" fill="none" />
<path d="M192,-96.0 L192,-128.0" stroke="#ddd" stroke-width="1" fill="none" />
<path d="M32,-128.0 L32,-160.0" stroke="#ddd" stroke-width="1" fill="none" />
<path d="M64,-128.0 L64,-160.0" stroke="#ddd" stroke-width="1" fill="none" />
<path d="M96,-128.0 L96,-160.0" stroke="#ddd" stroke-width="1" fill="none" />
<path d="M128,-128.0 L128,-160.0" stroke="#ddd" stroke-width="1" fill="none" />
<path d="M160,-128.0 L160,-160.0" stroke="#ddd" stroke-width="1" fill="none" />
<path d="M192,-128.0 L192,-160.0" stroke="#ddd" stroke-width="1" fill="none" />
<path d="M32,-160.0 L32,-192.0" stroke="#ddd" stroke-width="1" fill="none" />
<path d="M64,-160.0 L64,-192.0" stroke="#ddd" stroke-width="1" fill="none" />
<path d="M96,-160.0 L96,-192.0" stroke="#ddd" stroke-width="1" fill="none" />
<path d="M128,-160.0 L128,-192.0" stroke="#ddd" stroke-width="1" fill="none" />
<path d="M160,-160.0 L160,-192.0" stroke="#ddd" stroke-width="1" fill="none" />
<path d="M192,-160.0 L192,-192.0" stroke="#ddd" stroke-width="1" fill="none" />
<path d="M32,-192.0 L32,-224.0" stroke="#ddd" stroke-width="1" fill="none" />
<path d="M64,-192.0 L64,-224.0" stroke="#ddd" stroke-width="1" fill="none" />
<path d="M96,-192.0 L96,-224.0" stroke="#ddd" stroke-width="1" fill="none" />
<path d="M128,-192.0 L128,-224.0" stroke="#ddd" stroke-width="1" fill="none" />
<path d="M160,-192.0 L160,-224.0" stroke="#ddd" stroke-width="1" fill="none" />
<path d="M192,-192.0 L192,-224.0" stroke="#ddd" stroke-width="1" fill="none" />
<path d="M0,-32.0 L32,-32.0" stroke="#ddd" stroke-width="1" fill="none" />
<path d="M32,-32.0 L64,-32.0" stroke="#ddd" stroke-width="1" fill="none" />
<path d="M64,-32.0 L96,-32.0" stroke="#ddd" stroke-width="1" fill="none" />
<path d="M96,-32.0 L128,-32.0" stroke="#ddd" stroke-width="1" fill="none" />
<path d="M128,-32.0 L160,-32.0" stroke="#ddd" stroke-width="1" fill="none" />
<path d="M160,-32.0 L192,-32.0" stroke="#ddd" stroke-width="1" fill="none" />
<path d="M192,-32.0 L224,-32.0" stroke="#ddd" stroke-width="1" fill="none" />
<path d="M0,-64.0 L32,-64.0" stroke="#ddd" stroke-width="1" fill="none" />
<path d="M32,-64.0 L64,-64.0" stroke="#ddd" stroke-width="1" fill="none" />
<path d="M64,-64.0 L96,-64.0" stroke="#ddd" stroke-width="1" fill="none" />
<path d="M96,-64.0 L128,-64.0" stroke="#ddd" stroke-width="1" fill="none" />
<path d="M128,-64.0 L160,-64.0" stroke="#ddd" stroke-width="1" fill="none" />
<path d="M160,-64.0 L192,-64.0" stroke="#ddd" stroke-width="1" fill="none" />
<path d="M192,-64.0 L224,-64.0" stroke="#ddd" stroke-width="1" fill="none" />
<path d="M0,-96.0 L32,-96.0" stroke="#ddd" stroke-width="1" fill="none" />
<path d="M32,-96.0 L64,-96.0" stroke="#ddd" stroke-width="1" fill="none" />
<path d="M64,-96.0 L96,-96.0" stroke="#ddd" stroke-width="1" fill="none" />
<path d="M96,-96.0 L128,-96.0" stroke="#ddd" stroke-width="1" fill="none" />
<path d="M128,-96.0 L160,-96.0" stroke="#ddd" stroke-width="1" fill="none" />
<path d="M160,-96.0 L192,-96.0" stroke="#ddd" stroke-width="1" fill="none" />
<path d="M192,-96.0 L224,-96.0" stroke="#ddd" stroke-width="1" fill="none" />
<path d="M0,-128.0 L32,-128.0" stroke="#ddd" stroke-width="1" fill="none" />
<path d="M32,-128.0 L64,-128.0" stroke="#ddd" stroke-width="1" fill="none" />
<path d="M64,-128.0 L96,-128.0" stroke="#ddd" stroke-width="1" fill="none" />
<path d="M96,-128.0 L128,-128.0" stroke="#ddd" stroke-width="1" fill="none" />
<path d="M128,-128.0 L160,-128.0" stroke="#ddd" stroke-width="1" fill="none" />
<path d="M160,-128.0 L192,-128.0" stroke="#ddd" stroke-width="1" fill="none" />
<path d="M192,-128.0 L224,-128.0" stroke="#ddd" stroke-width="1" fill="none" />
<path d="M0,-160.0 L32,-160.0" stroke="#ddd" stroke-width="1" fill="none" />
<path d="M32,-160.0 L64,-160.0" stroke="#ddd" stroke-width="1" fill="none" />
<path d="M64,-160.0 L96,-160.0" stroke="#ddd" stroke-width="1" fill="none" />
<path d="M96,-160.0 L128,-160.0" stroke="#ddd" stroke-width="1" fill="none" />
<path d="M128,-160.0 L160,-160.0" stroke="#ddd" stroke-width="1" fill="none" />
<path d="M160,-160.0 L192,-160.0" stroke="#ddd" stroke-width="1" fill="none" />
<path d="M192,-160.0 L224,-160.0" stroke="#ddd" stroke-width="1" fill="none" />
<path d="M0,-192.0 L32,-192.0" stroke="#ddd" stroke-width="1" fill="none" />
<path d="M32,-192.0 L64,-192.0" stroke="#ddd" stroke-width="1" fill="none" />
<path d="M64,-192.0 L96,-192.0" stroke="#ddd" stroke-width="1" fill="none" />
<path d="M96,-192.0 L128,-192.0" stroke="#ddd" stroke-width="1" fill="none" />
<path d="M128,-192.0 L160,-192.0" stroke="#ddd" stroke-width="1" fill="none" />
<path d="M160,-192.0 L192,-192.0" stroke="#ddd" stroke-width="1" fill="none" />
<path d="M192,-192.0 L224,-192.0" stroke="#ddd" stroke-width="1" fill="none" />
<path d="M288,-16.0 L288,-48.0" stroke="#ddd" stroke-width="1" fill="none" />
<path d="M320,-16.0 L320,-48.0" stroke="#ddd" stroke-width="1" fill="none" />
<path d="M352,-16.0 L352,-48.0" stroke="#ddd" stroke-width="1" fill="none" />
<path d="M384,-16.0 L384,-48.0" stroke="#ddd" stroke-width="1" fill="none" />
<path d="M416,-16.0 L416,-48.0" stroke="#ddd" stroke-width="1" fill="none" />
<path d="M448,-16.0 L448,-48.0" stroke="#ddd" stroke-width="1" fill="none" />
<path d="M288,-48.0 L288,-80.0" stroke="#ddd" stroke-width="1" fill="none" />
<path d="M320,-48.0 L320,-80.0" stroke="#ddd" stroke-width="1" fill="none" />
<path d="M352,-48.0 L352,-80.0" stroke="#ddd" stroke-width="1" fill="none" />
<path d="M384,-48.0 L384,-80.0" stroke="#ddd" stroke-width="1" fill="none" />
<path d="M416,-48.0 L416,-80.0" stroke="#ddd" stroke-width="1" fill="none" />
<path d="M448,-48.0 L448,-80.0" stroke="#ddd" stroke-width="1" fill="none" />
<path d="M288,-80.0 L288,-112.0" stroke="#ddd" stroke-width="1" fill="none" />
<path d="M320,-80.0 L320,-112.0" stroke="#ddd" stroke-width="1" fill="none" />
<path d="M352,-80.0 L352,-112.0" stroke="#ddd" stroke-width="1" fill="none" />
<path d="M384,-80.0 L384,-112.0" stroke="#ddd" stroke-width="1" fill="none" />
<path d="M416,-80.0 L416,-112.0" stroke="#ddd" stroke-width="1" fill="none" />
<path d="M448,-80.0 L448,-112.0" stroke="#ddd" stroke-width="1" fill="none" />
<path d="M288,-112.0 L288,-144.0" stroke="#ddd" stroke-width="1" fill="none" />
<path d="M320,-112.0 L320,-144.0" stroke="#ddd" stroke-width="1" fill="none" />
<path d="M352,-112.0 L352,-144.0" stroke="#ddd" stroke-width="1" fill="none" />
<path d="M384,-112.0 L384,-144.0" stroke="#ddd" stroke-width="1" fill="none" />
<path d="M416,-112.0 L416,-144.0" stroke="#ddd" stroke-width="1" fill="none" />
<path d="M448,-112.0 L448,-144.0" stroke="#ddd" stroke-width="1" fill="none" />
<path d="M288,-144.0 L288,-176.0" stroke="#ddd" stroke-width="1" fill="none" />
<path d="M320,-144.0 L320,-176.0" stroke="#ddd" stroke-width="1" fill="none" />
<path d="M352,-144.0 L352,-176.0" stroke="#ddd" stroke-width="1" fill="none" />
<path d="M384,-144.0 L384,-176.0" stroke="#ddd" stroke-width="1" fill="none" />
<path d="M416,-144.0 L416,-176.0" stroke="#ddd" stroke-width="1" fill="none" />
<path d="M448,-144.0 L448,-176.0" stroke="#ddd" stroke-width="1" fill="none" />
<path d="M288,-176.0 L288,-208.0" stroke="#ddd" stroke-width="1" fill="none" />
<path d="M320,-176.0 L320,-208.0" stroke="#ddd" stroke-width="1" fill="none" />
<path d="M352,-176.0 L352,-208.0" stroke="#ddd" stroke-width="1" fill="none" />
<path d="M384,-176.0 L384,-208.0" stroke="#ddd" stroke-width="1" fill="none" />
<path d="M416,-176.0 L416,-208.0" stroke="#ddd" stroke-width="1" fill="none" />
<path d="M448,-176.0 L448,-208.0" stroke="#ddd" stroke-width="1" fill="none" />
<path d="M256,-48.0 L288,-48.0" stroke="#ddd" stroke-width="1" fill="none" />
<path d="M288,-48.0 L320,-48.0" stroke="#ddd" stroke-width="1" fill="none" />
<path d="M320,-48.0 L352,-48.0" stroke="#ddd" stroke-width="1" fill="none" />
<path d="M352,-48.0 L384,-48.0" stroke="#ddd" stroke-width="1" fill="none" />
<path d="M384,-48.0 L416,-48.0" stroke="#ddd" stroke-width="1" fill="none" />
<path d="M416,-48.0 L448,-48.0" stroke="#ddd" stroke-width="1" fill="none" />
<path d="M448,-48.0 L480,-48.0" stroke="#ddd" stroke-width="1" fill="none" />
<path d="M256,-80.0 L288,-80.0" stroke="#ddd" stroke-width="1" fill="none" />
<path d="M288,-80.0 L320,-80.0" stroke="#ddd" stroke-width="1" fill="none" />
<path d="M320,-80.0 L352,-80.0" stroke="#ddd" stroke-width="1" fill="none" />
<path d="M352,-80.0 L384,-80.0" stroke="#ddd" stroke-width="1" fill="none" />
<path d="M384,-80.0 L416,-80.0" stroke="#ddd" stroke-width="1" fill="none" />
<path d="M416,-80.0 L448,-80.0" stroke="#ddd" stroke-width="1" fill="none" />
<path d="M448,-80.0 L480,-80.0" stroke="#ddd" stroke-width="1" fill="none" />
<path d="M256,-112.0 L288,-112.0" stroke="#ddd" stroke-width="1" fill="none" />
<path d="M288,-112.0 L320,-112.0" stroke="#ddd" stroke-width="1" fill="none" />
<path d="M320,-112.0 L352,-112.0" stroke="#ddd" stroke-width="1" fill="none" />
<path d="M352,-112.0 L384,-112.0" stroke="#ddd" stroke-width="1" fill="none" />
<path d="M384,-112.0 L416,-112.0" stroke="#ddd" stroke-width="1" fill="none" />
<path d="M416,-112.0 L448,-112.0" stroke="#ddd" stroke-width="1" fill="none" />
<path d="M448,-112.0 L480,-112.0" stroke="#ddd" stroke-width="1" fill="none" />
<path d="M256,-144.0 L288,-144.0" stroke="#ddd" stroke-width="1" fill="none" />
<path d="M288,-144.0 L320,-144.0" stroke="#ddd" stroke-width="1" fill="none" />
<path d="M320,-144.0 L352,-144.0" stroke="#ddd" stroke-width="1" fill="none" />
<path d="M352,-144.0 L384,-144.0" stroke="#ddd" stroke-width="1" fill="none" />
<path d="M384,-144.0 L416,-144.0" stroke="#ddd" stroke-width="1" fill="none" />
<path d="M416,-144.0 L448,-144.0" stroke="#ddd" stroke-width="1" fill="none" />
<path d="M448,-144.0 L480,-144.0" stroke="#ddd" stroke-width="1" fill="none" />
<path d="M544,-16.0 L544,-48.0" stroke="#ddd" stroke-width="1" fill="none" />
<path d="M576,-16.0 L576,-48.0" stroke="#ddd" stroke-width="1" fill="none" />
<path d="M608,-16.0 L608,-48.0" stroke="#ddd" stroke-width="1" fill="none" />
<path d="M640,-16.0 L640,-48.0" stroke="#ddd" stroke-width="1" fill="none" />
<path d="M672,-16.0 L672,-48.0" stroke="#ddd" stroke-width="1" fill="none" />
<path d="M544,-48.0 L544,-80.0" stroke="#ddd" stroke-width="1" fill="none" />
<path d="M576,-48.0 L576,-80.0" stroke="#ddd" stroke-width="1" fill="none" />
<path d="M608,-48.0 L608,-80.0" stroke="#ddd" stroke-width="1" fill="none" />
<path d="M640,-48.0 L640,-80.0" stroke="#ddd" stroke-width="1" fill="none" />
<path d="M672,-48.0 L672,-80.0" stroke="#ddd" stroke-width="1" fill="none" />
<path d="M544,-80.0 L544,-112.0" stroke="#ddd" stroke-width="1" fill="none" />
<path d="M576,-80.0 L576,-112.0" stroke="#ddd" stroke-width="1" fill="none" />
<path d="M608,-80.0 L608,-112.0" stroke="#ddd" stroke-width="1" fill="none" />
<path d="M640,-80.0 L640,-112.0" stroke="#ddd" stroke-width="1" fill="none" />
<path d="M672,-80.0 L672,-112.0" stroke="#ddd" stroke-width="1" fill="none" />
<path d="M544,-112.0 L544,-144.0" stroke="#ddd" stroke-width="1" fill="none" />
<path d="M576,-112.0 L576,-144.0" stroke="#ddd" stroke-width="1" fill="none" />
<path d="M608,-112.0 L608,-144.0" stroke="#ddd" stroke-width="1" fill="none" />
<path d="M640,-112.0 L640,-144.0" stroke="#ddd" stroke-width="1" fill="none" />
<path d="M672,-112.0 L672,-144.0" stroke="#ddd" stroke-width="1" fill="none" />
<path d="M544,-144.0 L544,-176.0" stroke="#ddd" stroke-width="1" fill="none" />
<path d="M576,-144.0 L576,-176.0" stroke="#ddd" stroke-width="1" fill="none" />
<path d="M608,-144.0 L608,-176.0" stroke="#ddd" stroke-width="1" fill="none" />
<path d="M640,-144.0 L640,-176.0" stroke="#ddd" stroke-width="1" fill="none" />
<path d="M672,-144.0 L672,-176.0" stroke="#ddd" stroke-width="1" fill="none" />
<path d="M544,-176.0 L544,-208.0" stroke="#ddd" stroke-width="1" fill="none" />
<path d="M576,-176.0 L576,-208.0" stroke="#ddd" stroke-width="1" fill="none" />
<path d="M608,-176.0 L608,-208.0" stroke="#ddd" stroke-width="1" fill="none" />
<path d="M640,-176.0 L640,-208.0" stroke="#ddd" stroke-width="1" fill="none" />
<path d="M672,-176.0 L672,-208.0" stroke="#ddd" stroke-width="1" fill="none" />
<path d="M512,-48.0 L544,-48.0" stroke="#ddd" stroke-width="1" fill="none" />
<path d="M544,-48.0 L576,-48.0" stroke="#ddd" stroke-width="1" fill="none" />
<path d="M576,-48.0 L608,-48.0" stroke="#ddd" stroke-width="1" fill="none" />
<path d="M608,-48.0 L640,-48.0" stroke="#ddd" stroke-width="1" fill="none" />
<path d="M640,-48.0 L672,-48.0" stroke="#ddd" stroke-width="1" fill="none" />
<path d="M672,-48.0 L704,-48.0" stroke="#ddd" stroke-width="1" fill="none" />
<path d="M512,-80.0 L544,-80.0" stroke="#ddd" stroke-width="1" fill="none" />
<path d="M544,-80.0 L576,-80.0" stroke="#ddd" stroke-width="1" fill="none" />
<path d="M576,-80.0 L608,-80.0" stroke="#ddd" stroke-width="1" fill="none" />
<path d="M608,-80.0 L640,-80.0" stroke="#ddd" stroke-width="1" fill="none" />
<path d="M640,-80.0 L672,-80.0" stroke="#ddd" stroke-width="1" fill="none" />
<path d="M672,-80.0 L704,-80.0" stroke="#ddd" stroke-width="1" fill="none" />
<path d="M512,-112.0 L544,-112.0" stroke="#ddd" stroke-width="1" fill="none" />
<path d="M544,-112.0 L576,-112.0" stroke="#ddd" stroke-width="1" fill="none" />
<path d="M576,-112.0 L608,-112.0" stroke="#ddd" stroke-width="1" fill="none" />
<path d="M608,-112.0 L640,-112.0" stroke="#ddd" stroke-width="1" fill="none" />
<path d="M640,-112.0 L672,-112.0" stroke="#ddd" stroke-width="1" fill="none" />
<path d="M672,-112.0 L704,-112.0" stroke="#ddd" stroke-width="1" fill="none" />
<path d="M512,-144.0 L544,-144.0" stroke="#ddd" stroke-width="1" fill="none" />
<path d="M544,-144.0 L576,-144.0" stroke="#ddd" stroke-width="1" fill="none" />
<path d="M576,-144.0 L608,-144.0" stroke="#ddd" stroke-width="1" fill="none" />
<path d="M608,-144.0 L640,-144.0" stroke="#ddd" stroke-width="1" fill="none" />
<path d="M640,-144.0 L672,-144.0" stroke="#ddd" stroke-width="1" fill="none" />
<path d="M672,-144.0 L704,-144.0" stroke="#ddd" stroke-width="1" fill="none" />
<path d="M768,-16.0 L768,-48.0" stroke="#ddd" stroke-width="1" fill="none" />
<path d="M800,-16.0 L800,-48.0" stroke="#ddd" stroke-width="1" fill="none" />
<path d="M832,-16.0 L832,-48.0" stroke="#ddd" stroke-width="1" fill="none" />
<path d="M864,-16.0 L864,-48.0" stroke="#ddd" stroke-width="1" fill="none" />
<path d="M768,-48.0 L768,-80.0" stroke="#ddd" stroke-width="1" fill="none" />
<path d="M800,-48.0 L800,-80.0" stroke="#ddd" stroke-width="1" fill="none" />
<path d="M832,-48.0 L832,-80.0" stroke="#ddd" stroke-width="1" fill="none" />
<path d="M864,-48.0 L864,-80.0" stroke="#ddd" stroke-width="1" fill="none" />
<path d="M768,-80.0 L768,-112.0" stroke="#ddd" stroke-width="1" fill="none" />
<path d="M800,-80.0 L800,-112.0" stroke="#ddd" stroke-width="1" fill="none" />
<path d="M832,-80.0 L832,-112.0" stroke="#ddd" stroke-width="1" fill="none" />
<path d="M864,-80.0 L864,-112.0" stroke="#ddd" stroke-width="1" fill="none" />
<path d="M768,-112.0 L768,-144.0" stroke="#ddd" stroke-width="1" fill="none" />
<path d="M800,-112.0 L800,-144.0" stroke="#ddd" stroke-width="1" fill="none" />
<path d="M832,-112.0 L832,-144.0" stroke="#ddd" stroke-width="1" fill="none" />
<path d="M864,-112.0 L864,-144.0" stroke="#ddd" stroke-width="1" fill="none" />
<path d="M768,-144.0 L768,-176.0" stroke="#ddd" stroke-width="1" fill="none" />
<path d="M800,-144.0 L800,-176.0" stroke="#ddd" stroke-width="1" fill="none" />
<path d="M832,-144.0 L832,-176.0" stroke="#ddd" stroke-width="1" fill="none" />
<path d="M864,-144.0 L864,-176.0" stroke="#ddd" stroke-width="1" fill="none" />
<path d="M768,-176.0 L768,-208.0" stroke="#ddd" stroke-width="1" fill="none" />
<path d="M800,-176.0 L800,-208.0" stroke="#ddd" stroke-width="1" fill="none" />
<path d="M832,-176.0 L832,-208.0" stroke="#ddd" stroke-width="1" fill="none" />
<path d="M864,-176.0 L864,-208.0" stroke="#ddd" stroke-width="1" fill="none" />
<path d="M736,-48.0 L768,-48.0" stroke="#ddd" stroke-width="1" fill="none" />
<path d="M768,-48.0 L800,-48.0" stroke="#ddd" stroke-width="1" fill="none" />
<path d="M800,-48.0 L832,-48.0" stroke="#ddd" stroke-width="1" fill="none" />
<path d="M832,-48.0 L864,-48.0" stroke="#ddd" stroke-width="1" fill="none" />
<path d="M864,-48.0 L896,-48.0" stroke="#ddd" stroke-width="1" fill="none" />
<path d="M736,-80.0 L768,-80.0" stroke="#ddd" stroke-width="1" fill="none" />
<path d="M768,-80.0 L800,-80.0" stroke="#ddd" stroke-width="1" fill="none" />
<path d="M800,-80.0 L832,-80.0" stroke="#ddd" stroke-width="1" fill="none" />
<path d="M832,-80.0 L864,-80.0" stroke="#ddd" stroke-width="1" fill="none" />
<path d="M864,-80.0 L896,-80.0" stroke="#ddd" stroke-width="1" fill="none" />
<path d="M736,-112.0 L768,-112.0" stroke="#ddd" stroke-width="1" fill="none" />
<path d="M768,-112.0 L800,-112.0" stroke="#ddd" stroke-width="1" fill="none" />
<path d="M800,-112.0 L832,-112.0" stroke="#ddd" stroke-width="1" fill="none" />
<path d="M832,-112.0 L864,-112.0" stroke="#ddd" stroke-width="1" fill="none" />
<path d="M864,-112.0 L896,-112.0" stroke="#ddd" stroke-width="1" fill="none" />
<path d="M736,-144.0 L768,-144.0" stroke="#ddd" stroke-width="1" fill="none" />
<path d="M768,-144.0 L800,-144.0" stroke="#ddd" stroke-width="1" fill="none" />
<path d="M800,-144.0 L832,-144.0" stroke="#ddd" stroke-width="1" fill="none" />
<path d="M832,-144.0 L864,-144.0" stroke="#ddd" stroke-width="1" fill="none" />
<path d="M864,-144.0 L896,-144.0" stroke="#ddd" stroke-width="1" fill="none" />
<path d="M992,-48.0 L992,-80.0" stroke="#ddd" stroke-width="1" fill="none" />
<path d="M1024,-48.0 L1024,-80.0" stroke="#ddd" stroke-width="1" fill="none" />
<path d="M992,-80.0 L992,-112.0" stroke="#ddd" stroke-width="1" fill="none" />
<path d="M1024,-80.0 L1024,-112.0" stroke="#ddd" stroke-width="1" fill="none" />
<path d="M960,-112.0 L960,-144.0" stroke="#ddd" stroke-width="1" fill="none" />
<path d="M992,-112.0 L992,-144.0" stroke="#ddd" stroke-width="1" fill="none" />
<path d="M1024,-112.0 L1024,-144.0" stroke="#ddd" stroke-width="1" fill="none" />
<path d="M1056,-112.0 L1056,-144.0" stroke="#ddd" stroke-width="1" fill="none" />
<path d="M960,-144.0 L960,-176.0" stroke="#ddd" stroke-width="1" fill="none" />
<path d="M992,-144.0 L992,-176.0" stroke="#ddd" stroke-width="1" fill="none" />
<path d="M1024,-144.0 L1024,-176.0" stroke="#ddd" stroke-width="1" fill="none" />
<path d="M1056,-144.0 L1056,-176.0" stroke="#ddd" stroke-width="1" fill="none" />
<path d="M928,-80.0 L960,-80.0" stroke="#ddd" stroke-width="1" fill="none" />
<path d="M960,-80.0 L992,-80.0" stroke="#ddd" stroke-width="1" fill="none" />
<path d="M992,-80.0 L1024,-80.0" stroke="#ddd" stroke-width="1" fill="none" />
<path d="M1024,-80.0 L1056,-80.0" stroke="#ddd" stroke-width="1" fill="none" />
<path d="M1056,-80.0 L1088,-80.0" stroke="#ddd" stroke-width="1" fill="none" />
<path d="M1184,-64.0 L1184,-96.0" stroke="#ddd" stroke-width="1" fill="none" />
<path d="M1216,-64.0 L1216,-96.0" stroke="#ddd" stroke-width="1" fill="none" />
<path d="M1184,-96.0 L1184,-128.0" stroke="#ddd" stroke-width="1" fill="none" />
<path d="M1216,-96.0 L1216,-128.0" stroke="#ddd" stroke-width="1" fill="none" />
<path d="M1152,-128.0 L1152,-160.0" stroke="#ddd" stroke-width="1" fill="none" />
<path d="M1184,-128.0 L1184,-160.0" stroke="#ddd" stroke-width="1" fill="none" />
<path d="M1216,-128.0 L1216,-160.0" stroke="#ddd" stroke-width="1" fill="none" />
<path d="M1248,-128.0 L1248,-160.0" stroke="#ddd" stroke-width="1" fill="none" />
<path d="M1120,-96.0 L1152,-96.0" stroke="#ddd" stroke-width="1" fill="none" />
<path d="M1152,-96.0 L1184,-96.0" stroke="#ddd" stroke-width="1" fill="none" />
<path d="M1184,-96.0 L1216,-96.0" stroke="#ddd" stroke-width="1" fill="none" />
<path d="M1216,-96.0 L1248,-96.0" stroke="#ddd" stroke-width="1" fill="none" />
<path d="M1248,-96.0 L1280,-96.0" stroke="#ddd" stroke-width="1" fill="none" />
<path d="M1376,-64.0 L1376,-96.0" stroke="#ddd" stroke-width="1" fill="none" />
<path d="M1376,-96.0 L1376,-128.0" stroke="#ddd" stroke-width="1" fill="none" />
<path d="M1344,-128.0 L1344,-160.0" stroke="#ddd" stroke-width="1" fill="none" />
<path d="M1376,-128.0 L1376,-160.0" stroke="#ddd" stroke-width="1" fill="none" />
<path d="M1312,-96.0 L1344,-96.0" stroke="#ddd" stroke-width="1" fill="none" />
<path d="M1344,-96.0 L1376,-96.0" stroke="#ddd" stroke-width="1" fill="none" />
<path d="M1376,-96.0 L1408,-96.0" stroke="#ddd" stroke-width="1" fill="none" />
<path d="M1408,-96.0 L1440,-96.0" stroke="#ddd" stroke-width="1" fill="none" />
<path d="M1472,-96.0 L1504,-96.0" stroke="#ddd" stroke-width="1" fill="none" />
<path d="M1504,-96.0 L1536,-96.0" stroke="#ddd" stroke-width="1" fill="none" />
<path d="M1536,-96.0 L1568,-96.0" stroke="#ddd" stroke-width="1" fill="none" />
<path d="M466.47520861406804,-112.0 A36.950417228136054,36.950417228136054,0,0,1,429.52479138593196,-112.0" stroke="grey" stroke-width="1" fill="none" marker-end="url(#d0)" />
<path d="M525.524791385932,-112.0 A36.950417228136054,36.950417228136054,0,0,0,562.475208614068,-112.0" stroke="grey" stroke-width="1" fill="none" marker-end="url(#d0)" />
<path d="M1008.0,-162.47520861406804 A36.950417228136054,36.950417228136054,0,0,1,1008.0,-125.52479138593196" stroke="grey" stroke-width="1" fill="none" marker-end="url(#d0)" />
<path d="M0,-0.0 L224,-0.0 L224,-224.0 L0,-224.0 Z" stroke="black" stroke-width="2" fill="none" />
<path d="M256,-176.0 L288,-176.0" stroke="black" stroke-width="2" fill="none" />
<path d="M288,-176.0 L320,-176.0" stroke="black" stroke-width="2" fill="none" />
<path d="M320,-176.0 L352,-176.0" stroke="black" stroke-width="2" fill="none" />
<path d="M352,-176.0 L384,-176.0" stroke="black" stroke-width="2" fill="none" />
<path d="M384,-176.0 L416,-176.0" stroke="black" stroke-width="2" fill="none" />
<path d="M416,-176.0 L448,-176.0" stroke="black" stroke-width="2" fill="none" />
<path d="M448,-176.0 L480,-176.0" stroke="black" stroke-width="2" fill="none" />
<path d="M256,-16.0 L480,-16.0 L480,-208.0 L256,-208.0 Z" stroke="black" stroke-width="2" fill="none" />
<path d="M512,-176.0 L544,-176.0" stroke="black" stroke-width="2" fill="none" />
<path d="M544,-176.0 L576,-176.0" stroke="black" stroke-width="2" fill="none" />
<path d="M576,-176.0 L608,-176.0" stroke="black" stroke-width="2" fill="none" />
<path d="M608,-176.0 L640,-176.0" stroke="black" stroke-width="2" fill="none" />
<path d="M640,-176.0 L672,-176.0" stroke="black" stroke-width="2" fill="none" />
<path d="M672,-176.0 L704,-176.0" stroke="black" stroke-width="2" fill="none" />
<path d="M512,-16.0 L704,-16.0 L704,-208.0 L512,-208.0 Z" stroke="black" stroke-width="2" fill="none" />
<path d="M736,-176.0 L768,-176.0" stroke="black" stroke-width="2" fill="none" />
<path d="M768,-176.0 L800,-176.0" stroke="black" stroke-width="2" fill="none" />
<path d="M800,-176.0 L832,-176.0" stroke="black" stroke-width="2" fill="none" />
<path d="M832,-176.0 L864,-176.0" stroke="black" stroke-width="2" fill="none" />
<path d="M864,-176.0 L896,-176.0" stroke="black" stroke-width="2" fill="none" />
<path d="M736,-16.0 L896,-16.0 L896,-208.0 L736,-208.0 Z" stroke="black" stroke-width="2" fill="none" />
<path d="M960,-48.0 L960,-80.0" stroke="black" stroke-width="2" fill="none" />
<path d="M1056,-48.0 L1056,-80.0" stroke="black" stroke-width="2" fill="none" />
<path d="M960,-80.0 L960,-112.0" stroke="black" stroke-width="2" fill="none" />
<path d="M1056,-80.0 L1056,-112.0" stroke="black" stroke-width="2" fill="none" />
<path d="M928,-112.0 L960,-112.0" stroke="black" stroke-width="2" fill="none" />
<path d="M960,-112.0 L992,-112.0" stroke="black" stroke-width="2" fill="none" />
<path d="M992,-112.0 L1024,-112.0" stroke="black" stroke-width="2" fill="none" />
<path d="M1024,-112.0 L1056,-112.0" stroke="black" stroke-width="2" fill="none" />
<path d="M1056,-112.0 L1088,-112.0" stroke="black" stroke-width="2" fill="none" />
<path d="M928,-144.0 L960,-144.0" stroke="black" stroke-width="2" fill="none" />
<path d="M960,-144.0 L992,-144.0" stroke="black" stroke-width="2" fill="none" />
<path d="M992,-144.0 L1024,-144.0" stroke="black" stroke-width="2" fill="none" />
<path d="M1024,-144.0 L1056,-144.0" stroke="black" stroke-width="2" fill="none" />
<path d="M1056,-144.0 L1088,-144.0" stroke="black" stroke-width="2" fill="none" />
<path d="M928,-48.0 L1088,-48.0 L1088,-176.0 L928,-176.0 Z" stroke="black" stroke-width="2" fill="none" />
<path d="M1152,-64.0 L1152,-96.0" stroke="black" stroke-width="2" fill="none" />
<path d="M1248,-64.0 L1248,-96.0" stroke="black" stroke-width="2" fill="none" />
<path d="M1152,-96.0 L1152,-128.0" stroke="black" stroke-width="2" fill="none" />
<path d="M1248,-96.0 L1248,-128.0" stroke="black" stroke-width="2" fill="none" />
<path d="M1120,-128.0 L1152,-128.0" stroke="black" stroke-width="2" fill="none" />
<path d="M1152,-128.0 L1184,-128.0" stroke="black" stroke-width="2" fill="none" />
<path d="M1184,-128.0 L1216,-128.0" stroke="black" stroke-width="2" fill="none" />
<path d="M1216,-128.0 L1248,-128.0" stroke="black" stroke-width="2" fill="none" />
<path d="M1248,-128.0 L1280,-128.0" stroke="black" stroke-width="2" fill="none" />
<path d="M1120,-64.0 L1280,-64.0 L1280,-160.0 L1120,-160.0 Z" stroke="black" stroke-width="2" fill="none" />
<path d="M1344,-64.0 L1344,-96.0" stroke="black" stroke-width="2" fill="none" />
<path d="M1408,-64.0 L1408,-96.0" stroke="black" stroke-width="2" fill="none" />
<path d="M1344,-96.0 L1344,-128.0" stroke="black" stroke-width="2" fill="none" />
<path d="M1408,-96.0 L1408,-128.0" stroke="black" stroke-width="2" fill="none" />
<path d="M1408,-128.0 L1408,-160.0" stroke="black" stroke-width="2" fill="none" />
<path d="M1312,-128.0 L1344,-128.0" stroke="black" stroke-width="2" fill="none" />
<path d="M1344,-128.0 L1376,-128.0" stroke="black" stroke-width="2" fill="none" />
<path d="M1376,-128.0 L1408,-128.0" stroke="black" stroke-width="2" fill="none" />
<path d="M1408,-128.0 L1440,-128.0" stroke="black" stroke-width="2" fill="none" />
<path d="M1312,-64.0 L1440,-64.0 L1440,-160.0 L1312,-160.0 Z" stroke="black" stroke-width="2" fill="none" />
<path d="M1504,-64.0 L1504,-96.0" stroke="black" stroke-width="2" fill="none" />
<path d="M1536,-64.0 L1536,-96.0" stroke="black" stroke-width="2" fill="none" />
<path d="M1504,-96.0 L1504,-128.0" stroke="black" stroke-width="2" fill="none" />
<path d="M1536,-96.0 L1536,-128.0" stroke="black" stroke-width="2" fill="none" />
<path d="M1504,-128.0 L1504,-160.0" stroke="black" stroke-width="2" fill="none" />
<path d="M1536,-128.0 L1536,-160.0" stroke="black" stroke-width="2" fill="none" />
<path d="M1472,-128.0 L1504,-128.0" stroke="black" stroke-width="2" fill="none" />
<path d="M1504,-128.0 L1536,-128.0" stroke="black" stroke-width="2" fill="none" />
<path d="M1536,-128.0 L1568,-128.0" stroke="black" stroke-width="2" fill="none" />
<path d="M1472,-64.0 L1568,-64.0 L1568,-160.0 L1472,-160.0 Z" stroke="black" stroke-width="2" fill="none" />
<path d="M112.0,-210.47520861406804 A36.950417228136054,36.950417228136054,0,0,0,112.0,-173.52479138593196" stroke="black" stroke-width="1" fill="none" marker-end="url(#d1)" />
<path d="M816.0,-61.52479138593197 A36.950417228136054,36.950417228136054,0,0,1,816.0,-98.47520861406802" stroke="black" stroke-width="1" fill="none" marker-end="url(#d1)" />
<path d="M1266.475208614068,-112.0 A36.950417228136054,36.950417228136054,0,0,0,1229.524791385932,-112.0" stroke="black" stroke-width="1" fill="none" marker-end="url(#d1)" />
<path d="M1325.524791385932,-112.0 A36.950417228136054,36.950417228136054,0,0,1,1362.475208614068,-112.0" stroke="black" stroke-width="1" fill="none" marker-end="url(#d1)" />
<path d="M0,-192.0 L224,-192.0" stroke="black" stroke-width="1" fill="none" stroke-dasharray="4" />
<path d="M448,-16.0 L448,-208.0" stroke="black" stroke-width="1" fill="none" stroke-dasharray="10 2 2 2" />
<path d="M544,-16.0 L544,-208.0" stroke="black" stroke-width="1" fill="none" stroke-dasharray="10 2 2 2" />
<path d="M736,-80.0 L896,-80.0" stroke="black" stroke-width="1" fill="none" stroke-dasharray="4" />
<path d="M928,-144.0 L1088,-144.0" stroke="black" stroke-width="1" fill="none" stroke-dasharray="10 2 2 2" />
<path d="M1248,-64.0 L1248,-160.0" stroke="black" stroke-width="1" fill="none" stroke-dasharray="4" />
<path d="M1344,-64.0 L1344,-160.0" stroke="black" stroke-width="1" fill="none" stroke-dasharray="4" />
</svg>