<?xml version="1.0" encoding="UTF-8"?>
<svg xmlns="http://www.w3.org/2000/svg" xmlns:xlink="http://www.w3.org/1999/xlink"
     width="1409" height="225" viewBox="0 -225 1409 225">
<defs>
<marker markerWidth="4.0" markerHeight="4.0" viewBox="-0.1 -0.5 1.0 1.0" orient="auto" stroke="grey" id="d0">
<path d="M-0.1,0.5 L-0.1,-0.5 L0.9,0 Z" stroke-width="0.1" stroke="grey" fill="white" />
</marker>
<marker markerWidth="4.0" markerHeight="4.0" viewBox="-0.1 -0.5 1.0 1.0" orient="auto" id="d1">
<path d="M-0.1,0.5 L-0.1,-0.5 L0.9,0 Z" stroke-width="0.1" stroke="black" fill="black" />
</marker>
</defs>
<rect x="0" y="-33.0" width="33" height="33" fill="#bbb" />
<rect x="32" y="-33.0" width="33" height="33" fill="#bbb" />
<rect x="64" y="-33.0" width="33" height="33" fill="#bbb" />
<rect x="96" y="-33.0" width="33" height="33" fill="#bbb" />
<rect x="128" y="-33.0" width="33" height="33" fill="#bbb" />
<rect x="160" y="-33.0" width="33" height="33" fill="#bbb" />
<rect x="192" y="-33.0" width="33" height="33" fill="#bbb" />
<rect x="0" y="-65.0" width="33" height="33" fill="#bbb" />
<rect x="32" y="-65.0" width="33" height="33" fill="#bbb" />
<rect x="64" y="-65.0" width="33" height="33" fill="#bbb" />
<rect x="96" y="-65.0" width="33" height="33" fill="#bbb" />
<rect x="128" y="-65.0" width="33" height="33" fill="#bbb" />
<rect x="160" y="-65.0" width="33" height="33" fill="#bbb" />
<rect x="192" y="-65.0" width="33" height="33" fill="#bbb" />
<rect x="0" y="-97.0" width="33" height="33" fill="#bbb" />
<rect x="32" y="-97.0" width="33" height="33" fill="#bbb" />
<rect x="64" y="-97.0" width="33" height="33" fill="#bbb" />
<rect x="96" y="-97.0" width="33" height="33" fill="#bbb" />
<rect x="128" y="-97.0" width="33" height="33" fill="#bbb" />
<rect x="160" y="-97.0" width="33" height="33" fill="#bbb" />
<rect x="192" y="-97.0" width="33" height="33" fill="#bbb" />
<rect x="0" y="-129.0" width="33" height="33" fill="#bbb" />
<rect x="32" y="-129.0" width="33" height="33" fill="#bbb" />
<rect x="64" y="-129.0" width="33" height="33" fill="#bbb" />
<rect x="96" y="-129.0" width="33" height="33" fill="#bbb" />
<rect x="128" y="-129.0" width="33" height="33" fill="#bbb" />
<rect x="160" y="-129.0" width="33" height="33" fill="#bbb" />
<rect x="192" y="-129.0" width="33" height="33" fill="#bbb" />
<rect x="0" y="-161.0" width="33" height="33" fill="#bbb" />
<rect x="32" y="-161.0" width="33" height="33" fill="#bbb" />
<rect x="64" y="-161.0" width="33" height="33" fill="#bbb" />
<rect x="96" y="-161.0" width="33" height="33" fill="#bbb" />
<rect x="128" y="-161.0" width="33" height="33" fill="#bbb" />
<rect x="160" y="-161.0" width="33" height="33" fill="#bbb" />
<rect x="192" y="-161.0" width="33" height="33" fill="#bbb" />
<rect x="0" y="-193.0" width="33" height="33" fill="#bbb" />
<rect x="32" y="-193.0" width="33" height="33" fill="#bbb" />
<rect x="64" y="-193.0" width="33" height="33" fill="#bbb" />
<rect x="96" y="-193.0" width="33" height="33" fill="#bbb" />
<rect x="128" y="-193.0" width="33" height="33" fill="#bbb" />
<rect x="160" y="-193.0" width="33" height="33" fill="#bbb" />
<rect x="192" y="-193.0" width="33" height="33" fill="#bbb" />
<rect x="0" y="-225.0" width="33" height="33" fill="#bbb" />
<rect x="32" y="-225.0" width="33" height="33" fill="#bbb" />
<rect x="64" y="-225.0" width="33" height="33" fill="#bbb" />
<rect x="96" y="-225.0" width="33" height="33" fill="#bbb" />
<rect x="128" y="-225.0" width="33" height="33" fill="#bbb" />
<rect x="160" y="-225.0" width="33" height="33" fill="#bbb" />
<rect x="192" y="-225.0" width="33" height="33" fill="#bbb" />
<rect x="256" y="-33.0" width="33" height="33" fill="#bbb" />
<rect x="288" y="-33.0" width="33" height="33" fill="#bbb" />
<rect x="320" y="-33.0" width="33" height="33" fill="#bbb" />
<rect x="352" y="-33.0" width="33" height="33" fill="#bbb" />
<rect x="384" y="-33.0" width="33" height="33" fill="#bbb" />
<rect x="416" y="-33.0" width="33" height="33" fill="white" />
<rect x="256" y="-65.0" width="33" height="33" fill="#bbb" />
<rect x="288" y="-65.0" width="33" height="33" fill="#bbb" />
<rect x="320" y="-65.0" width="33" height="33" fill="#bbb" />
<rect x="352" y="-65.0" width="33" height="33" fill="#bbb" />
<rect x="384" y="-65.0" width="33" height="33" fill="#bbb" />
<rect x="416" y="-65.0" width="33" height="33" fill="white" />
<rect x="256" y="-97.0" width="33" height="33" fill="#bbb" />
<rect x="288" y="-97.0" width="33" height="33" fill="#bbb" />
<rect x="320" y="-97.0" width="33" height="33" fill="#bbb" />
<rect x="352" y="-97.0" width="33" height="33" fill="#bbb" />
<rect x="384" y="-97.0" width="33" height="33" fill="#bbb" />
<rect x="416" y="-97.0" width="33" height="33" fill="white" />
<rect x="256" y="-129.0" width="33" height="33" fill="#bbb" />
<rect x="288" y="-129.0" width="33" height="33" fill="#bbb" />
<rect x="320" y="-129.0" width="33" height="33" fill="#bbb" />
<rect x="352" y="-129.0" width="33" height="33" fill="#bbb" />
<rect x="384" y="-129.0" width="33" height="33" fill="#bbb" />
<rect x="416" y="-129.0" width="33" height="33" fill="white" />
<rect x="256" y="-161.0" width="33" height="33" fill="#bbb" />
<rect x="288" y="-161.0" width="33" height="33" fill="#bbb" />
<rect x="320" y="-161.0" width="33" height="33" fill="#bbb" />
<rect x="352" y="-161.0" width="33" height="33" fill="#bbb" />
<rect x="384" y="-161.0" width="33" height="33" fill="#bbb" />
<rect x="416" y="-161.0" width="33" height="33" fill="white" />
<rect x="256" y="-193.0" width="33" height="33" fill="#bbb" />
<rect x="288" y="-193.0" width="33" height="33" fill="#bbb" />
<rect x="320" y="-193.0" width="33" height="33" fill="#bbb" />
<rect x="352" y="-193.0" width="33" height="33" fill="#bbb" />
<rect x="384" y="-193.0" width="33" height="33" fill="#bbb" />
<rect x="416" y="-193.0" width="33" height="33" fill="white" />
<rect x="256" y="-225.0" width="33" height="33" fill="#bbb" />
<rect x="288" y="-225.0" width="33" height="33" fill="#bbb" />
<rect x="320" y="-225.0" width="33" height="33" fill="#bbb" />
<rect x="352" y="-225.0" width="33" height="33" fill="#bbb" />
<rect x="384" y="-225.0" width="33" height="33" fill="#bbb" />
<rect x="416" y="-225.0" width="33" height="33" fill="white" />
<rect x="480" y="-65.0" width="33" height="33" fill="#bbb" />
<rect x="512" y="-65.0" width="33" height="33" fill="#bbb" />
<rect x="544" y="-65.0" width="33" height="33" fill="#bbb" />
<rect x="576" y="-65.0" width="33" height="33" fill="#bbb" />
<rect x="608" y="-65.0" width="33" height="33" fill="#bbb" />
<rect x="640" y="-65.0" width="33" height="33" fill="white" />
<rect x="480" y="-97.0" width="33" height="33" fill="#bbb" />
<rect x="512" y="-97.0" width="33" height="33" fill="#bbb" />
<rect x="544" y="-97.0" width="33" height="33" fill="#bbb" />
<rect x="576" y="-97.0" width="33" height="33" fill="#bbb" />
<rect x="608" y="-97.0" width="33" height="33" fill="#bbb" />
<rect x="640" y="-97.0" width="33" height="33" fill="white" />
<rect x="480" y="-129.0" width="33" height="33" fill="#bbb" />
<rect x="512" y="-129.0" width="33" height="33" fill="#bbb" />
<rect x="544" y="-129.0" width="33" height="33" fill="#bbb" />
<rect x="576" y="-129.0" width="33" height="33" fill="#bbb" />
<rect x="608" y="-129.0" width="33" height="33" fill="#bbb" />
<rect x="640" y="-129.0" width="33" height="33" fill="white" />
<rect x="480" y="-161.0" width="33" height="33" fill="#bbb" />
<rect x="512" y="-161.0" width="33" height="33" fill="#bbb" />
<rect x="544" y="-161.0" width="33" height="33" fill="#bbb" />
<rect x="576" y="-161.0" width="33" height="33" fill="#bbb" />
<rect x="608" y="-161.0" width="33" height="33" fill="#bbb" />
<rect x="640" y="-161.0" width="33" height="33" fill="white" />
<rect x="480" y="-193.0" width="33" height="33" fill="#bbb" />
<rect x="512" y="-193.0" width="33" height="33" fill="#bbb" />
<rect x="544" y="-193.0" width="33" height="33" fill="#bbb" />
<rect x="576" y="-193.0" width="33" height="33" fill="#bbb" />
<rect x="608" y="-193.0" width="33" height="33" fill="#bbb" />
<rect x="640" y="-193.0" width="33" height="33" fill="white" />
<rect x="704" y="-81.0" width="33" height="33" fill="#bbb" />
<rect x="736" y="-81.0" width="33" height="33" fill="#bbb" />
<rect x="768" y="-81.0" width="33" height="33" fill="#bbb" />
<rect x="800" y="-81.0" width="33" height="33" fill="#bbb" />
<rect x="832" y="-81.0" width="33" height="33" fill="#bbb" />
<rect x="864" y="-81.0" width="33" height="33" fill="white" />
<rect x="704" y="-113.0" width="33" height="33" fill="#bbb" />
<rect x="736" y="-113.0" width="33" height="33" fill="#bbb" />
<rect x="768" y="-113.0" width="33" height="33" fill="#bbb" />
<rect x="800" y="-113.0" width="33" height="33" fill="#bbb" />
<rect x="832" y="-113.0" width="33" height="33" fill="#bbb" />
<rect x="864" y="-113.0" width="33" height="33" fill="white" />
<rect x="704" y="-145.0" width="33" height="33" fill="#bbb" />
<rect x="736" y="-145.0" width="33" height="33" fill="#bbb" />
<rect x="768" y="-145.0" width="33" height="33" fill="#bbb" />
<rect x="800" y="-145.0" width="33" height="33" fill="#bbb" />
<rect x="832" y="-145.0" width="33" height="33" fill="#bbb" />
<rect x="864" y="-145.0" width="33" height="33" fill="white" />
<rect x="704" y="-177.0" width="33" height="33" fill="#bbb" />
<rect x="736" y="-177.0" width="33" height="33" fill="#bbb" />
<rect x="768" y="-177.0" width="33" height="33" fill="#bbb" />
<rect x="800" y="-177.0" width="33" height="33" fill="#bbb" />
<rect x="832" y="-177.0" width="33" height="33" fill="#bbb" />
<rect x="864" y="-177.0" width="33" height="33" fill="white" />
<rect x="928" y="-97.0" width="33" height="33" fill="#bbb" />
<rect x="960" y="-97.0" width="33" height="33" fill="#bbb" />
<rect x="992" y="-97.0" width="33" height="33" fill="#bbb" />
<rect x="1024" y="-97.0" width="33" height="33" fill="#bbb" />
<rect x="1056" y="-97.0" width="33" height="33" fill="#bbb" />
<rect x="1088" y="-97.0" width="33" height="33" fill="white" />
<rect x="928" y="-129.0" width="33" height="33" fill="#bbb" />
<rect x="960" y="-129.0" width="33" height="33" fill="#bbb" />
<rect x="992" y="-129.0" width="33" height="33" fill="#bbb" />
<rect x="1024" y="-129.0" width="33" height="33" fill="#bbb" />
<rect x="1056" y="-129.0" width="33" height="33" fill="#bbb" />
<rect x="1088" y="-129.0" width="33" height="33" fill="white" />
<rect x="928" y="-161.0" width="33" height="33" fill="#bbb" />
<rect x="960" y="-161.0" width="33" height="33" fill="#bbb" />
<rect x="992" y="-161.0" width="33" height="33" fill="#bbb" />
<rect x="1024" y="-161.0" width="33" height="33" fill="#bbb" />
<rect x="1056" y="-161.0" width="33" height="33" fill="#bbb" />
<rect x="1088" y="-161.0" width="33" height="33" fill="white" />
<rect x="1152" y="-97.0" width="33" height="33" fill="#bbb" />
<rect x="1184" y="-97.0" width="33" height="33" fill="#bbb" />
<rect x="1216" y="-97.0" width="33" height="33" fill="white" />
<rect x="1248" y="-97.0" width="33" height="33" fill="#bbb" />
<rect x="1152" y="-129.0" width="33" height="33" fill="#bbb" />
<rect x="1184" y="-129.0" width="33" height="33" fill="#bbb" />
<rect x="1216" y="-129.0" width="33" height="33" fill="white" />
<rect x="1248" y="-129.0" width="33" height="33" fill="white" />
<rect x="1152" y="-161.0" width="33" height="33" fill="#bbb" />
<rect x="1184" y="-161.0" width="33" height="33" fill="#bbb" />
<rect x="1216" y="-161.0" width="33" height="33" fill="white" />
<rect x="1248" y="-161.0" width="33" height="33" fill="#bbb" />
<rect x="1312" y="-97.0" width="33" height="33" fill="#bbb" />
<rect x="1344" y="-97.0" width="33" height="33" fill="white" />
<rect x="1376" y="-97.0" width="33" height="33" fill="#bbb" />
<rect x="1312" y="-129.0" width="33" height="33" fill="white" />
<rect x="1344" y="-129.0" width="33" height="33" fill="white" />
<rect x="1376" y="-129.0" width="33" height="33" fill="white" />
<rect x="1312" y="-161.0" width="33" height="33" fill="#bbb" />
<rect x="1344" y="-161.0" width="33" height="33" fill="white" />
<rect x="1376" y="-161.0" width="33" height="33" fill="#bbb" />
<path d="M32,-0.0 L32,-32.0" stroke="#ddd" stroke-width="1" fill="none" />
<path d="M64,-0.0 L64,-32.0" stroke="#ddd" stroke-width="1" fill="none" />
<path d="M96,-0.0 L96,-32.0" stroke="#ddd" stroke-width="1" fill="none" />
<path d="M128,-0.0 L128,-32.0" stroke="#ddd" stroke-width="1" fill="none" />
<path d="M160,-0.0 L160,-32.0" stroke="#ddd" stroke-width="1" fill="none" />
<path d="M192,-0.0 L192,-32.0" stroke="#ddd" stroke-width="1" fill="none" />
<path d="M32,-32.0 L32,-64.0" stroke="#ddd" stroke-width="1" fill="none" />
<path d="M64,-32.0 L64,-64.0" stroke="#ddd" stroke-width="1" fill="none" />
<path d="M96,-32.0 L96,-64.0" stroke="#ddd" stroke-width="1" fill="none" />
<path d="M128,-32.0 L128,-64.0" stroke="#ddd" stroke-width="1" fill="none" />
<path d="M160,-32.0 L160,-64.0" stroke="#ddd" stroke-width="1" fill="none" />
<path d="M192,-32.0 L192,-64.0" stroke="#ddd" stroke-width="1" fill="none" />
<path d="M32,-64.0 L32,-96.0" stroke="#ddd" stroke-width="1" fill="none" />
<path d="M64,-64.0 L64,-96.0" stroke="#ddd" stroke-width="1" fill="none" />
<path d="M96,-64.0 L96,-96.0" stroke="#ddd" stroke-width="1" fill="none" />
<path d="M128,-64.0 L128,-96.0" stroke="#ddd" stroke-width="1" fill="none" />
<path d="M160,-64.0 L160,-96.0" stroke="#ddd" stroke-width="1" fill="none" />
<path d="M192,-64.0 L192,-96.0" stroke="#ddd" stroke-width="1" fill="none" />
<path d="M32,-96.0 L32,-128.0" stroke="#ddd" stroke-width="1" fill="none" />
<path d="M64,-96.0 L64,-128.0" stroke="#ddd" stroke-width="1" fill="none" />
<path d="M96,-96.0 L96,-128.0" stroke="#ddd" stroke-width="1" fill="none" />
<path d="M128,-96.0 L128,-128.0" stroke="#ddd" stroke-width="1" fill="none" />
<path d="M160,-96.0 L160,-128.0" stroke="#ddd" stroke-width="1" fill="none" />
<path d="M192,-96.0 L192,-128.0" stroke="#ddd" stroke-width="1" fill="none" />
<path d="M32,-128.0 L32,-160.0" stroke="#ddd" stroke-width="1" fill="none" />
<path d="M64,-128.0 L64,-160.0" stroke="#ddd" stroke-width="1" fill="none" />
<path d="M96,-128.0 L96,-160.0" stroke="#ddd" stroke-width="1" fill="none" />
<path d="M128,-128.0 L128,-160.0" stroke="#ddd" stroke-width="1" fill="none" />
<path d="M160,-128.0 L160,-160.0" stroke="#ddd" stroke-width="1" fill="none" />
<path d="M192,-128.0 L192,-160.0" stroke="#ddd" stroke-width="1" fill="none" />
<path d="M32,-160.0 L32,-192.0" stroke="#ddd" stroke-width="1" fill="none" />
<path d="M64,-160.0 L64,-192.0" stroke="#ddd" stroke-width="1" fill="none" />
<path d="M96,-160.0 L96,-192.0" stroke="#ddd" stroke-width="1" fill="none" />
<path d="M128,-160.0 L128,-192.0" stroke="#ddd" stroke-width="1" fill="none" />
<path d="M160,-160.0 L160,-192.0" stroke="#ddd" stroke-width="1" fill="none" />
<path d="M192,-160.0 L192,-192.0" stroke="#ddd" stroke-width="1" fill="none" />
<path d="M32,-192.0 L32,-224.0" stroke="#ddd" stroke-width="1" fill="none" />
<path d="M64,-192.0 L64,-224.0" stroke="#ddd" stroke-width="1" fill="none" />
<path d="M96,-192.0 L96,-224.0" stroke="#ddd" stroke-width="1" fill="none" />
<path d="M128,-192.0 L128,-224.0" stroke="#ddd" stroke-width="1" fill="none" />
<path d="M160,-192.0 L160,-224.0" stroke="#ddd" stroke-width="1" fill="none" />
<path d="M192,-192.0 L192,-224.0" stroke="#ddd" stroke-width="1" fill="none" />
<path d="M0,-32.0 L32,-32.0" stroke="#ddd" stroke-width="1" fill="none" />
<path d="M32,-32.0 L64,-32.0" stroke="#ddd" stroke-width="1" fill="none" />
<path d="M64,-32.0 L96,-32.0" stroke="#ddd" stroke-width="1" fill="none" />
<path d="M96,-32.0 L128,-32.0" stroke="#ddd" stroke-width="1" fill="none" />
<path d="M128,-32.0 L160,-32.0" stroke="#ddd" stroke-width="1" fill="none" />
<path d="M160,-32.0 L192,-32.0" stroke="#ddd" stroke-width="1" fill="none" />
<path d="M192,-32.0 L224,-32.0" stroke="#ddd" stroke-width="1" fill="none" />
<path d="M0,-64.0 L32,-64.0" stroke="#ddd" stroke-width="1" fill="none" />
<path d="M32,-64.0 L64,-64.0" stroke="#ddd" stroke-width="1" fill="none" />
<path d="M64,-64.0 L96,-64.0" stroke="#ddd" stroke-width="1" fill="none" />
<path d="M96,-64.0 L128,-64.0" stroke="#ddd" stroke-width="1" fill="none" />
<path d="M128,-64.0 L160,-64.0" stroke="#ddd" stroke-width="1" fill="none" />
<path d="M160,-64.0 L192,-64.0" stroke="#ddd" stroke-width="1" fill="none" />
<path d="M192,-64.0 L224,-64.0" stroke="#ddd" stroke-width="1" fill="none" />
<path d="M0,-96.0 L32,-96.0" stroke="#ddd" stroke-width="1" fill="none" />
<path d="M32,-96.0 L64,-96.0" stroke="#ddd" stroke-width="1" fill="none" />
<path d="M64,-96.0 L96,-96.0" stroke="#ddd" stroke-width="1" fill="none" />
<path d="M96,-96.0 L128,-96.0" stroke="#ddd" stroke-width="1" fill="none" />
<path d="M128,-96.0 L160,-96.0" stroke="#ddd" stroke-width="1" fill="none" />
<path d="M160,-96.0 L192,-96.0" stroke="#ddd" stroke-width="1" fill="none" />
<path d="M192,-96.0 L224,-96.0" stroke="#ddd" stroke-width="1" fill="none" />
<path d="M0,-128.0 L32,-128.0" stroke="#ddd" stroke-width="1" fill="none" />
<path d="M32,-128.0 L64,-128.0" stroke="#ddd" stroke-width="1" fill="none" />
<path d="M64,-128.0 L96,-128.0" stroke="#ddd" stroke-width="1" fill="none" />
<path d="M96,-128.0 L128,-128.0" stroke="#ddd" stroke-width="1" fill="none" />
<path d="M128,-128.0 L160,-128.0" stroke="#ddd" stroke-width="1" fill="none" />
<path d="M160,-128.0 L192,-128.0" stroke="#ddd" stroke-width="1" fill="none" />
<path d="M192,-128.0 L224,-128.0" stroke="#ddd" stroke-width="1" fill="none" />
<path d="M0,-160.0 L32,-160.0" stroke="#ddd" stroke-width="1" fill="none" />
<path d="M32,-160.0 L64,-160.0" stroke="#ddd" stroke-width="1" fill="none" />
<path d="M64,-160.0 L96,-160.0" stroke="#ddd" stroke-width="1" fill="none" />
<path d="M96,-160.0 L128,-160.0" stroke="#ddd" stroke-width="1" fill="none" />
<path d="M128,-160.0 L160,-160.0" stroke="#ddd" stroke-width="1" fill="none" />
<path d="M160,-160.0 L192,-160.0" stroke="#ddd" stroke-width="1" fill="none" />
<path d="M192,-160.0 L224,-160.0" stroke="#ddd" stroke-width="1" fill="none" />
<path d="M0,-192.0 L32,-192.0" stroke="#ddd" stroke-width="1" fill="none" />
<path d="M32,-192.0 L64,-192.0" stroke="#ddd" stroke-width="1" fill="none" />
<path d="M64,-192.0 L96,-192.0" stroke="#ddd" stroke-width="1" fill="none" />
<path d="M96,-192.0 L128,-192.0" stroke="#ddd" stroke-width="1" fill="none" />
<path d="M128,-192.0 L160,-192.0" stroke="#ddd" stroke-width="1" fill="none" />
<path d="M160,-192.0 L192,-192.0" stroke="#ddd" stroke-width="1" fill="none" />
<path d="M192,-192.0 L224,-192.0" stroke="#ddd" stroke-width="1" fill="none" />
<path d="M288,-0.0 L288,-32.0" stroke="#ddd" stroke-width="1" fill="none" />
<path d="M320,-0.0 L320,-32.0" stroke="#ddd" stroke-width="1" fill="none" />
<path d="M352,-0.0 L352,-32.0" stroke="#ddd" stroke-width="1" fill="none" />
<path d="M384,-0.0 L384,-32.0" stroke="#ddd" stroke-width="1" fill="none" />
<path d="M288,-32.0 L288,-64.0" stroke="#ddd" stroke-width="1" fill="none" />
<path d="M320,-32.0 L320,-64.0" stroke="#ddd" stroke-width="1" fill="none" />
<path d="M352,-32.0 L352,-64.0" stroke="#ddd" stroke-width="1" fill="none" />
<path d="M384,-32.0 L384,-64.0" stroke="#ddd" stroke-width="1" fill="none" />
<path d="M288,-64.0 L288,-96.0" stroke="#ddd" stroke-width="1" fill="none" />
<path d="M320,-64.0 L320,-96.0" stroke="#ddd" stroke-width="1" fill="none" />
<path d="M352,-64.0 L352,-96.0" stroke="#ddd" stroke-width="1" fill="none" />
<path d="M384,-64.0 L384,-96.0" stroke="#ddd" stroke-width="1" fill="none" />
<path d="M288,-96.0 L288,-128.0" stroke="#ddd" stroke-width="1" fill="none" />
<path d="M320,-96.0 L320,-128.0" stroke="#ddd" stroke-width="1" fill="none" />
<path d="M352,-96.0 L352,-128.0" stroke="#ddd" stroke-width="1" fill="none" />
<path d="M384,-96.0 L384,-128.0" stroke="#ddd" stroke-width="1" fill="none" />
<path d="M288,-128.0 L288,-160.0" stroke="#ddd" stroke-width="1" fill="none" />
<path d="M320,-128.0 L320,-160.0" stroke="#ddd" stroke-width="1" fill="none" />
<path d="M352,-128.0 L352,-160.0" stroke="#ddd" stroke-width="1" fill="none" />
<path d="M384,-128.0 L384,-160.0" stroke="#ddd" stroke-width="1" fill="none" />
<path d="M288,-160.0 L288,-192.0" stroke="#ddd" stroke-width="1" fill="none" />
<path d="M320,-160.0 L320,-192.0" stroke="#ddd" stroke-width="1" fill="none" />
<path d="M352,-160.0 L352,-192.0" stroke="#ddd" stroke-width="1" fill="none" />
<path d="M384,-160.0 L384,-192.0" stroke="#ddd" stroke-width="1" fill="none" />
<path d="M288,-192.0 L288,-224.0" stroke="#ddd" stroke-width="1" fill="none" />
<path d="M320,-192.0 L320,-224.0" stroke="#ddd" stroke-width="1" fill="none" />
<path d="M352,-192.0 L352,-224.0" stroke="#ddd" stroke-width="1" fill="none" />
<path d="M384,-192.0 L384,-224.0" stroke="#ddd" stroke-width="1" fill="none" />
<path d="M256,-32.0 L288,-32.0" stroke="#ddd" stroke-width="1" fill="none" />
<path d="M288,-32.0 L320,-32.0" stroke="#ddd" stroke-width="1" fill="none" />
<path d="M320,-32.0 L352,-32.0" stroke="#ddd" stroke-width="1" fill="none" />
<path d="M352,-32.0 L384,-32.0" stroke="#ddd" stroke-width="1" fill="none" />
<path d="M384,-32.0 L416,-32.0" stroke="#ddd" stroke-width="1" fill="none" />
<path d="M416,-32.0 L448,-32.0" stroke="#ddd" stroke-width="1" fill="none" />
<path d="M256,-64.0 L288,-64.0" stroke="#ddd" stroke-width="1" fill="none" />
<path d="M288,-64.0 L320,-64.0" stroke="#ddd" stroke-width="1" fill="none" />
<path d="M320,-64.0 L352,-64.0" stroke="#ddd" stroke-width="1" fill="none" />
<path d="M352,-64.0 L384,-64.0" stroke="#ddd" stroke-width="1" fill="none" />
<path d="M384,-64.0 L416,-64.0" stroke="#ddd" stroke-width="1" fill="none" />
<path d="M416,-64.0 L448,-64.0" stroke="#ddd" stroke-width="1" fill="none" />
<path d="M256,-96.0 L288,-96.0" stroke="#ddd" stroke-width="1" fill="none" />
<path d="M288,-96.0 L320,-96.0" stroke="#ddd" stroke-width="1" fill="none" />
<path d="M320,-96.0 L352,-96.0" stroke="#ddd" stroke-width="1" fill="none" />
<path d="M352,-96.0 L384,-96.0" stroke="#ddd" stroke-width="1" fill="none" />
<path d="M384,-96.0 L416,-96.0" stroke="#ddd" stroke-width="1" fill="none" />
<path d="M416,-96.0 L448,-96.0" stroke="#ddd" stroke-width="1" fill="none" />
<path d="M256,-128.0 L288,-128.0" stroke="#ddd" stroke-width="1" fill="none" />
<path d="M288,-128.0 L320,-128.0" stroke="#ddd" stroke-width="1" fill="none" />
<path d="M320,-128.0 L352,-128.0" stroke="#ddd" stroke-width="1" fill="none" />
<path d="M352,-128.0 L384,-128.0" stroke="#ddd" stroke-width="1" fill="none" />
<path d="M384,-128.0 L416,-128.0" stroke="#ddd" stroke-width="1" fill="none" />
<path d="M416,-128.0 L448,-128.0" stroke="#ddd" stroke-width="1" fill="none" />
<path d="M256,-160.0 L288,-160.0" stroke="#ddd" stroke-width="1" fill="none" />
<path d="M288,-160.0 L320,-160.0" stroke="#ddd" stroke-width="1" fill="none" />
<path d="M320,-160.0 L352,-160.0" stroke="#ddd" stroke-width="1" fill="none" />
<path d="M352,-160.0 L384,-160.0" stroke="#ddd" stroke-width="1" fill="none" />
<path d="M384,-160.0 L416,-160.0" stroke="#ddd" stroke-width="1" fill="none" />
<path d="M416,-160.0 L448,-160.0" stroke="#ddd" stroke-width="1" fill="none" />
<path d="M256,-192.0 L288,-192.0" stroke="#ddd" stroke-width="1" fill="none" />
<path d="M288,-192.0 L320,-192.0" stroke="#ddd" stroke-width="1" fill="none" />
<path d="M320,-192.0 L352,-192.0" stroke="#ddd" stroke-width="1" fill="none" />
<path d="M352,-192.0 L384,-192.0" stroke="#ddd" stroke-width="1" fill="none" />
<path d="M384,-192.0 L416,-192.0" stroke="#ddd" stroke-width="1" fill="none" />
<path d="M416,-192.0 L448,-192.0" stroke="#ddd" stroke-width="1" fill="none" />
<path d="M512,-32.0 L512,-64.0" stroke="#ddd" stroke-width="1" fill="none" />
<path d="M544,-32.0 L544,-64.0" stroke="#ddd" stroke-width="1" fill="none" />
<path d="M576,-32.0 L576,-64.0" stroke="#ddd" stroke-width="1" fill="none" />
<path d="M608,-32.0 L608,-64.0" stroke="#ddd" stroke-width="1" fill="none" />
<path d="M512,-64.0 L512,-96.0" stroke="#ddd" stroke-width="1" fill="none" />
<path d="M544,-64.0 L544,-96.0" stroke="#ddd" stroke-width="1" fill="none" />
<path d="M576,-64.0 L576,-96.0" stroke="#ddd" stroke-width="1" fill="none" />
<path d="M608,-64.0 L608,-96.0" stroke="#ddd" stroke-width="1" fill="none" />
<path d="M512,-96.0 L512,-128.0" stroke="#ddd" stroke-width="1" fill="none" />
<path d="M544,-96.0 L544,-128.0" stroke="#ddd" stroke-width="1" fill="none" />
<path d="M576,-96.0 L576,-128.0" stroke="#ddd" stroke-width="1" fill="none" />
<path d="M608,-96.0 L608,-128.0" stroke="#ddd" stroke-width="1" fill="none" />
<path d="M512,-128.0 L512,-160.0" stroke="#ddd" stroke-width="1" fill="none" />
<path d="M544,-128.0 L544,-160.0" stroke="#ddd" stroke-width="1" fill="none" />
<path d="M576,-128.0 L576,-160.0" stroke="#ddd" stroke-width="1" fill="none" />
<path d="M608,-128.0 L608,-160.0" stroke="#ddd" stroke-width="1" fill="none" />
<path d="M512,-160.0 L512,-192.0" stroke="#ddd" stroke-width="1" fill="none" />
<path d="M544,-160.0 L544,-192.0" stroke="#ddd" stroke-width="1" fill="none" />
<path d="M576,-160.0 L576,-192.0" stroke="#ddd" stroke-width="1" fill="none" />
<path d="M608,-160.0 L608,-192.0" stroke="#ddd" stroke-width="1" fill="none" />
<path d="M480,-64.0 L512,-64.0" stroke="#ddd" stroke-width="1" fill="none" />
<path d="M512,-64.0 L544,-64.0" stroke="#ddd" stroke-width="1" fill="none" />
<path d="M544,-64.0 L576,-64.0" stroke="#ddd" stroke-width="1" fill="none" />
<path d="M576,-64.0 L608,-64.0" stroke="#ddd" stroke-width="1" fill="none" />
<path d="M608,-64.0 L640,-64.0" stroke="#ddd" stroke-width="1" fill="none" />
<path d="M640,-64.0 L672,-64.0" stroke="#ddd" stroke-width="1" fill="none" />
<path d="M480,-96.0 L512,-96.0" stroke="#ddd" stroke-width="1" fill="none" />
<path d="M512,-96.0 L544,-96.0" stroke="#ddd" stroke-width="1" fill="none" />
<path d="M544,-96.0 L576,-96.0" stroke="#ddd" stroke-width="1" fill="none" />
<path d="M576,-96.0 L608,-96.0" stroke="#ddd" stroke-width="1" fill="none" />
<path d="M608,-96.0 L640,-96.0" stroke="#ddd" stroke-width="1" fill="none" />
<path d="M640,-96.0 L672,-96.0" stroke="#ddd" stroke-width="1" fill="none" />
<path d="M480,-128.0 L512,-128.0" stroke="#ddd" stroke-width="1" fill="none" />
<path d="M512,-128.0 L544,-128.0" stroke="#ddd" stroke-width="1" fill="none" />
<path d="M544,-128.0 L576,-128.0" stroke="#ddd" stroke-width="1" fill="none" />
<path d="M576,-128.0 L608,-128.0" stroke="#ddd" stroke-width="1" fill="none" />
<path d="M608,-128.0 L640,-128.0" stroke="#ddd" stroke-width="1" fill="none" />
<path d="M640,-128.0 L672,-128.0" stroke="#ddd" stroke-width="1" fill="none" />
<path d="M480,-160.0 L512,-160.0" stroke="#ddd" stroke-width="1" fill="none" />
<path d="M512,-160.0 L544,-160.0" stroke="#ddd" stroke-width="1" fill="none" />
<path d="M544,-160.0 L576,-160.0" stroke="#ddd" stroke-width="1" fill="none" />
<path d="M576,-160.0 L608,-160.0" stroke="#ddd" stroke-width="1" fill="none" />
<path d="M608,-160.0 L640,-160.0" stroke="#ddd" stroke-width="1" fill="none" />
<path d="M640,-160.0 L672,-160.0" stroke="#ddd" stroke-width="1" fill="none" />
<path d="M736,-48.0 L736,-80.0" stroke="#ddd" stroke-width="1" fill="none" />
<path d="M768,-48.0 L768,-80.0" stroke="#ddd" stroke-width="1" fill="none" />
<path d="M800,-48.0 L800,-80.0" stroke="#ddd" stroke-width="1" fill="none" />
<path d="M832,-48.0 L832,-80.0" stroke="#ddd" stroke-width="1" fill="none" />
<path d="M736,-80.0 L736,-112.0" stroke="#ddd" stroke-width="1" fill="none" />
<path d="M768,-80.0 L768,-112.0" stroke="#ddd" stroke-width="1" fill="none" />
<path d="M800,-80.0 L800,-112.0" stroke="#ddd" stroke-width="1" fill="none" />
<path d="M832,-80.0 L832,-112.0" stroke="#ddd" stroke-width="1" fill="none" />
<path d="M736,-112.0 L736,-144.0" stroke="#ddd" stroke-width="1" fill="none" />
<path d="M768,-112.0 L768,-144.0" stroke="#ddd" stroke-width="1" fill="none" />
<path d="M800,-112.0 L800,-144.0" stroke="#ddd" stroke-width="1" fill="none" />
<path d="M832,-112.0 L832,-144.0" stroke="#ddd" stroke-width="1" fill="none" />
<path d="M736,-144.0 L736,-176.0" stroke="#ddd" stroke-width="1" fill="none" />
<path d="M768,-144.0 L768,-176.0" stroke="#ddd" stroke-width="1" fill="none" />
<path d="M800,-144.0 L800,-176.0" stroke="#ddd" stroke-width="1" fill="none" />
<path d="M832,-144.0 L832,-176.0" stroke="#ddd" stroke-width="1" fill="none" />
<path d="M704,-80.0 L736,-80.0" stroke="#ddd" stroke-width="1" fill="none" />
<path d="M736,-80.0 L768,-80.0" stroke="#ddd" stroke-width="1" fill="none" />
<path d="M768,-80.0 L800,-80.0" stroke="#ddd" stroke-width="1" fill="none" />
<path d="M800,-80.0 L832,-80.0" stroke="#ddd" stroke-width="1" fill="none" />
<path d="M832,-80.0 L864,-80.0" stroke="#ddd" stroke-width="1" fill="none" />
<path d="M864,-80.0 L896,-80.0" stroke="#ddd" stroke-width="1" fill="none" />
<path d="M704,-112.0 L736,-112.0" stroke="#ddd" stroke-width="1" fill="none" />
<path d="M736,-112.0 L768,-112.0" stroke="#ddd" stroke-width="1" fill="none" />
<path d="M768,-112.0 L800,-112.0" stroke="#ddd" stroke-width="1" fill="none" />
<path d="M800,-112.0 L832,-112.0" stroke="#ddd" stroke-width="1" fill="none" />
<path d="M832,-112.0 L864,-112.0" stroke="#ddd" stroke-width="1" fill="none" />
<path d="M864,-112.0 L896,-112.0" stroke="#ddd" stroke-width="1" fill="none" />
<path d="M704,-144.0 L736,-144.0" stroke="#ddd" stroke-width="1" fill="none" />
<path d="M736,-144.0 L768,-144.0" stroke="#ddd" stroke-width="1" fill="none" />
<path d="M768,-144.0 L800,-144.0" stroke="#ddd" stroke-width="1" fill="none" />
<path d="M800,-144.0 L832,-144.0" stroke="#ddd" stroke-width="1" fill="none" />
<path d="M832,-144.0 L864,-144.0" stroke="#ddd" stroke-width="1" fill="none" />
<path d="M864,-144.0 L896,-144.0" stroke="#ddd" stroke-width="1" fill="none" />
<path d="M960,-64.0 L960,-96.0" stroke="#ddd" stroke-width="1" fill="none" />
<path d="M992,-64.0 L992,-96.0" stroke="#ddd" stroke-width="1" fill="none" />
<path d="M1024,-64.0 L1024,-96.0" stroke="#ddd" stroke-width="1" fill="none" />
<path d="M1056,-64.0 L1056,-96.0" stroke="#ddd" stroke-width="1" fill="none" />
<path d="M960,-96.0 L960,-128.0" stroke="#ddd" stroke-width="1" fill="none" />
<path d="M992,-96.0 L992,-128.0" stroke="#ddd" stroke-width="1" fill="none" />
<path d="M1024,-96.0 L1024,-128.0" stroke="#ddd" stroke-width="1" fill="none" />
<path d="M1056,-96.0 L1056,-128.0" stroke="#ddd" stroke-width="1" fill="none" />
<path d="M960,-128.0 L960,-160.0" stroke="#ddd" stroke-width="1" fill="none" />
<path d="M992,-128.0 L992,-160.0" stroke="#ddd" stroke-width="1" fill="none" />
<path d="M1024,-128.0 L1024,-160.0" stroke="#ddd" stroke-width="1" fill="none" />
<path d="M1056,-128.0 L1056,-160.0" stroke="#ddd" stroke-width="1" fill="none" />
<path d="M928,-96.0 L960,-96.0" stroke="#ddd" stroke-width="1" fill="none" />
<path d="M960,-96.0 L992,-96.0" stroke="#ddd" stroke-width="1" fill="none" />
<path d="M992,-96.0 L1024,-96.0" stroke="#ddd" stroke-width="1" fill="none" />
<path d="M1024,-96.0 L1056,-96.0" stroke="#ddd" stroke-width="1" fill="none" />
<path d="M1056,-96.0 L1088,-96.0" stroke="#ddd" stroke-width="1" fill="none" />
<path d="M1088,-96.0 L1120,-96.0" stroke="#ddd" stroke-width="1" fill="none" />
<path d="M928,-128.0 L960,-128.0" stroke="#ddd" stroke-width="1" fill="none" />
<path d="M960,-128.0 L992,-128.0" stroke="#ddd" stroke-width="1" fill="none" />
<path d="M992,-128.0 L1024,-128.0" stroke="#ddd" stroke-width="1" fill="none" />
<path d="M1024,-128.0 L1056,-128.0" stroke="#ddd" stroke-width="1" fill="none" />
<path d="M1056,-128.0 L1088,-128.0" stroke="#ddd" stroke-width="1" fill="none" />
<path d="M1088,-128.0 L1120,-128.0" stroke="#ddd" stroke-width="1" fill="none" />
<path d="M1184,-64.0 L1184,-96.0" stroke="#ddd" stroke-width="1" fill="none" />
<path d="M1184,-96.0 L1184,-128.0" stroke="#ddd" stroke-width="1" fill="none" />
<path d="M1248,-96.0 L1248,-128.0" stroke="#ddd" stroke-width="1" fill="none" />
<path d="M1184,-128.0 L1184,-160.0" stroke="#ddd" stroke-width="1" fill="none" />
<path d="M1152,-96.0 L1184,-96.0" stroke="#ddd" stroke-width="1" fill="none" />
<path d="M1184,-96.0 L1216,-96.0" stroke="#ddd" stroke-width="1" fill="none" />
<path d="M1152,-128.0 L1184,-128.0" stroke="#ddd" stroke-width="1" fill="none" />
<path d="M1184,-128.0 L1216,-128.0" stroke="#ddd" stroke-width="1" fill="none" />
<path d="M1376,-96.0 L1376,-128.0" stroke="#ddd" stroke-width="1" fill="none" />
<path d="M352.0,-178.47520861406804 A36.950417228136054,36.950417228136054,0,0,1,352.0,-141.52479138593196" stroke="grey" stroke-width="1" fill="none" marker-end="url(#d0)" />
<path d="M576.0,-45.524791385931955 A36.950417228136054,36.950417228136054,0,0,0,576.0,-82.47520861406802" stroke="grey" stroke-width="1" fill="none" marker-end="url(#d0)" />
<path d="M800.0,-162.47520861406804 A36.950417228136054,36.950417228136054,0,0,1,800.0,-125.52479138593196" stroke="grey" stroke-width="1" fill="none" marker-end="url(#d0)" />
<path d="M0,-0.0 L224,-0.0 L224,-224.0 L0,-224.0 Z" stroke="black" stroke-width="2" fill="none" />
<path d="M416,-0.0 L416,-32.0" stroke="black" stroke-width="2" fill="none" />
<path d="M416,-32.0 L416,-64.0" stroke="black" stroke-width="2" fill="none" />
<path d="M416,-64.0 L416,-96.0" stroke="black" stroke-width="2" fill="none" />
<path d="M416,-96.0 L416,-128.0" stroke="black" stroke-width="2" fill="none" />
<path d="M416,-128.0 L416,-160.0" stroke="black" stroke-width="2" fill="none" />
<path d="M416,-160.0 L416,-192.0" stroke="black" stroke-width="2" fill="none" />
<path d="M416,-192.0 L416,-224.0" stroke="black" stroke-width="2" fill="none" />
<path d="M256,-0.0 L448,-0.0 L448,-224.0 L256,-224.0 Z" stroke="black" stroke-width="2" fill="none" />
<path d="M640,-32.0 L640,-64.0" stroke="black" stroke-width="2" fill="none" />
<path d="M640,-64.0 L640,-96.0" stroke="black" stroke-width="2" fill="none" />
<path d="M640,-96.0 L640,-128.0" stroke="black" stroke-width="2" fill="none" />
<path d="M640,-128.0 L640,-160.0" stroke="black" stroke-width="2" fill="none" />
<path d="M640,-160.0 L640,-192.0" stroke="black" stroke-width="2" fill="none" />
<path d="M480,-32.0 L672,-32.0 L672,-192.0 L480,-192.0 Z" stroke="black" stroke-width="2" fill="none" />
<path d="M864,-48.0 L864,-80.0" stroke="black" stroke-width="2" fill="none" />
<path d="M864,-80.0 L864,-112.0" stroke="black" stroke-width="2" fill="none" />
<path d="M864,-112.0 L864,-144.0" stroke="black" stroke-width="2" fill="none" />
<path d="M864,-144.0 L864,-176.0" stroke="black" stroke-width="2" fill="none" />
<path d="M704,-48.0 L896,-48.0 L896,-176.0 L704,-176.0 Z" stroke="black" stroke-width="2" fill="none" />
<path d="M1088,-64.0 L1088,-96.0" stroke="black" stroke-width="2" fill="none" />
<path d="M1088,-96.0 L1088,-128.0" stroke="black" stroke-width="2" fill="none" />
<path d="M1088,-128.0 L1088,-160.0" stroke="black" stroke-width="2" fill="none" />
<path d="M928,-64.0 L1120,-64.0 L1120,-160.0 L928,-160.0 Z" stroke="black" stroke-width="2" fill="none" />
<path d="M1216,-64.0 L1216,-96.0" stroke="black" stroke-width="2" fill="none" />
<path d="M1248,-64.0 L1248,-96.0" stroke="black" stroke-width="2" fill="none" />
<path d="M1216,-96.0 L1216,-128.0" stroke="black" stroke-width="2" fill="none" />
<path d="M1216,-128.0 L1216,-160.0" stroke="black" stroke-width="2" fill="none" />
<path d="M1248,-128.0 L1248,-160.0" stroke="black" stroke-width="2" fill="none" />
<path d="M1216,-96.0 L1248,-96.0" stroke="black" stroke-width="2" fill="none" />
<path d="M1248,-96.0 L1280,-96.0" stroke="black" stroke-width="2" fill="none" />
<path d="M1216,-128.0 L1248,-128.0" stroke="black" stroke-width="2" fill="none" />
<path d="M1248,-128.0 L1280,-128.0" stroke="black" stroke-width="2" fill="none" />
<path d="M1152,-64.0 L1280,-64.0 L1280,-160.0 L1152,-160.0 Z" stroke="black" stroke-width="2" fill="none" />
<path d="M1344,-64.0 L1344,-96.0" stroke="black" stroke-width="2" fill="none" />
<path d="M1376,-64.0 L1376,-96.0" stroke="black" stroke-width="2" fill="none" />
<path d="M1344,-96.0 L1344,-128.0" stroke="black" stroke-width="2" fill="none" />
<path d="M1344,-128.0 L1344,-160.0" stroke="black" stroke-width="2" fill="none" />
<path d="M1376,-128.0 L1376,-160.0" stroke="black" stroke-width="2" fill="none" />
<path d="M1312,-96.0 L1344,-96.0" stroke="black" stroke-width="2" fill="none" />
<path d="M1344,-96.0 L1376,-96.0" stroke="black" stroke-width="2" fill="none" />
<path d="M1376,-96.0 L1408,-96.0" stroke="black" stroke-width="2" fill="none" />
<path d="M1312,-128.0 L1344,-128.0" stroke="black" stroke-width="2" fill="none" />
<path d="M1344,-128.0 L1376,-128.0" stroke="black" stroke-width="2" fill="none" />
<path d="M1376,-128.0 L1408,-128.0" stroke="black" stroke-width="2" fill="none" />
<path d="M1312,-64.0 L1408,-64.0 L1408,-160.0 L1312,-160.0 Z" stroke="black" stroke-width="2" fill="none" />
<path d="M210.47520861406804,-112.0 A36.950417228136054,36.950417228136054,0,0,0,173.524791385932,-112.0" stroke="black" stroke-width="1" fill="none" marker-end="url(#d1)" />
<path d="M1074.475208614068,-112.0 A36.950417228136054,36.950417228136054,0,0,0,1037.524791385932,-112.0" stroke="black" stroke-width="1" fill="none" marker-end="url(#d1)" />
<path d="M1165.524791385932,-112.0 A36.950417228136054,36.950417228136054,0,0,1,1202.475208614068,-112.0" stroke="black" stroke-width="1" fill="none" marker-end="url(#d1)" />
<path d="M192,-0.0 L192,-224.0" stroke="black" stroke-width="1" fill="none" stroke-dasharray="4" />
<path d="M256,-160.0 L448,-160.0" stroke="black" stroke-width="1" fill="none" stroke-dasharray="10 2 2 2" />
<path d="M480,-64.0 L672,-64.0" stroke="black" stroke-width="1" fill="none" stroke-dasharray="10 2 2 2" />
<path d="M704,-144.0 L896,-144.0" stroke="black" stroke-width="1" fill="none" stroke-dasharray="10 2 2 2" />
<path d="M1056,-64.0 L1056,-160.0" stroke="black" stroke-width="1" fill="none" stroke-dasharray="4" />
<path d="M1184,-64.0 L1184,-160.0" stroke="black" stroke-width="1" fill="none" stroke-dasharray="4" />
</svg>